<svg xmlns="http://www.w3.org/2000/svg" width="36.073" height="22.652" viewBox="0 0 36.073 22.652">
  <g id="Group_2508" data-name="Group 2508" transform="translate(-0.755 -1)">
    <path id="Path_2957" data-name="Path 2957" d="M34.813,2.177c-2.481-1.521-5.3-.713-7.227.232L21.841,5.228,11.959,0,6.074.265l8.16,8.7-5.2,2.6L3.622,9.4,0,11.178l3.274,4.277A1.631,1.631,0,0,0,2.9,17.142c.372.838,1.47,1.261,3.272,1.261q.554,0,1.2-.053A16.755,16.755,0,0,0,12.831,17L33.37,6.921c1.774-.87,2.658-1.785,2.7-2.794A2.17,2.17,0,0,0,34.813,2.177Z" transform="translate(0.755 1.001)" fill="#228b5e" fill-rule="evenodd"/>
    <line id="Line_171" data-name="Line 171" x2="27.103" transform="translate(6.578 22.652)" fill="none" stroke="#9297a1" stroke-linecap="round" stroke-width="2"/>
  </g>
</svg>
