<svg xmlns="http://www.w3.org/2000/svg" width="38" height="34" viewBox="0 0 38 34">
  <g id="car-request-serv-icon" transform="translate(-1603.628 -696.048)">
    <rect id="icon-base" width="38" height="34" transform="translate(1603.628 696.048)" fill="none"/>
    <g id="Group_2452" data-name="Group 2452" transform="translate(1605.612 698.807)">
      <path id="Path_6459" data-name="Path 6459" d="M374.544,311.65v4.94a2.431,2.431,0,0,1-2.31,2.534H370.31A2.431,2.431,0,0,1,368,316.59v-2.406h4.234A2.426,2.426,0,0,0,374.544,311.65Z" transform="translate(-341.183 -290.97)" fill="#69b8c9"/>
      <path id="Path_6460" data-name="Path 6460" d="M42.725,191.135v.631a2.431,2.431,0,0,1-2.31,2.534h-28a2.431,2.431,0,0,1-2.31-2.534v-6.3a3.942,3.942,0,0,1,1.224-2.894l1.2-1.223H40.764v.04l.874,1.031a3.989,3.989,0,0,1,1.086,2.758v5.956Zm-3.381-.847v-4.133h-5.5v4.133Zm-20.353,0v-4.133h-5.5v4.133Z" transform="translate(-9.364 -171.086)" fill="#99d5e2"/>
      <g id="Group_2452-2" data-name="Group 2452" transform="translate(0.736 0.807)">
        <path id="Path_6461" data-name="Path 6461" d="M69.007,64.7l2.638,7.8H68.22a4.289,4.289,0,1,0-8.541,0H43.4l2.638-7.8A2.321,2.321,0,0,1,48.2,63.05H66.843A2.335,2.335,0,0,1,69.007,64.7Z" transform="translate(-40.973 -63.05)" fill="#d5edf2"/>
        <rect id="Rectangle_884" data-name="Rectangle 884" width="5.502" height="4.133" transform="translate(23.742 14.261)" fill="#e7f6f9"/>
        <path id="Path_6462" data-name="Path 6462" d="M275.241,127.334H266.7a4.289,4.289,0,1,1,8.541,0Z" transform="translate(-248.001 -117.886)" fill="#c3e9f1"/>
        <rect id="Rectangle_885" data-name="Rectangle 885" width="5.502" height="4.133" transform="translate(3.389 14.261)" fill="#e7f6f9"/>
        <path id="Path_6463" data-name="Path 6463" d="M16.644,314.224v2.366a2.431,2.431,0,0,1-2.31,2.534H12.41a2.431,2.431,0,0,1-2.31-2.534v-4.94a2.431,2.431,0,0,0,2.31,2.534h4.234Z" transform="translate(-10.1 -291.777)" fill="#69b8c9"/>
      </g>
      <path id="Path_6464" data-name="Path 6464" d="M32.056,62.847l-2.609-7.722A3.068,3.068,0,0,0,26.6,52.95H7.965a3.075,3.075,0,0,0-2.849,2.174L2.543,62.743,1.472,63.83A4.807,4.807,0,0,0,0,67.331v11.24A3.2,3.2,0,0,0,3.046,81.9H4.97a3.2,3.2,0,0,0,3.046-3.326V76.94H26.088v1.631A3.2,3.2,0,0,0,29.134,81.9h1.924A3.2,3.2,0,0,0,34.1,78.571V67.035a4.846,4.846,0,0,0-1.3-3.326ZM6.486,55.676a1.581,1.581,0,0,1,1.479-1.119H26.605a1.591,1.591,0,0,1,1.479,1.119l2.274,6.715H28.653a5.188,5.188,0,0,0-4.948-4.684,5.188,5.188,0,0,0-4.948,4.684H4.212Zm20.688,6.715h-6.93a3.645,3.645,0,0,1,3.469-3.086A3.638,3.638,0,0,1,27.174,62.391ZM6.558,78.571A1.66,1.66,0,0,1,4.97,80.3H3.046a1.67,1.67,0,0,1-1.589-1.727V76.476a2.763,2.763,0,0,0,1.589.464H6.558Zm24.5,1.727H29.134a1.665,1.665,0,0,1-1.589-1.727V76.94h3.512a2.763,2.763,0,0,0,1.589-.464v2.094A1.67,1.67,0,0,1,31.058,80.3Zm0-4.956H3.046a1.651,1.651,0,0,1-1.589-1.711v-6.3a3.128,3.128,0,0,1,.969-2.286l.029-.032,1-1.023h27.6l.7.823a.181.181,0,0,0,.036.04,3.143,3.143,0,0,1,.86,2.182v6.6A1.651,1.651,0,0,1,31.058,75.341Z" transform="translate(0 -52.95)" fill="#0096b6"/>
      <path id="Path_6465" data-name="Path 6465" d="M53.923,231.849a.769.769,0,0,0-.729-.8H47.729a.769.769,0,0,0-.729.8v4.157a.769.769,0,0,0,.729.8h5.465a.769.769,0,0,0,.729-.8Zm-1.457,3.357H48.457v-2.558h4.008Z" transform="translate(-43.575 -216.813)" fill="#0096b6"/>
      <path id="Path_6466" data-name="Path 6466" d="M332.923,231.849a.769.769,0,0,0-.729-.8h-5.465a.769.769,0,0,0-.729.8v4.157a.769.769,0,0,0,.729.8h5.465a.769.769,0,0,0,.729-.8Zm-1.457,3.357h-4.008v-2.558h4.008Z" transform="translate(-302.244 -216.813)" fill="#0096b6"/>
      <path id="Path_6467" data-name="Path 6467" d="M183.468,273.05h-7.039a.8.8,0,0,0,0,1.6h7.039a.8.8,0,0,0,0-1.6Z" transform="translate(-162.896 -255.455)" fill="#0096b6"/>
      <path id="Path_6468" data-name="Path 6468" d="M183.468,242.05h-7.039a.8.8,0,0,0,0,1.6h7.039a.8.8,0,0,0,0-1.6Z" transform="translate(-162.896 -226.933)" fill="#0096b6"/>
    </g>
  </g>
</svg>
