<svg id="Layer_1" data-name="Layer 1" xmlns="http://www.w3.org/2000/svg" width="32.212" height="37.864" viewBox="0 0 32.212 37.864">
  <path id="Path_6518" data-name="Path 6518" d="M15.042,3.561A3.55,3.55,0,1,1,14,1.042a3.561,3.561,0,0,1,1.038,2.519Z" transform="translate(-3.371 0)" fill="#0096b6"/>
  <path id="Path_6519" data-name="Path 6519" d="M24.561,31.251a1.258,1.258,0,0,0-1.3-1.327c-.258,0-.327-.069-.322-.327V26.368a1.574,1.574,0,0,0-1.689-1.723c-.379,0-.706,0-.839-.454a.873.873,0,0,0-.54-.448l-.574-.23a14.429,14.429,0,0,1-2.941-1.631,1.281,1.281,0,0,1-.574-1.04,8.581,8.581,0,0,0-.207-1.315,9.8,9.8,0,0,0-1.413-3.711,3.843,3.843,0,0,0-3.446-1.861c-1.723.04-3.412.052-5.118,0a3.923,3.923,0,0,0-3.647,2.033A11.028,11.028,0,0,0,.523,20.3,36.761,36.761,0,0,0,.3,27.942a1.017,1.017,0,0,0,.471.879c.379.2.333.488.333.8,0,.167-.052.218-.213.213H0v6.381H2.562c.27,0,.345-.052.345-.339V30.533c0-.706,0-.7-.706-.718-.126,0-.379.126-.379-.126s-.178-.528.218-.678a1.149,1.149,0,0,0,.787-1.218,6.727,6.727,0,0,0-.04-.89,29.351,29.351,0,0,1,.408-7.122,5.669,5.669,0,0,1,.649-1.821V41.55a1.838,1.838,0,0,0,1.045,1.723A1.8,1.8,0,0,0,6.824,43.2a2.01,2.01,0,0,0,.931-1.878V27.586c0-.253.034-.379.333-.356s.414,0,.414.356V41.429a1.959,1.959,0,1,0,3.912,0q0-11.132,0-22.269V17.908a.574.574,0,0,1,.207.339,11.488,11.488,0,0,1,.592,2.4c.063.414.092.839.184,1.246a3.619,3.619,0,0,0,1.269,1.85,11.815,11.815,0,0,0,2.062,1.373,1.941,1.941,0,0,0-.471,1.562c0,1.005,0,2,0,3.01,0,.138,0,.241-.2.258-1.022.075-1.424.523-1.424,1.545v9.759a1.252,1.252,0,0,0,1,1.367c.276.046.293.172.293.4,0,.546.132.775.454.787s.494-.236.477-.764c0-.287.063-.379.362-.373H21.6c.235,0,.517-.092.684.052s.029.4.052.574a.454.454,0,0,0,.465.471.465.465,0,0,0,.477-.437,1.9,1.9,0,0,0,0-.442c0-.19.052-.253.236-.287a1.235,1.235,0,0,0,1.04-1.3Q24.572,36.288,24.561,31.251ZM7.243,16.38a3.883,3.883,0,0,1,.293-1.063c.075-.149.391,0,.574-.052s.494-.092.574.052a4.159,4.159,0,0,1,.293,1.063c.034.213-.442.454-.873.454S7.2,16.592,7.243,16.38ZM9.5,23.744,8.122,25.467c-.482-.574-.931-1.149-1.39-1.723a.46.46,0,0,1-.092-.373q.4-2.924.793-5.842c0-.2.034-.356.327-.253a1.1,1.1,0,0,0,.729,0c.264-.1.281.029.31.224q.4,2.958.8,5.91A.419.419,0,0,1,9.5,23.744Zm7.387,2.671a1.367,1.367,0,0,1,.075-.505c.178-.431.368-.505.787-.322s.77.333,1.149.477a1.229,1.229,0,0,0,1.539-.546A.345.345,0,0,1,20.8,25.3h.517a.942.942,0,0,1,.982.948v3.446c0,.241-.138.213-.287.213h-4.8c-.247,0-.345-.04-.339-.316C16.9,28.545,16.887,27.483,16.887,26.414Zm5.985,7.157H16.347c-.144,0-.379.264-.391-.431s.253-.471.408-.471h6.525c.149,0,.345-.2.35.431S23.039,33.571,22.872,33.571Z" transform="translate(0 -5.937)" fill="#0096b6"/>
  <path id="Path_6520" data-name="Path 6520" d="M43.913,8.727a8.185,8.185,0,1,0-.155,2.832,2.671,2.671,0,0,1,.2-.839V8.877C43.879,8.854,43.913,8.785,43.913,8.727Zm-8.151,7.823a6.812,6.812,0,1,1,4.818-2.02A6.8,6.8,0,0,1,35.763,16.551Z" transform="translate(-11.747 -0.646)" fill="#3dd896"/>
  <path id="Path_6521" data-name="Path 6521" d="M36.293,15.769c.092-.264-.046-.385-.287-.488-.632-.276-1.246-.574-1.872-.879-.19-.08-.224-.161-.132-.356.23-.471.218-.477.712-.327s1.091.316,1.626.5c.224.075.293,0,.362-.19.144-.431.316-.856.494-1.275.092-.207.052-.281-.149-.379-1.045-.477-2.074-.982-3.113-1.459-.224-.1-.3-.2-.149-.425s.19-.712.46-.8.574.138.873.224c.885.27,1.769.528,2.648.816.253.086.385.063.517-.19a8.616,8.616,0,0,1,1.338-1.913c.178-.19.379-.5.666-.368s.184.5.149.77a8.932,8.932,0,0,1-.655,2.3.3.3,0,0,0,.138.437c.982.643,1.953,1.3,2.935,1.941.2.132.23.235.115.431a4.808,4.808,0,0,0-.322.672c-.069.19-.155.178-.322.1-1.034-.5-2.074-.976-3.107-1.482-.23-.115-.345-.126-.471.144a8.857,8.857,0,0,1-.666,1.149c-.132.2-.08.276.1.391.523.327,1.017.712,1.551,1.017s.115.477.034.718c-.109.333-.293.092-.425.034C38.716,16.6,38.108,16.3,37.5,16c-.178-.086-.316-.121-.437.069a.247.247,0,0,1-.057.052c-.167.121-.327.327-.574.213S36.321,15.965,36.293,15.769Z" transform="translate(-14.345 -3.5)" fill="#3dd896"/>
</svg>
