<svg xmlns="http://www.w3.org/2000/svg" width="33.726" height="29" viewBox="0 0 33.726 29">
  <g id="formal-mission-oneday-serv-icon" transform="translate(-1602.042 -695.274)">
    <rect id="icon-base" width="32" height="29" transform="translate(1603.768 695.274)" fill="none"/>
    <g id="Group_2450" data-name="Group 2450" transform="translate(1600.06 693.17)">
      <g id="Group_2446" data-name="Group 2446" transform="translate(2.482 5.447)">
        <g id="Group_2448" data-name="Group 2448">
          <circle id="Ellipse_118" data-name="Ellipse 118" cx="5.059" cy="5.059" r="5.059" transform="translate(0 0)" fill="#fff" stroke="#29d48a" stroke-width="1"/>
        </g>
        <path id="Path_6458" data-name="Path 6458" d="M52.679,352.685a.7.7,0,0,0,.994,0l2.785-2.785a.7.7,0,0,0-.994-.994l-2.288,2.288-.782-.782a.7.7,0,1,0-.994.994Z" transform="translate(-48.896 -345.56)" fill="#18d685"/>
      </g>
      <g id="Group_2426" data-name="Group 2426" transform="translate(10.307 6.207)">
        <g id="Group_2444" data-name="Group 2444" transform="translate(0.518 0.518)">
          <g id="Group_2443" data-name="Group 2443">
            <g id="Group_2439" data-name="Group 2439">
              <g id="Group_2438" data-name="Group 2438">
                <g id="Group_2437" data-name="Group 2437">
                  <g id="Group_2435" data-name="Group 2435" transform="translate(5.873)">
                    <path id="Path_6424" data-name="Path 6424" d="M260.733,203.722a1.059,1.059,0,0,1-1.058-1.058v-3.827a.825.825,0,0,0-.824-.824h-5.826a.825.825,0,0,0-.824.824v3.827a1.058,1.058,0,1,1-2.116,0v-3.827a2.943,2.943,0,0,1,2.94-2.94h5.826a2.943,2.943,0,0,1,2.94,2.94v3.827A1.059,1.059,0,0,1,260.733,203.722Z" transform="translate(-250.086 -195.898)" fill="#99d5e2"/>
                  </g>
                  <g id="Group_2436" data-name="Group 2436" transform="translate(0 4.904)">
                    <path id="Path_6425" data-name="Path 6425" d="M186.259,283.288H167.365a2.278,2.278,0,0,1-2.278-2.278V269.159a2.278,2.278,0,0,1,2.278-2.278h18.894a2.278,2.278,0,0,1,2.278,2.278V281.01A2.278,2.278,0,0,1,186.259,283.288Z" transform="translate(-165.087 -266.881)" fill="#99d5e2"/>
                    <path id="Path_6426" data-name="Path 6426" d="M412.632,266.88h-4.371a2.278,2.278,0,0,1,2.278,2.278v11.851a2.278,2.278,0,0,1-2.278,2.278h4.371a2.278,2.278,0,0,0,2.278-2.278V269.158A2.278,2.278,0,0,0,412.632,266.88Z" transform="translate(-391.46 -266.88)" fill="#7bc5d5"/>
                    <path id="Path_6427" data-name="Path 6427" d="M186.259,266.88H167.365a2.278,2.278,0,0,0-2.278,2.278v1.584a4.128,4.128,0,0,0,4.128,4.128h15.194a4.128,4.128,0,0,0,4.128-4.128v-1.584A2.278,2.278,0,0,0,186.259,266.88Z" transform="translate(-165.087 -266.88)" fill="#cc9675"/>
                    <path id="Path_6428" data-name="Path 6428" d="M186.259,266.88H167.365a2.278,2.278,0,0,0-2.278,2.278v1.584a4.128,4.128,0,0,0,4.128,4.128h15.194a4.128,4.128,0,0,0,4.128-4.128v-1.584A2.278,2.278,0,0,0,186.259,266.88Z" transform="translate(-165.087 -266.88)" fill="#99d5e2"/>
                    <path id="Path_6429" data-name="Path 6429" d="M410.538,269.159v5.713h.243a4.128,4.128,0,0,0,4.128-4.128v-1.584a2.278,2.278,0,0,0-2.278-2.278H408.26A2.278,2.278,0,0,1,410.538,269.159Z" transform="translate(-391.459 -266.881)" fill="#7bc5d5"/>
                  </g>
                </g>
              </g>
            </g>
            <g id="Group_2442" data-name="Group 2442" transform="translate(4.463 10.973)">
              <g id="Group_2440" data-name="Group 2440">
                <path id="Path_6430" data-name="Path 6430" d="M231.055,359.322a1.376,1.376,0,0,1-1.376-1.376v-1.852a1.376,1.376,0,1,1,2.751,0v1.852A1.376,1.376,0,0,1,231.055,359.322Z" transform="translate(-229.679 -354.719)" fill="#f4fbff"/>
              </g>
              <g id="Group_2441" data-name="Group 2441" transform="translate(11.774)">
                <path id="Path_6431" data-name="Path 6431" d="M401.465,359.322a1.376,1.376,0,0,1-1.375-1.376v-1.852a1.375,1.375,0,1,1,2.751,0v1.852A1.376,1.376,0,0,1,401.465,359.322Z" transform="translate(-400.089 -354.719)" fill="#f4fbff"/>
              </g>
            </g>
          </g>
        </g>
        <g id="Group_2445" data-name="Group 2445" transform="translate(0 0)">
          <path id="Path_6434" data-name="Path 6434" d="M179.276,193.3H176.2v-1.447a3.462,3.462,0,0,0-3.458-3.458h-5.826a3.462,3.462,0,0,0-3.458,3.458V193.3h-3.076a2.8,2.8,0,0,0-2.8,2.8v11.851a2.8,2.8,0,0,0,2.8,2.8h18.894a2.8,2.8,0,0,0,2.8-2.8V205.7a.518.518,0,1,0-1.036,0v2.245a1.762,1.762,0,0,1-1.76,1.76H160.382a1.762,1.762,0,0,1-1.76-1.76V200.6a4.641,4.641,0,0,0,3.426,1.721v.791a1.894,1.894,0,0,0,3.787,0v-.788h7.986v.788a1.894,1.894,0,0,0,3.787,0v-.791a4.641,4.641,0,0,0,3.426-1.721v2.676a.518.518,0,1,0,1.036,0V196.1A2.8,2.8,0,0,0,179.276,193.3ZM164.5,191.855a2.424,2.424,0,0,1,2.421-2.421h5.826a2.424,2.424,0,0,1,2.421,2.421V193.3h-1.079v-1.447a1.344,1.344,0,0,0-1.342-1.342h-5.826a1.344,1.344,0,0,0-1.342,1.342V193.3H164.5Zm2.116,1.447v-1.447a.306.306,0,0,1,.306-.306h5.826a.306.306,0,0,1,.306.306V193.3Zm-1.811,9.815a.857.857,0,1,1-1.715,0v-1.852a.857.857,0,1,1,1.715,0Zm11.774,0a.857.857,0,0,1-1.715,0v-1.3s0,0,0-.005,0,0,0-.005v-.541a.857.857,0,1,1,1.715,0Zm1.036-1.829v-.024a1.894,1.894,0,0,0-3.787,0v.028h-7.986v-.028a1.894,1.894,0,0,0-3.787,0v.024a3.615,3.615,0,0,1-3.426-3.605V196.1a1.76,1.76,0,0,1,1.76-1.76h18.894a1.76,1.76,0,0,1,1.76,1.76v1.584A3.615,3.615,0,0,1,177.61,201.288Z" transform="translate(-157.586 -188.397)" fill="#0096b6"/>
        </g>
      </g>
    </g>
  </g>
</svg>
