<svg xmlns="http://www.w3.org/2000/svg" width="34" height="31" viewBox="0 0 34 31">
  <g id="maintainance-serv-icon" transform="translate(-1603.65 -695.515)">
    <rect id="icon-base" width="34" height="31" transform="translate(1603.65 695.515)" fill="none"/>
    <g id="maintainance-serv-icon-2" data-name="maintainance-serv-icon" transform="translate(0)">
      <rect id="icon-base-2" data-name="icon-base" width="34" height="31" transform="translate(1603.65 695.515)" fill="none"/>
      <g id="Group_2417" data-name="Group 2417" transform="translate(1605.715 695.842)">
        <g id="Group_2418" data-name="Group 2418" transform="translate(0 0)">
          <g id="Group_2417-2" data-name="Group 2417" transform="translate(0 0)">
            <g id="filled_outline_33_">
              <path id="Path_6385" data-name="Path 6385" d="M305.4,300.364l-6.024-6.024-.252.252a1.071,1.071,0,0,1-1.515-1.515h0l.252-.253-1.515-1.515-5.05,5.05,1.515,1.515.253-.252a1.071,1.071,0,0,1,1.515,1.515l-.253.252,6.024,6.024a3.574,3.574,0,0,0,.6.48l4.929-4.929A3.579,3.579,0,0,0,305.4,300.364Z" transform="translate(-276.657 -276.665)" fill="none"/>
              <path id="Union_5" data-name="Union 5" d="M0,4.929,3.474,1.455h0L4.928,0h0A3.567,3.567,0,0,1,0,4.929Z" transform="translate(24.299 24.3)" fill="#99d5e2"/>
              <path id="Path_6387" data-name="Path 6387" d="M16.114,14.1l-.5-2.02-3.535-2.02-2.02,2.02,2.02,3.535,2.02.505L25.708,27.738l2.02-2.02Z" transform="translate(-9.549 -9.558)" fill="#fff"/>
              <path id="Path_6388" data-name="Path 6388" d="M37.964,14.23,34.6,17.594l-3.03-1.01-1.01-3.03,3.364-3.364A5.531,5.531,0,0,0,27.2,16.917L15.744,28.37a5.586,5.586,0,1,0,4.04,4.04L31.236,20.957a5.534,5.534,0,0,0,6.727-6.727ZM15.915,36.278h-3.03l-1.515-2.525,1.515-2.525h3.03l1.515,2.525Z" transform="translate(-8.341 -9.513)" fill="#fff"/>
              <path id="Path_6390" data-name="Path 6390" d="M.114,2.859l2.02,3.535a.5.5,0,0,0,.316.239L4.334,7.1,10.8,13.568l.714-.714L4.947,6.289a.5.5,0,0,0-.234-.133L2.9,5.7,1.182,2.691,2.656,1.216,5.669,2.938l.454,1.811a.506.506,0,0,0,.133.235l6.565,6.565.714-.714L7.071,4.37,6.6,2.487a.5.5,0,0,0-.239-.316L2.826.151A.505.505,0,0,0,2.22.232L.2,2.252A.5.5,0,0,0,.114,2.859Z" transform="translate(-0.047 -0.08)" fill="#fa8c32"/>
              <rect id="Rectangle_882" data-name="Rectangle 882" width="15.711" height="1.01" transform="translate(9.237 20.348) rotate(-45)" fill="#fa8c32"/>
              <path id="Path_6391" data-name="Path 6391" d="M55.72,422.134a.5.5,0,0,0-.433-.245h-3.03a.5.5,0,0,0-.433.245l-1.515,2.525a.506.506,0,0,0,0,.52l1.515,2.525a.505.505,0,0,0,.433.245h3.03a.5.5,0,0,0,.433-.245l1.515-2.525a.506.506,0,0,0,0-.52Zm-.719,4.8H52.543l-1.212-2.02,1.212-2.02H55l1.212,2.02Z" transform="translate(-47.713 -400.679)" fill="#fa8c32"/>
              <path id="Path_6392" data-name="Path 6392" d="M24.25,12.12A6.039,6.039,0,0,0,30.124,4.6a.5.5,0,0,0-.847-.235L26.133,7.5l-2.494-.831-.832-2.494,3.143-3.144a.505.505,0,0,0-.237-.847A6.041,6.041,0,0,0,18.19,6.061a5.933,5.933,0,0,0,.123,1.183L7.254,18.3a5.97,5.97,0,0,0-1.183-.123,6.06,6.06,0,1,0,6.06,6.06,5.933,5.933,0,0,0-.123-1.183l2.648-2.648,1.158,1.158a.505.505,0,0,0,.714,0l.252-.252a.566.566,0,0,1,.8.8h0l-.252.252a.505.505,0,0,0,0,.714l6.024,6.024a4.076,4.076,0,0,0,5.79-5.738l-.026-.026-6.024-6.024a.505.505,0,0,0-.714,0l-.252.252a.566.566,0,0,1-.8-.8h0l.252-.252a.505.505,0,0,0,0-.714l-1.158-1.158L23.067,12A5.971,5.971,0,0,0,24.25,12.12Zm1.984,17.169a3.06,3.06,0,0,1-1.074-.2L29.1,25.15a3.062,3.062,0,0,1-2.87,4.14ZM20.513,16.165a1.576,1.576,0,0,0,2.222,2.219L28.4,24.056c.062.062.119.127.175.193l-4.318,4.318c-.066-.056-.131-.113-.193-.175L18.395,22.72A1.576,1.576,0,0,0,16.173,20.5l-.808-.808,4.34-4.334Zm2.039-5.079L11.1,22.539a.5.5,0,0,0-.133.48,5.084,5.084,0,1,1-3.672-3.672.51.51,0,0,0,.48-.133L19.224,7.76a.506.506,0,0,0,.133-.48,5.026,5.026,0,0,1,5.18-6.262L21.873,3.684a.5.5,0,0,0-.122.517l1.01,3.03a.5.5,0,0,0,.32.319l3.03,1.01a.5.5,0,0,0,.517-.122L29.29,5.774c.006.1.009.192.009.287a5.024,5.024,0,0,1-6.27,4.893.506.506,0,0,0-.48.133Z" transform="translate(-0.011 0)" fill="#0096b6"/>
              <rect id="Rectangle_883" data-name="Rectangle 883" width="1.01" height="7.141" transform="translate(20.346 21.062) rotate(-45)" fill="#fa8c32"/>
            </g>
          </g>
        </g>
      </g>
    </g>
  </g>
</svg>
