<svg xmlns="http://www.w3.org/2000/svg" width="31.204" height="30.787" viewBox="0 0 31.204 30.787">
  <g id="Group_2302" data-name="Group 2302" transform="translate(0 0)">
    <g id="Group_2350" data-name="Group 2350" transform="translate(0)">
      <path id="Path_6106" data-name="Path 6106" d="M31.7,22.352h-1.51V19.373a.5.5,0,0,0-.5-.5h-1.2l1.145-2.261-.9-.444-1.089,2.15L26.1,15.651l-.874.493,1.583,2.733H25.661a.5.5,0,0,0-.5.5v2.979H23.145V15.9a.5.5,0,0,0-.5-.5H16.058a3.51,3.51,0,0,0-3.483-2.979h-.157a4.456,4.456,0,0,0,.9-1.49h.264A2,2,0,0,0,15.6,8.945a1.975,1.975,0,0,0-1.007-1.71V4.973A4,4,0,0,0,10.563,1H7.543A4,4,0,0,0,3.516,4.973V7.235A1.975,1.975,0,0,0,2.51,8.945a2,2,0,0,0,2.013,1.986h.264a4.448,4.448,0,0,0,.9,1.49H5.53A3.5,3.5,0,0,0,2.007,15.9v6.455H1.5a.5.5,0,0,0-.5.5v2.979a.5.5,0,0,0,.5.5h.5v5.462H3.013V26.325H30.191v5.462H31.2V26.325h.5a.5.5,0,0,0,.5-.5V22.849a.5.5,0,0,0-.5-.5Zm-5.536-2.483h3.02v2.483h-3.02ZM15.041,15.4H11.569a.5.5,0,0,0-.5.5v6.455H9.556v-6.3l1.779-2.633h1.241A2.513,2.513,0,0,1,15.041,15.4ZM9.053,15l-.786-1.163a4.322,4.322,0,0,0,1.571,0Zm4.53-5.063h-.03a4.378,4.378,0,0,0,.03-.5V7.952a.993.993,0,1,1,0,1.986ZM4.523,4.973a3,3,0,0,1,3.02-2.979h3.02a3,3,0,0,1,3.02,2.979V6.959H11.569a1,1,0,0,1-1.007-.993V3.979H9.556v.5A2.5,2.5,0,0,1,7.039,6.959H4.523Zm0,4.966a.993.993,0,1,1,0-1.986v1.49a4.378,4.378,0,0,0,.03.5ZM5.53,7.952h1.51A3.534,3.534,0,0,0,9.713,6.733a2.016,2.016,0,0,0,1.856,1.219h1.007v1.49a3.523,3.523,0,0,1-7.046,0ZM3.013,15.9A2.5,2.5,0,0,1,5.53,13.414H6.77l1.779,2.633v6.3H6.033V18.876H5.026v3.476H3.013ZM31.2,25.332H2.007V23.345H31.2Z" transform="translate(-1 -1)" fill="#0096b6"/>
      <path id="Path_6107" data-name="Path 6107" d="M31.361,37.722A1.361,1.361,0,1,0,30,36.361,1.363,1.363,0,0,0,31.361,37.722Zm0-1.815a.454.454,0,1,1-.454.454A.454.454,0,0,1,31.361,35.907Z" transform="translate(-15.25 -17.961)" fill="#fff"/>
      <path id="Path_6109" data-name="Path 6109" d="M34,15h3.176v.907H34Z" transform="translate(-17.183 -8.028)" fill="#fa8c32"/>
      <path id="Path_6110" data-name="Path 6110" d="M32,19h4.083v.907H32Z" transform="translate(-16.137 -10.036)" fill="#fa8c32"/>
    </g>
    <g id="Group_2349" data-name="Group 2349" transform="translate(22.13)">
      <path id="Path_6108" data-name="Path 6108" d="M47.537,10.074A4.537,4.537,0,1,0,43,5.537,4.542,4.542,0,0,0,47.537,10.074Zm-.454-8.135v.876h.907V1.939a3.633,3.633,0,0,1,3.145,3.145h-.876v.907h.876a3.633,3.633,0,0,1-3.145,3.145V8.259h-.907v.876a3.633,3.633,0,0,1-3.145-3.145h.876V5.083h-.876a3.633,3.633,0,0,1,3.145-3.145Z" transform="translate(-43 -1)" fill="#fa8c32"/>
      <path id="Path_6111" data-name="Path 6111" d="M51.3,9.136a.453.453,0,0,0,.133-.321V7h-.907V8.627L49.293,9.855l.642.642Z" transform="translate(-46.438 -4.278)" fill="#fa8c32"/>
    </g>
  </g>
</svg>
