<svg id="Group_2470" data-name="Group 2470" xmlns="http://www.w3.org/2000/svg" width="32.489" height="32.489" viewBox="0 0 32.489 32.489">
  <g id="Group_2470-2" data-name="Group 2470" transform="translate(0.065 8.236)">
    <path id="Path_6503" data-name="Path 6503" d="M46.9,299.424l-1.879,10.321a1.9,1.9,0,0,0,3.755.626l1.538-8.279Z" transform="translate(-42.205 -288.66)" fill="#0096b6"/>
    <path id="Path_6504" data-name="Path 6504" d="M5.338,129.789.579,133.6a1.906,1.906,0,0,0,0,2.692l5.081,3.965L5.338,136.9l-1.674-1.333,1.674-1.559Z" transform="translate(-0.022 -129.789)" fill="#0096b6"/>
    <path id="Path_6505" data-name="Path 6505" d="M86.324,166.642l-1.9-4.759a1.914,1.914,0,0,0-1.2-1.2l-4.41-1.47V151H75v9.635a1.969,1.969,0,0,0,1.3,1.753l4.807,1.6,1.6,3.857a1.9,1.9,0,0,0,3.611-1.206Z" transform="translate(-70.306 -149.654)" fill="#0096b6"/>
  </g>
  <g id="Group_2471" data-name="Group 2471" transform="translate(4.758)">
    <path id="Path_6506" data-name="Path 6506" d="M78.79,128.577a1.894,1.894,0,0,1-1.7-1.052l-1.9-3.807a1.9,1.9,0,1,1,3.406-1.7l1.378,2.755h5.486a1.9,1.9,0,0,1,0,3.807Z" transform="translate(-74.982 -113.284)" fill="#64cae1"/>
    <path id="Path_6507" data-name="Path 6507" d="M77.855,5.774A2.859,2.859,0,0,1,75,2.919a2.856,2.856,0,1,1,5.711,0A2.859,2.859,0,0,1,77.855,5.774Z" transform="translate(-74.999)" fill="#64cae1"/>
  </g>
  <path id="Path_6508" data-name="Path 6508" d="M32.21,213.2l-1.9-1.9a.955.955,0,0,0-1.348,0l-1.9,1.9a.952.952,0,0,0,1.346,1.346l.279-.279V220.6H19.988a.951.951,0,0,0-.952.952V224.4H10.47a.951.951,0,0,0-.952.952v2.855H.952a.952.952,0,0,0,0,1.9H10.47a.951.951,0,0,0,.952-.952v-2.855h8.566a.951.951,0,0,0,.952-.952V222.5h8.693a.951.951,0,0,0,.952-.952v-7.284l.279.279A.952.952,0,1,0,32.21,213.2Z" transform="translate(0 -197.626)" fill="#32bb80"/>
</svg>
