<svg xmlns="http://www.w3.org/2000/svg" width="70" height="65" viewBox="0 0 70 65">
  <g id="alter-emp-serv-icon" transform="translate(-1604 -695.583)">
    <rect id="icon-base" width="70" height="65" transform="translate(1604 695.583)" fill="none"/>
    <g id="Group_2414" data-name="Group 2414" transform="translate(1611 696.583)">
      <path id="Path_6379" data-name="Path 6379" d="M44.889,278.444a7.444,7.444,0,1,0-7.444,7.444A7.453,7.453,0,0,0,44.889,278.444Zm-7.444,3.722a3.722,3.722,0,1,1,3.722-3.722A3.726,3.726,0,0,1,37.444,282.167Zm0,0" transform="translate(-26.278 -237.376)" fill="#0096b6"/>
      <path id="Path_6380" data-name="Path 6380" d="M0,402.291v3.722H22.333v-3.722A11.267,11.267,0,0,0,11.167,391,11.266,11.266,0,0,0,0,402.291Zm11.167-7.569a7.516,7.516,0,0,1,7.444,7.569H3.722A7.516,7.516,0,0,1,11.167,394.722Zm0,0" transform="translate(0 -342.487)" fill="#0096b6"/>
      <path id="Path_6381" data-name="Path 6381" d="M314.889,7.444a7.445,7.445,0,1,0-7.445,7.444A7.453,7.453,0,0,0,314.889,7.444Zm-7.445,3.722a3.722,3.722,0,1,1,3.722-3.722A3.726,3.726,0,0,1,307.444,11.167Zm0,0" transform="translate(-262.778)" fill="#0096b6"/>
      <path id="Path_6382" data-name="Path 6382" d="M270,131.291v3.722h22.333v-3.722a11.167,11.167,0,1,0-22.333,0Zm11.167-7.569a7.516,7.516,0,0,1,7.444,7.569H273.722A7.516,7.516,0,0,1,281.167,123.722Zm0,0" transform="translate(-236.5 -105.111)" fill="#0096b6"/>
      <path id="Path_6383" data-name="Path 6383" d="M225,314.292v3.722h18.611v-16.1l2.406,2.406,2.632-2.632-6.9-6.9-6.9,6.9,2.632,2.632,2.406-2.406v12.381Zm0,0" transform="translate(-197.083 -258.21)" fill="#99d5e2"/>
      <path id="Path_6384" data-name="Path 6384" d="M39.433,46.1,37.026,43.7l-2.632,2.632,6.9,6.9,6.9-6.9L45.561,43.7,43.155,46.1V33.722H58.044V30H39.433Zm0,0" transform="translate(-30.127 -26.278)" fill="#99d5e2"/>
    </g>
  </g>
</svg>
