<svg xmlns="http://www.w3.org/2000/svg" xmlns:xlink="http://www.w3.org/1999/xlink" width="92.33" height="122.367" viewBox="0 0 92.33 122.367">
  <defs>
    <clipPath id="clip-path">
      <rect id="Rectangle_325" data-name="Rectangle 325" width="122.367" height="92.33" transform="translate(1)" fill="none"/>
    </clipPath>
  </defs>
  <g id="art-work" transform="translate(92.33 -1) rotate(90)" opacity="0.8">
    <g id="Group_229" data-name="Group 229" transform="translate(0 0)" clip-path="url(#clip-path)">
      <g id="Group_216" data-name="Group 216" transform="translate(-39.714 -82.942)">
        <rect id="Rectangle_320" data-name="Rectangle 320" width="17.581" height="44.236" rx="5.872" transform="translate(0 50.639) rotate(-45)" fill="#7c400e"/>
        <rect id="Rectangle_321" data-name="Rectangle 321" width="17.581" height="44.236" rx="5.872" transform="translate(37.899 50.639) rotate(-44.999)" fill="#0086a9"/>
        <rect id="Rectangle_322" data-name="Rectangle 322" width="17.581" height="44.236" rx="5.872" transform="translate(74.307 50.639) rotate(-44.999)" fill="#7c400e"/>
        <rect id="Rectangle_323" data-name="Rectangle 323" width="11.136" height="39.778" rx="3.72" transform="translate(78.864 11.246) rotate(-45)" fill="#0086a9" style="mix-blend-mode: multiply;isolation: isolate"/>
        <rect id="Rectangle_324" data-name="Rectangle 324" width="17.581" height="44.236" rx="5.872" transform="translate(30.636 43.711) rotate(-135)" fill="#4d8e32" style="mix-blend-mode: multiply;isolation: isolate"/>
        <ellipse id="Ellipse_42" data-name="Ellipse 42" cx="7.304" cy="7.304" rx="7.304" ry="7.304" transform="translate(118.931 43.17)" fill="#0086a9" style="mix-blend-mode: multiply;isolation: isolate"/>
        <circle id="Ellipse_43" data-name="Ellipse 43" cx="7.304" cy="7.304" r="7.304" transform="translate(114.852 12.127) rotate(-45)" fill="#c7c9cb" style="mix-blend-mode: multiply;isolation: isolate"/>
        <ellipse id="Ellipse_44" data-name="Ellipse 44" cx="7.304" cy="7.304" rx="7.304" ry="7.304" transform="translate(61.116 24.207)" fill="#0086a9" style="mix-blend-mode: multiply;isolation: isolate"/>
        <path id="Path_514" data-name="Path 514" d="M-10.816,151.508a6.279,6.279,0,0,0,6.279,6.279,6.28,6.28,0,0,0,6.28-6.279,6.28,6.28,0,0,0-6.28-6.28A6.279,6.279,0,0,0-10.816,151.508Z" transform="translate(16.518 -139.381)" fill="#c7c9cb" style="mix-blend-mode: multiply;isolation: isolate"/>
        <path id="Path_515" data-name="Path 515" d="M136.844,172.966a4.593,4.593,0,1,0,4.594-4.594A4.594,4.594,0,0,0,136.844,172.966Z" transform="translate(3.285 -141.455)" fill="#0086a9" style="mix-blend-mode: multiply;isolation: isolate"/>
        <ellipse id="Ellipse_45" data-name="Ellipse 45" cx="4.594" cy="4.594" rx="4.594" ry="4.594" transform="translate(140.394 64.633)" fill="#0086a9" style="mix-blend-mode: multiply;isolation: isolate"/>
      </g>
      <g id="Group_217" data-name="Group 217" transform="translate(25.258 50.74)" style="mix-blend-mode: multiply;isolation: isolate">
        <path id="Path_516" data-name="Path 516" d="M58.943,288.436a20.562,20.562,0,0,0-4.211,3.335l-.443.461.492.408a30.185,30.185,0,0,0,9.851,5.309l.568.164.166-.569c.046-.158,1.113-3.977-.178-11.2l-.125-.694-.662.241A30.72,30.72,0,0,0,58.943,288.436Z" transform="translate(-54.289 -285.647)" fill="#fff"/>
      </g>
      <g id="Group_218" data-name="Group 218" transform="translate(64.212 57.807)">
        <path id="Path_517" data-name="Path 517" d="M101.071,295.09a12.254,12.254,0,0,0-2.819-1.543l-.357-.137-.11.366a18.06,18.06,0,0,0-.63,6.664l.043.351.351-.042a16.049,16.049,0,0,0,6.131-2.708l.353-.229-.287-.31A18.422,18.422,0,0,0,101.071,295.09Z" transform="translate(-97.078 -293.41)" fill="#fff"/>
      </g>
      <g id="Group_219" data-name="Group 219" transform="translate(82.531 36.416)">
        <path id="Path_518" data-name="Path 518" d="M121.84,272.6a20.254,20.254,0,0,0-4.2,3.251l-.443.45.482.408a29.849,29.849,0,0,0,9.677,5.353l.561.168.169-.56c.046-.157,1.143-3.918-.056-11.073l-.115-.687-.657.231A30.472,30.472,0,0,0,121.84,272.6Z" transform="translate(-117.2 -269.913)" fill="#c7c9cb"/>
      </g>
      <g id="Group_220" data-name="Group 220" transform="translate(97.373 18.477)">
        <path id="Path_519" data-name="Path 519" d="M138.514,252.23a20.229,20.229,0,0,0-4.522,2.779l-.489.4.434.458a29.849,29.849,0,0,0,9.046,6.363l.539.228.229-.539c.064-.15,1.558-3.773,1.136-11.015l-.041-.7-.678.159A30.381,30.381,0,0,0,138.514,252.23Z" transform="translate(-133.503 -250.208)" fill="#fff"/>
      </g>
      <g id="Group_221" data-name="Group 221" transform="translate(36.936 7.016)">
        <path id="Path_520" data-name="Path 520" d="M74.588,241.012a19.936,19.936,0,0,0-4.2-3.1l-.545-.3-.256.565a29.324,29.324,0,0,0-2.462,10.591l-.008.574.575.009c.161,0,4.013.028,10.458-3.029l.618-.293-.4-.56A29.887,29.887,0,0,0,74.588,241.012Z" transform="translate(-67.116 -237.619)" fill="#c7c9cb"/>
      </g>
      <g id="Group_222" data-name="Group 222" transform="translate(44.305 24.844)">
        <path id="Path_521" data-name="Path 521" d="M85.362,261A40.457,40.457,0,0,0,76.2,266.39l-.993.782.857.936A60.129,60.129,0,0,0,93.988,281.24l1.073.477.475-1.071c.132-.3,3.249-7.5,2.645-22.048l-.057-1.4-1.366.29A60.848,60.848,0,0,0,85.362,261Z" transform="translate(-75.21 -257.202)" fill="#fff"/>
      </g>
      <g id="Group_223" data-name="Group 223" transform="translate(-66.332 -26.104)">
        <path id="Path_522" data-name="Path 522" d="M9.539,224.327A173.473,173.473,0,0,0-30.808,203.1l-5.1-1.858-1.479,5.237c-13.61,48.127-7.695,93.13-7.436,95.023l.684,4.992,4.981-.684c1.391-.193,34.707-5.092,86.4-40.137L52.2,262.3,48.06,257.98A260.9,260.9,0,0,0,9.539,224.327Z" transform="translate(46.318 -201.238)" fill="#fff"/>
      </g>
      <g id="Group_224" data-name="Group 224" transform="translate(122.992 43.782)">
        <path id="Path_523" data-name="Path 523" d="M163.416,279.616a9.061,9.061,0,0,0-1.61,1.725l-.162.229.24.145a13.234,13.234,0,0,0,4.627,1.66l.258.034.034-.258a11.772,11.772,0,0,0-.812-4.854l-.1-.293-.272.148A13.627,13.627,0,0,0,163.416,279.616Z" transform="translate(-161.643 -278.004)" fill="#fff"/>
      </g>
      <g id="Group_225" data-name="Group 225" transform="translate(147.077 25.817)">
        <path id="Path_524" data-name="Path 524" d="M191.083,259.546a9,9,0,0,0-2.049-1.17l-.259-.106-.086.268a13.268,13.268,0,0,0-.552,4.885l.026.259.259-.026a11.773,11.773,0,0,0,4.538-1.907l.262-.164-.207-.23A13.517,13.517,0,0,0,191.083,259.546Z" transform="translate(-188.1 -258.271)" fill="#c7c9cb"/>
      </g>
      <g id="Group_226" data-name="Group 226" transform="translate(163.834 48.351)">
        <path id="Path_525" data-name="Path 525" d="M208.822,283.023a7.994,7.994,0,0,0-2.076.262l-.24.065.082.235a11.775,11.775,0,0,0,2.212,3.755l.157.169.169-.157a10.455,10.455,0,0,0,2.2-3.769l.1-.256-.269-.054A11.976,11.976,0,0,0,208.822,283.023Z" transform="translate(-206.506 -283.023)" fill="#fff"/>
      </g>
      <g id="Group_227" data-name="Group 227" transform="translate(101.446 57.916)" style="mix-blend-mode: multiply;isolation: isolate">
        <path id="Path_526" data-name="Path 526" d="M142.248,294.788a14.754,14.754,0,0,0-3.678-1.178l-.452-.081-.046.457a21.692,21.692,0,0,0,.776,8.01l.13.405.405-.129c.114-.036,2.821-.929,6.619-4.595l.365-.352-.41-.3A22.169,22.169,0,0,0,142.248,294.788Z" transform="translate(-137.976 -293.529)" fill="#fff"/>
      </g>
      <g id="Group_228" data-name="Group 228" transform="translate(3.463 60.833)">
        <path id="Path_527" data-name="Path 527" d="M37.168,296.733a23.52,23.52,0,0,0-6.111.773l-.708.188.24.692A34.654,34.654,0,0,0,37.1,309.445l.462.5.5-.461c.139-.128,3.454-3.241,6.476-11.1l.29-.755-.793-.157A35.326,35.326,0,0,0,37.168,296.733Z" transform="translate(-30.348 -296.733)" fill="#c7c9cb"/>
      </g>
    </g>
  </g>
</svg>
