<svg xmlns="http://www.w3.org/2000/svg" width="70" height="65" viewBox="0 0 70 65">
  <g id="car-request-serv-icon" transform="translate(-1604 -695.583)">
    <rect id="icon-base" width="70" height="65" transform="translate(1604 695.583)" fill="none"/>
    <g id="Group_2452" data-name="Group 2452" transform="translate(1607 648.633)">
      <path id="Path_6459" data-name="Path 6459" d="M380.18,311.65v9.2a4.524,4.524,0,0,1-4.3,4.717H372.3a4.524,4.524,0,0,1-4.3-4.717v-4.479h7.88A4.515,4.515,0,0,0,380.18,311.65Z" transform="translate(-318.087 -220.208)" fill="#69b8c9"/>
      <path id="Path_6460" data-name="Path 6460" d="M70.823,199.562v1.175a4.524,4.524,0,0,1-4.3,4.717H14.4a4.524,4.524,0,0,1-4.3-4.717V189.013a7.338,7.338,0,0,1,2.279-5.386l2.238-2.277H67.174v.074l1.628,1.919a7.424,7.424,0,0,1,2.021,5.133v11.085Zm-6.293-1.577v-7.692H54.289v7.692Zm-37.882,0v-7.692H16.407v7.692Z" transform="translate(-8.73 -109.295)" fill="#99d5e2"/>
      <g id="Group_2452-2" data-name="Group 2452" transform="translate(1.37 54.453)">
        <path id="Path_6461" data-name="Path 6461" d="M91.061,66.115l4.91,14.522H89.6c0-4.791-3.581-8.719-7.948-8.719S73.7,75.846,73.7,80.637H43.4l4.91-14.522a4.32,4.32,0,0,1,4.028-3.065H87.033A4.346,4.346,0,0,1,91.061,66.115Z" transform="translate(-38.883 -63.05)" fill="#d5edf2"/>
        <rect id="Rectangle_884" data-name="Rectangle 884" width="10.24" height="7.692" transform="translate(44.189 26.544)" fill="#e7f6f9"/>
        <path id="Path_6462" data-name="Path 6462" d="M282.6,131.369H266.7c0-4.791,3.581-8.719,7.948-8.719S282.6,126.578,282.6,131.369Z" transform="translate(-231.897 -113.782)" fill="#c3e9f1"/>
        <rect id="Rectangle_885" data-name="Rectangle 885" width="10.24" height="7.692" transform="translate(6.307 26.544)" fill="#e7f6f9"/>
        <path id="Path_6463" data-name="Path 6463" d="M22.28,316.441v4.4a4.524,4.524,0,0,1-4.3,4.717H14.4a4.524,4.524,0,0,1-4.3-4.717v-9.2a4.524,4.524,0,0,0,4.3,4.717h7.88S22.28,316.441,22.28,316.441Z" transform="translate(-10.1 -274.661)" fill="#69b8c9"/>
      </g>
      <path id="Path_6464" data-name="Path 6464" d="M59.665,71.37,54.809,57a5.71,5.71,0,0,0-5.3-4.047H14.825A5.723,5.723,0,0,0,9.521,57L4.734,71.177,2.74,73.2A8.947,8.947,0,0,0,0,79.717v20.92a5.961,5.961,0,0,0,5.669,6.19H9.25a5.952,5.952,0,0,0,5.669-6.19V97.6H48.557v3.035a5.952,5.952,0,0,0,5.669,6.19h3.581a5.952,5.952,0,0,0,5.669-6.19V79.167a9.02,9.02,0,0,0-2.428-6.19ZM12.071,58.024a2.942,2.942,0,0,1,2.753-2.083H49.52a2.962,2.962,0,0,1,2.753,2.083l4.232,12.5H53.331c-.665-4.91-4.53-8.719-9.209-8.719s-8.545,3.809-9.209,8.719H7.84Zm38.506,12.5h-12.9a6.785,6.785,0,0,1,6.456-5.743A6.771,6.771,0,0,1,50.577,70.522ZM12.207,100.637a3.09,3.09,0,0,1-2.957,3.214H5.669a3.109,3.109,0,0,1-2.957-3.214v-3.9a5.142,5.142,0,0,0,2.957.863h6.538Zm45.6,3.214H54.226a3.1,3.1,0,0,1-2.957-3.214V97.6h6.538a5.142,5.142,0,0,0,2.957-.863v3.9A3.109,3.109,0,0,1,57.807,103.851Zm0-9.225H5.669a3.072,3.072,0,0,1-2.957-3.184V79.717a5.821,5.821,0,0,1,1.8-4.255l.054-.06,1.858-1.9H57.793l1.3,1.533a.337.337,0,0,0,.068.074,5.851,5.851,0,0,1,1.6,4.062V91.442A3.072,3.072,0,0,1,57.807,94.626Z" transform="translate(0 0)" fill="#0096b6"/>
      <path id="Path_6465" data-name="Path 6465" d="M59.885,232.538a1.431,1.431,0,0,0-1.356-1.488H48.356A1.431,1.431,0,0,0,47,232.538v7.737a1.431,1.431,0,0,0,1.356,1.488H58.529a1.431,1.431,0,0,0,1.356-1.488Zm-2.713,6.249h-7.46v-4.761h7.46Z" transform="translate(-40.625 -151.601)" fill="#0096b6"/>
      <path id="Path_6466" data-name="Path 6466" d="M338.885,232.538a1.431,1.431,0,0,0-1.356-1.488H327.356A1.431,1.431,0,0,0,326,232.538v7.737a1.431,1.431,0,0,0,1.356,1.488h10.173a1.431,1.431,0,0,0,1.356-1.488Zm-2.713,6.249h-7.46v-4.761h7.46Z" transform="translate(-281.784 -151.601)" fill="#0096b6"/>
      <path id="Path_6467" data-name="Path 6467" d="M190.158,273.05h-13.1a1.494,1.494,0,0,0,0,2.976h13.1a1.494,1.494,0,0,0,0-2.976Z" transform="translate(-151.869 -187.351)" fill="#0096b6"/>
      <path id="Path_6468" data-name="Path 6468" d="M190.158,242.05h-13.1a1.494,1.494,0,0,0,0,2.976h13.1a1.494,1.494,0,0,0,0-2.976Z" transform="translate(-151.869 -160.964)" fill="#0096b6"/>
    </g>
  </g>
</svg>
