<svg xmlns="http://www.w3.org/2000/svg" width="32" height="30" viewBox="0 0 32 30">
  <g id="car-fix-sm-icon" transform="translate(-1604.282 -695.583)">
    <rect id="icon-base" width="32" height="30" transform="translate(1604.282 695.583)" fill="none"/>
    <g id="Group_2321" data-name="Group 2321" transform="translate(1604.914 696.954)">
      <g id="Group_2316" data-name="Group 2316" transform="translate(0 0)">
        <g id="Group_2315" data-name="Group 2315" transform="translate(0 0)">
          <path id="Path_6116" data-name="Path 6116" d="M4.027,40.7l9.309-1.489a.51.51,0,0,0,.223-.1l9.379-7.034a2.56,2.56,0,0,1,1.529-.51h6.117V30.549H24.467a3.585,3.585,0,0,0-2.141.714l-7.289,5.466L6.3,29.977A9.514,9.514,0,0,0,.509,28a.51.51,0,0,0-.51.51v2.039a.51.51,0,0,0,.51.51,6.811,6.811,0,0,1,2.039.319v8.734A4.562,4.562,0,0,0,0,44.221v3.15a2.552,2.552,0,0,0,2.549,2.549H7.228a6.11,6.11,0,0,0,12.05,0H30.584V48.9H19.37a6.077,6.077,0,0,0-.357-2.039H30.584V45.841H18.543A6.1,6.1,0,0,0,8.3,45.331H6.117V43.8a1.529,1.529,0,0,0-1.529-1.529H1.6A3.554,3.554,0,0,1,4.027,40.7Zm-.164-1.006c-.1.016-.2.038-.295.061V31.79a6.758,6.758,0,0,1,1.172.74c3.525,2.791,6.09,4.837,7.33,5.847ZM1.019,30.056V29.036a8.5,8.5,0,0,1,4.658,1.748l8.513,6.58-.913.685c-1.144-.958-4.808-3.871-7.9-6.321A7.874,7.874,0,0,0,1.019,30.056ZM8.2,48.237c.007-.055.016-.109.025-.163a5.06,5.06,0,0,1,.126-.571c.007-.023.011-.048.018-.071a5.037,5.037,0,0,1,.237-.625c.016-.035.033-.069.051-.1a5.093,5.093,0,0,1,9.69,2.2c0,.156-.01.31-.024.463a5.094,5.094,0,0,1-10.147,0c-.014-.153-.024-.306-.024-.463A5.091,5.091,0,0,1,8.2,48.237Zm-.51-1.886c-.01.02-.016.042-.025.063-.06.135-.113.273-.164.412-.022.06-.046.119-.066.18-.047.145-.086.293-.123.442-.014.058-.032.114-.044.172-.034.158-.057.32-.079.482-.007.051-.018.1-.023.153a6.121,6.121,0,0,0-.034.644H2.548A1.529,1.529,0,0,1,1.019,47.37V46.351ZM4.587,43.292a.51.51,0,0,1,.51.51v1.529H1.019V44.221a3.6,3.6,0,0,1,.122-.928Z" transform="translate(0 -28)" fill="#0096b6"/>
        </g>
      </g>
      <g id="Group_2353" data-name="Group 2353" transform="translate(9.683 4.588)">
        <g id="Group_2314" data-name="Group 2314" transform="translate(8.103 0)">
          <g id="Group_2313" data-name="Group 2313">
            <path id="Path_6115" data-name="Path 6115" d="M286.519,101.02h5.411V100h-5.411a2.562,2.562,0,0,0-1.575.544l-5.423,4.261a1.019,1.019,0,0,0,.631,1.821H291.93v-1.019H280.151l5.422-4.261A1.541,1.541,0,0,1,286.519,101.02Z" transform="translate(-279.131 -100)" fill="rgba(0,150,182,0.4)"/>
          </g>
        </g>
        <g id="Group_2318" data-name="Group 2318" transform="translate(0 12.703)">
          <g id="Group_2317" data-name="Group 2317">
            <path id="Path_6117" data-name="Path 6117" d="M155.575,299.361a3.589,3.589,0,1,0,3.57,3.607A3.589,3.589,0,0,0,155.575,299.361Zm-.037,6.158a2.549,2.549,0,1,1,2.549-2.549A2.549,2.549,0,0,1,155.538,305.519Z" transform="translate(-151.968 -299.361)" fill="rgba(0,150,182,0.4)"/>
          </g>
        </g>
        <g id="Group_2320" data-name="Group 2320" transform="translate(14.275 7.646)">
          <g id="Group_2319" data-name="Group 2319">
            <path id="Path_6118" data-name="Path 6118" d="M380.078,220h-2.549a1.529,1.529,0,0,0,0,3.058h2.549a1.529,1.529,0,0,0,0-3.058Zm0,2.039h-2.549a.51.51,0,1,1,0-1.019h2.549a.51.51,0,1,1,0,1.019Z" transform="translate(-376 -220)" fill="rgba(0,150,182,0.4)"/>
          </g>
        </g>
      </g>
    </g>
  </g>
</svg>
