<svg xmlns="http://www.w3.org/2000/svg" width="21.655" height="21.655" viewBox="0 0 21.655 21.655">
  <path id="cloud-icon" d="M55.567,758.353a.678.678,0,0,1-.677-.683v-1.34a.677.677,0,1,1,1.353,0v1.34A.676.676,0,0,1,55.567,758.353Zm-5.413,0a.678.678,0,0,1-.677-.683v-1.34a.677.677,0,1,1,1.353,0v1.34A.676.676,0,0,1,50.153,758.353ZM58.273,757a.678.678,0,0,1-.677-.683v-1.34a.677.677,0,1,1,1.353,0v1.34A.676.676,0,0,1,58.273,757Zm-4.731-15.889a4.063,4.063,0,0,1,6.714,3.657,4.418,4.418,0,0,1,.444.871,4.061,4.061,0,0,1-1.073,7.977H46.094a4.06,4.06,0,0,1-2.029-7.577,6.09,6.09,0,0,1,9.477-4.928ZM52.86,757a.678.678,0,0,1-.677-.683v-1.34a.677.677,0,1,1,1.353,0v1.34A.676.676,0,0,1,52.86,757Zm6.734-16.206a.678.678,0,0,1,0-.962l.947-.948a.677.677,0,1,1,.957.957l-.948.948A.677.677,0,0,1,59.594,740.793ZM47.447,757a.678.678,0,0,1-.677-.683v-1.34a.677.677,0,1,1,1.353,0v1.34A.676.676,0,0,1,47.447,757Zm8.8-17.595a.678.678,0,0,1-.677-.683v-1.34a.677.677,0,1,1,1.353,0v1.34A.676.676,0,0,1,56.243,739.4Zm2.609,4.015A2.706,2.706,0,0,0,54.59,742a6.165,6.165,0,0,1,.744.969,4.4,4.4,0,0,1,3.518.451Zm2.13.725a.678.678,0,0,1,.683-.677h1.34a.677.677,0,1,1,0,1.353h-1.34A.676.676,0,0,1,60.982,744.145Zm-1.374,2.7a3.045,3.045,0,0,0-4.92-2.047,4.737,4.737,0,0,0-9.271,1.37,4.674,4.674,0,0,0,.059.747,2.708,2.708,0,0,0,.616,5.343H59.628a2.707,2.707,0,0,0,0-5.414Z" transform="translate(-42.034 -736.698)" fill="#888"/>
</svg>
