<svg xmlns="http://www.w3.org/2000/svg" width="70" height="65" viewBox="0 0 70 65">
  <g id="CreativeIdea-serv-icon" transform="translate(-1174.031 -943.034)">
    <rect id="icon-base" width="70" height="65" transform="translate(1174.031 943.034)" fill="none"/>
    <g id="Group_2537" data-name="Group 2537" transform="translate(1171.069 943.298)">
      <g id="Group_2529" data-name="Group 2529" transform="translate(6.963 0)">
        <path id="Path_6696" data-name="Path 6696" d="M217.35,460.583V462.2a3.86,3.86,0,0,1-.023.422,3.8,3.8,0,0,1-3.779,3.38h-5.829a3.8,3.8,0,0,1-3.779-3.38,3.872,3.872,0,0,1-.023-.422v-1.616a4.035,4.035,0,0,0,1.647.348H215.7A4.036,4.036,0,0,0,217.35,460.583Z" transform="translate(-178.958 -402.215)" fill="#0096b6"/>
        <g id="Group_2528" data-name="Group 2528" transform="translate(0)">
          <path id="Path_6697" data-name="Path 6697" d="M248.867,8.309a.95.95,0,0,1-.95-.95V.95a.95.95,0,1,1,1.9,0V7.358A.95.95,0,0,1,248.867,8.309Z" transform="translate(-217.382 0)" fill="#ffe7c9"/>
          <path id="Path_6698" data-name="Path 6698" d="M83.018,77.006a.948.948,0,0,1-.672-.278L77.815,72.2a.95.95,0,0,1,1.344-1.344l4.531,4.531a.95.95,0,0,1-.672,1.622Z" transform="translate(-68.593 -61.63)" fill="#ffe7c9"/>
          <path id="Path_6699" data-name="Path 6699" d="M14.321,242.854H7.913a.95.95,0,0,1,0-1.9h6.408a.95.95,0,0,1,0,1.9Z" transform="translate(-6.963 -210.418)" fill="#ffe7c9"/>
          <path id="Path_6700" data-name="Path 6700" d="M78.487,382.012a.95.95,0,0,1-.672-1.622l4.531-4.531A.95.95,0,1,1,83.69,377.2l-4.531,4.531A.948.948,0,0,1,78.487,382.012Z" transform="translate(-68.593 -327.984)" fill="#ffe7c9"/>
          <path id="Path_6701" data-name="Path 6701" d="M388.023,382.012a.948.948,0,0,1-.672-.278L382.82,377.2a.951.951,0,1,1,1.344-1.344l4.531,4.531a.95.95,0,0,1-.672,1.622Z" transform="translate(-334.946 -327.984)" fill="#ffe7c9"/>
          <path id="Path_6702" data-name="Path 6702" d="M445.665,242.854h-6.408a.95.95,0,0,1,0-1.9h6.408a.95.95,0,0,1,0,1.9Z" transform="translate(-383.644 -210.418)" fill="#ffe7c9"/>
          <path id="Path_6703" data-name="Path 6703" d="M383.492,77.006a.95.95,0,0,1-.672-1.622l4.531-4.531a.95.95,0,0,1,1.344,1.344l-4.531,4.531A.948.948,0,0,1,383.492,77.006Z" transform="translate(-334.946 -61.63)" fill="#ffe7c9"/>
        </g>
        <path id="Path_6704" data-name="Path 6704" d="M210.633,453.333s-6.213,1.143-6.717.919v1.616a3.874,3.874,0,0,0,.023.422,3.8,3.8,0,0,0,3.779,3.38h1.647a3.8,3.8,0,0,1-3.584-2.53.382.382,0,0,1,.357-.512H215.7a4.035,4.035,0,0,0,1.625-.338,3.862,3.862,0,0,0,.023-.422v-1.616C216.847,454.476,210.633,453.333,210.633,453.333Z" transform="translate(-178.958 -395.884)" fill="#006f87"/>
        <path id="Path_6705" data-name="Path 6705" d="M202.677,380.683a4.052,4.052,0,0,1-4.055,4.055H188.483a4.052,4.052,0,0,1-4.055-4.055s-.06-5.923-.071-6.078V374.6l9.2-1.267,9.09,1.267Z" transform="translate(-161.877 -326.022)" fill="#0096b6"/>
        <path id="Path_6706" data-name="Path 6706" d="M191.651,393.471h-3.168a4.052,4.052,0,0,1-4.055-4.055s-.06-5.923-.071-6.078v-.005h3.168v.005c.011.155.071,6.078.071,6.078a4.052,4.052,0,0,0,4.055,4.055Z" transform="translate(-161.877 -334.755)" fill="#006f87"/>
        <path id="Path_6707" data-name="Path 6707" d="M300.1,417.734h-3.232a.95.95,0,1,1,0-1.9h3.221l.005.951Z" transform="translate(-259.299 -363.136)" fill="#2b597f"/>
        <path id="Path_6708" data-name="Path 6708" d="M196.292,416.783a.951.951,0,0,1-.95.95H184.759l-.022-1.9h10.6A.951.951,0,0,1,196.292,416.783Z" transform="translate(-162.208 -363.136)" fill="#2b597f"/>
        <path id="Path_6709" data-name="Path 6709" d="M132.58,90.487h0c-9.787-.151-18.018,8.38-17.842,18.1a18.178,18.178,0,0,0,5.144,12.717c1.874,1.928,3.5,3.709,3.676,6.3l18.285.03c.1-2.664,1.617-4.463,3.5-6.434a18.176,18.176,0,0,0,5.041-12.611A17.961,17.961,0,0,0,132.58,90.487Z" transform="translate(-101.078 -79.018)" fill="#99d5e2"/>
        <path id="Path_6710" data-name="Path 6710" d="M141.842,127.624v.005l-18.285-.03c-.18-2.588-1.8-4.37-3.676-6.3a18.178,18.178,0,0,1-5.144-12.717c-.176-9.716,8.055-18.246,17.842-18.1.494,0,.983.022,1.467.061a18.191,18.191,0,0,0-11,30.751c1.874,1.928,3.5,3.709,3.676,6.3Z" transform="translate(-101.077 -79.02)" fill="#0096b6"/>
      </g>
      <g id="Group_2530" data-name="Group 2530" transform="translate(6.963 0)">
        <path id="Path_6712" data-name="Path 6712" d="M248.867,8.309a.95.95,0,0,0,.95-.95V.95a.95.95,0,0,0-1.9,0V7.358A.95.95,0,0,0,248.867,8.309Z" transform="translate(-217.382 0)" fill="#0096b6"/>
        <path id="Path_6713" data-name="Path 6713" d="M82.346,76.728a.95.95,0,1,0,1.344-1.344l-4.531-4.531A.95.95,0,0,0,77.815,72.2Z" transform="translate(-68.593 -61.63)" fill="#0096b6"/>
        <path id="Path_6714" data-name="Path 6714" d="M14.321,240.953H7.913a.95.95,0,0,0,0,1.9h6.408a.95.95,0,0,0,0-1.9Z" transform="translate(-6.963 -210.418)" fill="#0096b6"/>
        <path id="Path_6715" data-name="Path 6715" d="M82.346,375.858l-4.531,4.531a.95.95,0,0,0,1.344,1.344L83.69,377.2a.951.951,0,0,0-1.344-1.344Z" transform="translate(-68.593 -327.984)" fill="#0096b6"/>
        <path id="Path_6716" data-name="Path 6716" d="M384.165,375.857a.95.95,0,1,0-1.344,1.344l4.531,4.531a.95.95,0,0,0,1.344-1.344Z" transform="translate(-334.947 -327.983)" fill="#0096b6"/>
        <path id="Path_6717" data-name="Path 6717" d="M445.665,240.953h-6.408a.95.95,0,0,0,0,1.9h6.408a.95.95,0,0,0,0-1.9Z" transform="translate(-383.644 -210.418)" fill="#0096b6"/>
        <path id="Path_6718" data-name="Path 6718" d="M387.352,70.852l-4.531,4.531a.95.95,0,1,0,1.344,1.344L388.7,72.2a.95.95,0,0,0-1.344-1.344Z" transform="translate(-334.947 -61.63)" fill="#0096b6"/>
        <path id="Path_6719" data-name="Path 6719" d="M144.807,102.046A18.934,18.934,0,0,0,126.031,83a18.517,18.517,0,0,0-10.179,3.039,19.005,19.005,0,0,0-6.8,7.87.95.95,0,0,0,1.723.8,16.836,16.836,0,0,1,32.133,7.333A17.2,17.2,0,0,1,138.128,114c-1.776,1.855-3.287,3.627-3.676,6.11H117.859c-.49-2.578-2.248-4.386-3.828-6.01a17.183,17.183,0,0,1-4.874-12.054,17.56,17.56,0,0,1,.319-3.334.95.95,0,1,0-1.866-.362,19.454,19.454,0,0,0-.354,3.7,19.074,19.074,0,0,0,5.413,13.379c2,2.06,3.424,3.7,3.424,6.115,0,.008,0,.017,0,.025l.054,5.578a5.008,5.008,0,0,0,2.408,4.277v1.045a4.758,4.758,0,0,0,4.752,4.752h5.829a4.758,4.758,0,0,0,4.752-4.752V131.42a5.008,5.008,0,0,0,2.408-4.277s-.007-6.213-.019-6.275c.18-2.2,1.516-3.768,3.225-5.554a19.091,19.091,0,0,0,5.306-13.268Zm-12.82,30.419a2.855,2.855,0,0,1-2.851,2.851h-5.829a2.855,2.855,0,0,1-2.851-2.851V132.1a5.019,5.019,0,0,0,.7.05H131.29a5.04,5.04,0,0,0,.7-.05Zm-.7-2.218H121.152a3.108,3.108,0,0,1-3.1-3.1v-.063h9.631a.95.95,0,1,0,0-1.9h-9.631V122.01h16.318l.029,3.168h-2.281a.95.95,0,0,0,0,1.9h2.281v.063A3.108,3.108,0,0,1,131.29,130.248Z" transform="translate(-94.545 -72.482)" fill="#004453"/>
        <path id="Path_6720" data-name="Path 6720" d="M191,186.835v-16.56h1.94a3.669,3.669,0,0,0,0-7.338h-.018a3.673,3.673,0,0,0-3.669,3.669v1.922h-3.494v-1.922a3.673,3.673,0,0,0-3.669-3.669h-.018a3.669,3.669,0,0,0,0,7.338h1.94v16.56Zm0-20.229a1.924,1.924,0,0,1,1.922-1.922h.018a1.922,1.922,0,1,1,0,3.844H191Zm-8.929,1.922a1.922,1.922,0,1,1,0-3.844h.018a1.924,1.924,0,0,1,1.922,1.922v1.922Zm3.687,1.747h3.494v16.56h-3.494Z" transform="translate(-156.019 -138.226)" fill="#004453"/>
      </g>
    </g>
  </g>
</svg>
