<svg xmlns="http://www.w3.org/2000/svg" width="25" height="25" viewBox="0 0 25 25">
  <path id="date-toggle-icon" d="M0,25V2.425H3.242V3.984H1.726V23.441H23.273V3.984H21.758V2.425H25V25ZM19.578,4.907a1.177,1.177,0,0,1-1.124-1.223V1.223a1.128,1.128,0,1,1,2.247,0V3.684A1.177,1.177,0,0,1,19.578,4.907Zm-1.286,13.4h.388a1.117,1.117,0,0,1,1.145,1.085v.89a1.117,1.117,0,0,1-1.145,1.085h-.388a1.116,1.116,0,0,1-1.145-1.085v-.89A1.116,1.116,0,0,1,18.292,18.307Zm-1.145-3.839a1.116,1.116,0,0,1,1.145-1.085h.388a1.117,1.117,0,0,1,1.145,1.085v.89a1.116,1.116,0,0,1-1.145,1.085h-.388a1.115,1.115,0,0,1-1.145-1.085Zm2.678-4.924v.89a1.116,1.116,0,0,1-1.145,1.085h-.388a1.115,1.115,0,0,1-1.145-1.085v-.89a1.116,1.116,0,0,1,1.145-1.085h.388A1.117,1.117,0,0,1,19.825,9.544Zm-8.561,0A1.117,1.117,0,0,1,12.41,8.459H12.8a1.117,1.117,0,0,1,1.146,1.085v.89A1.116,1.116,0,0,1,12.8,11.519H12.41a1.116,1.116,0,0,1-1.146-1.085Zm1.146,8.763H12.8a1.117,1.117,0,0,1,1.146,1.085v.89A1.117,1.117,0,0,1,12.8,21.367H12.41a1.117,1.117,0,0,1-1.146-1.085v-.89A1.117,1.117,0,0,1,12.41,18.307Zm-1.146-3.839a1.117,1.117,0,0,1,1.146-1.085H12.8a1.117,1.117,0,0,1,1.146,1.085v.89A1.116,1.116,0,0,1,12.8,16.443H12.41a1.116,1.116,0,0,1-1.146-1.085ZM7.545,2.425h9.91V3.984H7.545ZM6.32,18.307h.387a1.117,1.117,0,0,1,1.146,1.085v.89a1.117,1.117,0,0,1-1.146,1.085H6.32a1.117,1.117,0,0,1-1.146-1.085v-.89A1.117,1.117,0,0,1,6.32,18.307ZM5.174,14.468A1.117,1.117,0,0,1,6.32,13.383h.387a1.117,1.117,0,0,1,1.146,1.085v.89a1.116,1.116,0,0,1-1.146,1.085H6.32a1.116,1.116,0,0,1-1.146-1.085Zm2.679-4.034a1.116,1.116,0,0,1-1.146,1.085H6.32a1.116,1.116,0,0,1-1.146-1.085v-.89A1.117,1.117,0,0,1,6.32,8.459h.387A1.117,1.117,0,0,1,7.853,9.544ZM5.478,4.907A1.177,1.177,0,0,1,4.354,3.684V1.223A1.176,1.176,0,0,1,5.478,0,1.176,1.176,0,0,1,6.6,1.223V3.684A1.177,1.177,0,0,1,5.478,4.907Z" fill="#9297a1" fill-rule="evenodd"/>
</svg>
