<svg xmlns="http://www.w3.org/2000/svg" width="32" height="30" viewBox="0 0 32 30">
  <g id="desk-sm-icon" transform="translate(0.129 -0.199)">
    <rect id="icon-base" width="32" height="30" transform="translate(-0.129 0.199)" fill="none"/>
    <g id="Group_2302" data-name="Group 2302" transform="translate(1.627 0.859)">
      <g id="Group_2350" data-name="Group 2350" transform="translate(0)">
        <path id="Path_6106" data-name="Path 6106" d="M29.312,20.691H27.92V17.944a.461.461,0,0,0-.464-.458H26.35L27.407,15.4l-.83-.41-1,1.982-1.426-2.462-.806.454,1.46,2.52H23.743a.461.461,0,0,0-.464.458v2.748H21.422V14.738a.461.461,0,0,0-.464-.458H14.887a3.237,3.237,0,0,0-3.212-2.748h-.144a4.109,4.109,0,0,0,.829-1.374H12.6A1.846,1.846,0,0,0,14.46,8.327a1.822,1.822,0,0,0-.928-1.577V4.663A3.693,3.693,0,0,0,9.819,1H7.034A3.693,3.693,0,0,0,3.321,4.663V6.75a1.822,1.822,0,0,0-.928,1.577,1.846,1.846,0,0,0,1.857,1.832h.244a4.1,4.1,0,0,0,.829,1.374H5.177a3.231,3.231,0,0,0-3.249,3.206v5.953H1.464A.461.461,0,0,0,1,21.149V23.9a.461.461,0,0,0,.464.458h.464v5.037h.928V24.355H27.92v5.037h.928V24.355h.464a.461.461,0,0,0,.464-.458V21.149a.461.461,0,0,0-.464-.458ZM24.207,18.4h2.785v2.29H24.207Zm-3.713,2.29H11.211V15.2h9.283ZM13.949,14.28h-3.2a.461.461,0,0,0-.464.458v5.953H8.89V14.877l1.641-2.428h1.144A2.317,2.317,0,0,1,13.949,14.28Zm-5.523-.368L7.7,12.84a3.986,3.986,0,0,0,1.449,0ZM12.6,9.243h-.027a4.037,4.037,0,0,0,.027-.458V7.411a.916.916,0,1,1,0,1.832ZM4.249,4.663A2.769,2.769,0,0,1,7.034,1.916H9.819A2.769,2.769,0,0,1,12.6,4.663V6.5H10.747a.923.923,0,0,1-.928-.916V3.748H8.89v.458A2.308,2.308,0,0,1,6.57,6.5H4.249Zm0,4.579a.916.916,0,1,1,0-1.832V8.785a4.037,4.037,0,0,0,.027.458Zm.928-1.832H6.57A3.259,3.259,0,0,0,9.035,6.287a1.859,1.859,0,0,0,1.712,1.124h.928V8.785a3.249,3.249,0,0,1-6.5,0ZM2.857,14.738a2.308,2.308,0,0,1,2.321-2.29H6.321l1.641,2.428v5.814H5.641V17.486H4.713v3.206H2.857Zm25.992,8.7H1.928V21.607h26.92Z" transform="translate(-1 -1)" fill="#0096b6"/>
        <path id="Path_6107" data-name="Path 6107" d="M31.374,37.748A1.374,1.374,0,1,0,30,36.374,1.375,1.375,0,0,0,31.374,37.748Zm0-1.832a.458.458,0,1,1-.458.458A.458.458,0,0,1,31.374,35.916Z" transform="translate(-16.521 -19.43)" fill="#0096b6"/>
        <path id="Path_6109" data-name="Path 6109" d="M34,15h3.206v.916H34Z" transform="translate(-18.657 -8.589)" fill="#0096b6"/>
        <path id="Path_6110" data-name="Path 6110" d="M32,19h4.121v.916H32Z" transform="translate(-17.579 -10.757)" fill="#0096b6"/>
      </g>
      <g id="Group_2349" data-name="Group 2349" transform="translate(19.618)">
        <path id="Path_6108" data-name="Path 6108" d="M47.579,10.159A4.579,4.579,0,1,0,43,5.579,4.585,4.585,0,0,0,47.579,10.159Zm-.458-8.211v.884h.916V1.947a3.667,3.667,0,0,1,3.174,3.174h-.884v.916h.884a3.667,3.667,0,0,1-3.174,3.174V8.327h-.916v.884a3.667,3.667,0,0,1-3.174-3.174h.884V5.121h-.884a3.667,3.667,0,0,1,3.174-3.174Z" transform="translate(-43 -1)" fill="rgba(0,150,182,0.4)"/>
        <path id="Path_6111" data-name="Path 6111" d="M51.314,9.156a.457.457,0,0,0,.134-.324V7h-.916V8.642l-1.24,1.24.648.648Z" transform="translate(-46.411 -4.252)" fill="rgba(0,150,182,0.4)"/>
      </g>
    </g>
  </g>
</svg>
