<svg xmlns="http://www.w3.org/2000/svg" width="53" height="60.571" viewBox="0 0 53 60.571">
  <g id="doc-icon" transform="translate(-32)">
    <path id="Path_6340" data-name="Path 6340" d="M99.786,0A3.8,3.8,0,0,0,96,3.786v53a3.8,3.8,0,0,0,3.786,3.786h37.857a3.8,3.8,0,0,0,3.786-3.786V15.143L126.286,0Z" transform="translate(-56.429)" fill="#e2e5e7"/>
    <path id="Path_6341" data-name="Path 6341" d="M355.786,15.143h11.357L352,0V11.357A3.8,3.8,0,0,0,355.786,15.143Z" transform="translate(-282.143)" fill="#b0b7bd"/>
    <path id="Path_6342" data-name="Path 6342" d="M395.357,139.357,384,128h11.357Z" transform="translate(-310.357 -112.857)" fill="#cad1d8"/>
    <path id="Path_6343" data-name="Path 6343" d="M77.429,260.821a1.9,1.9,0,0,1-1.893,1.893H33.893A1.9,1.9,0,0,1,32,260.821V241.893A1.9,1.9,0,0,1,33.893,240H75.536a1.9,1.9,0,0,1,1.893,1.893Z" transform="translate(0 -211.607)" fill="#50bee8"/>
    <g id="Group_2400" data-name="Group 2400" transform="translate(38.121 34.577)">
      <path id="Path_6344" data-name="Path 6344" d="M84.789,305.945a.949.949,0,0,1-1.045-.939v-8.6a1.028,1.028,0,0,1,1.045-.939h3.466c6.916,0,6.763,10.473.134,10.473Zm.954-8.628v6.78h2.512c4.087,0,4.267-6.78,0-6.78Z" transform="translate(-83.744 -295.093)" fill="#fff"/>
      <path id="Path_6345" data-name="Path 6345" d="M185.467,303.275a5.285,5.285,0,0,1-5.707-5.45,5.562,5.562,0,0,1,11.124,0A5.278,5.278,0,0,1,185.467,303.275Zm-.167-9.035a3.588,3.588,0,1,0,3.6,3.587A3.464,3.464,0,0,0,185.3,294.241Z" transform="translate(-168.401 -292.272)" fill="#fff"/>
      <path id="Path_6346" data-name="Path 6346" d="M288.848,298.6a5.094,5.094,0,0,1,5.313-5.432,4.946,4.946,0,0,1,3.466,1.348.981.981,0,1,1-1.348,1.422,2.612,2.612,0,0,0-2.118-.831,3.27,3.27,0,0,0-3.449,3.5,3.328,3.328,0,0,0,3.449,3.6,3.535,3.535,0,0,0,2.362-.969,1.016,1.016,0,0,1,1.391.182,1.044,1.044,0,0,1-.167,1.422,4.95,4.95,0,0,1-3.589,1.183C290.5,304.022,288.848,301.521,288.848,298.6Z" transform="translate(-264.583 -293.062)" fill="#fff"/>
    </g>
    <path id="Path_6347" data-name="Path 6347" d="M131.964,417.893H96v1.893h35.964a1.9,1.9,0,0,0,1.893-1.893V416A1.9,1.9,0,0,1,131.964,417.893Z" transform="translate(-56.429 -366.786)" fill="#cad1d8"/>
  </g>
</svg>
