<svg xmlns="http://www.w3.org/2000/svg" width="70" height="65" viewBox="0 0 70 65">
  <g id="early-leave-serv-icon" transform="translate(-1604 -695.583)">
    <rect id="icon-base" width="70" height="65" transform="translate(1604 695.583)" fill="none"/>
    <g id="Group_2420" data-name="Group 2420" transform="translate(1618.805 695.583)">
      <path id="Path_6393" data-name="Path 6393" d="M198.3,280.412a2.062,2.062,0,1,1-2.061-2.021A2.041,2.041,0,0,1,198.3,280.412Zm0,0" transform="translate(-167.186 -240.879)" fill="#f8ec7d"/>
      <path id="Path_6394" data-name="Path 6394" d="M188.157,13.388a5.42,5.42,0,0,1-4.463,5.3,5.52,5.52,0,0,1-6.144-3.3A5.336,5.336,0,0,1,179.7,8.844a5.579,5.579,0,0,1,6.954.844,5.308,5.308,0,0,1,1.5,3.7Zm0,0" transform="translate(-157.604 -6.92)" fill="#fff"/>
      <path id="Path_6395" data-name="Path 6395" d="M189.955,123.391v39.734l-23.643,5.636V129.027Zm-14.222,22.037a2.506,2.506,0,1,0-2.442,1.944A2.236,2.236,0,0,0,175.733,145.428Zm0,0" transform="translate(-146.833 -104.974)" fill="#99d5e2"/>
      <g id="Group_2420-2" data-name="Group 2420" transform="translate(-6.805)">
        <path id="Path_6396" data-name="Path 6396" d="M138.588,115.4q-.008-.048-.021-.095c0-.013-.008-.024-.012-.037-.009-.03-.02-.059-.032-.088-.005-.012-.011-.024-.016-.036-.014-.029-.029-.057-.045-.085l-.019-.033a1.011,1.011,0,0,0-.061-.087l-.018-.023a1.279,1.279,0,0,0-.093-.1l-.021-.018q-.04-.038-.085-.073l-.039-.029c-.026-.019-.053-.038-.081-.056l-.021-.014-.022-.012c-.031-.018-.062-.035-.095-.05l-.038-.019c-.045-.02-.09-.039-.137-.055h0c-.05-.017-.1-.033-.154-.045l-.02,0c-.043-.01-.086-.019-.131-.025l-.048-.006c-.035,0-.07-.008-.107-.01l-.06,0-.051,0H105.277a1.329,1.329,0,0,0-1.444,1.172v10.656a1.476,1.476,0,0,0,2.888,0v-9.484H127.3L113.444,120.1a1.233,1.233,0,0,0-1.03,1.123v33.081h-5.693v-9.069a1.476,1.476,0,0,0-2.888,0v10.241a1.33,1.33,0,0,0,1.444,1.172h7.137v4.49a1.116,1.116,0,0,0,.582.94,1.719,1.719,0,0,0,1.276.183l23.3-5.662a1.232,1.232,0,0,0,1.03-1.123V115.563a.9.9,0,0,0-.009-.13c0-.012,0-.023-.006-.034Zm-2.873,39.207-20.413,4.96V122.1l20.413-4.96Zm0,0" transform="translate(-87.44 -97.312)" fill="#0096b6"/>
        <path id="Path_6397" data-name="Path 6397" d="M188.478,275.859a3.235,3.235,0,1,0-3.3-3.234A3.266,3.266,0,0,0,188.478,275.859Zm0-4.042a.809.809,0,1,1-.825.808A.817.817,0,0,1,188.478,271.816Zm0,0" transform="translate(-155.678 -232.092)" fill="#0096b6"/>
        <path id="Path_6398" data-name="Path 6398" d="M175.776,12.936a6.533,6.533,0,0,0,6.6-6.468,6.6,6.6,0,0,0-13.193,0,6.369,6.369,0,0,0,1.921,4.584A6.63,6.63,0,0,0,175.776,12.936Zm0-10.78a4.355,4.355,0,0,1,4.4,4.312,4.4,4.4,0,0,1-8.8,0A4.356,4.356,0,0,1,175.776,2.156Zm0,0" transform="translate(-143.916)" fill="#0096b6"/>
        <path id="Path_6399" data-name="Path 6399" d="M202.118,31.336l1.024.643v2.4a1.1,1.1,0,0,0,2.2,0V31.388a1.073,1.073,0,0,0-.507-.908L203.3,29.52a1.113,1.113,0,0,0-1.519.327,1.066,1.066,0,0,0,.334,1.489Zm0,0" transform="translate(-171.89 -25.395)" fill="#0096b6"/>
        <path id="Path_6400" data-name="Path 6400" d="M4.417,234.331H19.16a1.213,1.213,0,1,0,0-2.425H4.417l3.524-3.456a1.2,1.2,0,0,0,0-1.715,1.255,1.255,0,0,0-1.75,0l-5.6,5.492c-.01.008-.018.018-.027.027l-.02.021c-.022.023-.043.045-.064.069l-.012.014a1.2,1.2,0,0,0-.181.3c-.005.013-.008.026-.013.039-.012.032-.023.065-.033.1s-.012.044-.017.066-.013.066-.017.1a1.032,1.032,0,0,0-.01.108c0,.018,0,.036,0,.054s0,.014,0,.022a.771.771,0,0,0,0,.079c0,.028.006.055.01.083s.01.06.017.089a.985.985,0,0,0,.03.105c.007.021.015.042.023.062s.025.059.039.088.02.041.032.061c.021.036.043.071.067.1q.019.027.04.052c.023.029.047.057.073.084.009.009.016.019.024.027L6.192,239.5a1.255,1.255,0,0,0,1.749,0,1.2,1.2,0,0,0,0-1.715Zm0,0" transform="translate(1.805 -195.876)" fill="#0096b6"/>
      </g>
    </g>
  </g>
</svg>
