<svg xmlns="http://www.w3.org/2000/svg" width="70" height="65" viewBox="0 0 70 65">
  <g id="Entry-Exit-serv-icon" transform="translate(-1604 -695.583)">
    <rect id="icon-base" width="70" height="65" transform="translate(1604 695.583)" fill="none"/>
    <g id="Group_2424" data-name="Group 2424" transform="translate(1621.805 688.087)">
      <g id="Group_2420" data-name="Group 2420" transform="translate(-16.805 17.079)">
        <path id="Path_6393" data-name="Path 6393" d="M199.045,280.858a2.433,2.433,0,1,1-2.432-2.467A2.45,2.45,0,0,1,199.045,280.858Zm0,0" transform="translate(-149.043 -260.079)" fill="#f8ec7d"/>
        <path id="Path_6395" data-name="Path 6395" d="M194.21,123.391v48.5l-27.9,6.88v-48.5Zm-16.781,26.9a2.936,2.936,0,1,0-2.882,2.374A2.665,2.665,0,0,0,177.429,150.292Zm0,0" transform="translate(-130.044 -128.389)" fill="#bfe2e9"/>
        <path id="Path_6396" data-name="Path 6396" d="M144.843,115.621q-.01-.059-.024-.115c0-.016-.01-.03-.014-.045-.011-.036-.024-.072-.038-.107-.006-.015-.013-.029-.019-.043-.016-.035-.034-.07-.053-.1-.007-.014-.015-.027-.023-.04a1.234,1.234,0,0,0-.072-.106l-.021-.029a1.542,1.542,0,0,0-.109-.124l-.025-.022q-.048-.047-.1-.089c-.015-.012-.031-.024-.047-.035-.031-.024-.063-.047-.1-.068l-.025-.017-.026-.014c-.036-.022-.073-.042-.112-.061-.015-.007-.029-.016-.044-.023-.053-.025-.106-.047-.161-.068h0c-.059-.021-.12-.04-.181-.055l-.024,0c-.051-.012-.1-.023-.155-.031l-.057-.007c-.041-.006-.083-.01-.126-.012l-.071,0-.06,0H105.537a1.585,1.585,0,0,0-1.7,1.431v9.008a1.73,1.73,0,0,0,3.408,0v-7.577h24.284l-16.352,4.11a1.488,1.488,0,0,0-1.215,1.371v40.383h-6.718v-7.07a1.73,1.73,0,0,0-3.408,0v8.5a1.585,1.585,0,0,0,1.7,1.431h8.422v5.481a1.37,1.37,0,0,0,.686,1.148,1.97,1.97,0,0,0,1.506.223l27.5-6.912a1.487,1.487,0,0,0,1.215-1.37V115.821a1.141,1.141,0,0,0-.011-.159c0-.014-.005-.028-.007-.042Zm-3.39,47.861-24.087,6.055V123.8l24.087-6.055Zm0,0" transform="translate(-79.235 -121.021)" fill="#0096b6"/>
        <path id="Path_6397" data-name="Path 6397" d="M189.072,277.286a3.948,3.948,0,1,0-3.892-3.948A3.92,3.92,0,0,0,189.072,277.286Zm0-4.935a.987.987,0,1,1-.973.987A.98.98,0,0,1,189.072,272.352Zm0,0" transform="translate(-145.114 -251.339)" fill="#0096b6"/>
        <path id="Path_6400" data-name="Path 6400" d="M17.342,234.911H1.523a1.3,1.3,0,1,1,0-2.6H17.341L13.561,228.6a1.283,1.283,0,0,1,0-1.84,1.346,1.346,0,0,1,1.877,0l6.008,5.893c.01.009.019.019.029.029l.022.022c.024.024.047.049.069.075l.013.015a1.293,1.293,0,0,1,.194.318c.006.014.009.028.014.042.013.034.025.069.035.105s.013.047.018.071.014.071.018.107a1.108,1.108,0,0,1,.01.116c0,.019,0,.038,0,.058s0,.015,0,.023a.828.828,0,0,1,0,.085c0,.03-.006.059-.011.089s-.011.064-.018.1a1.057,1.057,0,0,1-.032.113c-.007.023-.016.045-.025.067s-.027.063-.042.094-.022.044-.034.065c-.022.039-.046.076-.072.112q-.021.029-.043.056c-.025.031-.051.061-.078.09-.009.01-.017.02-.026.029l-6.048,5.929a1.346,1.346,0,0,1-1.877,0,1.283,1.283,0,0,1,0-1.84Zm0,0" transform="translate(4.951 -208.538)" fill="#0096b6"/>
        <path id="Path_6420" data-name="Path 6420" d="M4.725,234.911H20.544a1.3,1.3,0,1,0,0-2.6H4.725L8.506,228.6a1.283,1.283,0,0,0,0-1.84,1.346,1.346,0,0,0-1.877,0L.621,232.654c-.01.009-.019.019-.029.029L.57,232.7c-.024.024-.047.049-.069.075l-.013.015a1.293,1.293,0,0,0-.194.318c-.006.014-.009.028-.014.042-.013.034-.025.069-.035.105s-.013.047-.018.071-.014.071-.018.107a1.107,1.107,0,0,0-.01.116c0,.019,0,.038,0,.058s0,.015,0,.023a.828.828,0,0,0,0,.085c0,.03.006.059.011.089s.011.064.018.1a1.057,1.057,0,0,0,.032.113c.007.023.016.045.025.067s.027.063.042.094.022.044.034.065c.022.039.046.076.072.112q.021.029.043.056c.025.031.051.061.078.09.009.01.017.02.026.029l6.048,5.929a1.346,1.346,0,0,0,1.877,0,1.283,1.283,0,0,0,0-1.84Zm0,0" transform="translate(2.805 -221.632)" fill="#99d5e2"/>
      </g>
    </g>
  </g>
</svg>
