<svg xmlns="http://www.w3.org/2000/svg" width="70" height="65" viewBox="0 0 70 65">
  <g id="formal-mission-oneday-serv-icon" transform="translate(-1604 -695.583)">
    <rect id="icon-base" width="70" height="65" transform="translate(1604 695.583)" fill="none"/>
    <g id="Group_2450" data-name="Group 2450">
      <g id="Group_2446" data-name="Group 2446" transform="translate(1604.263 705.214)">
        <path id="Path_6436" data-name="Path 6436" d="M67.421,77.891v1.568a1.671,1.671,0,0,0,1.643,1.7h0a1.671,1.671,0,0,0,1.643-1.7V56.425A2.387,2.387,0,0,0,68.36,54H46.171a2.387,2.387,0,0,0-2.347,2.425V77.891Z" transform="translate(-41.253 -53.114)" fill="#eaf8fb"/>
        <path id="Path_6437" data-name="Path 6437" d="M35.582,449.643v-1.517H10v1.518a1.643,1.643,0,0,0,1.643,1.643H37.225A1.643,1.643,0,0,1,35.582,449.643Z" transform="translate(-9.413 -423.244)" fill="#99d5e2"/>
        <path id="Path_6438" data-name="Path 6438" d="M71.314,58.87H44.5V56.347A2.347,2.347,0,0,1,46.847,54h22.12a2.347,2.347,0,0,1,2.347,2.347Z" transform="translate(-41.889 -55.832)" fill="#99d5e2"/>
        <g id="Group_2446-2" data-name="Group 2446" transform="translate(11.632 17.011)">
          <path id="Path_6439" data-name="Path 6439" d="M199.888,317.286h0a1.643,1.643,0,0,1-1.643-1.643h0A1.643,1.643,0,0,1,199.888,314h0a1.643,1.643,0,0,1,1.643,1.643h0A1.643,1.643,0,0,1,199.888,317.286Z" transform="translate(-198.245 -314)" fill="#d1f0f6"/>
          <path id="Path_6440" data-name="Path 6440" d="M293.221,317.286h0a1.643,1.643,0,0,1-1.643-1.643h0A1.643,1.643,0,0,1,293.221,314h0a1.643,1.643,0,0,1,1.643,1.643h0A1.643,1.643,0,0,1,293.221,317.286Z" transform="translate(-286.102 -314)" fill="#d1f0f6"/>
        </g>
        <g id="Group_2447" data-name="Group 2447" transform="translate(6.156 10.909)">
          <path id="Path_6442" data-name="Path 6442" d="M106.555,213.286h0a1.643,1.643,0,0,1-1.643-1.643h0A1.643,1.643,0,0,1,106.555,210h0a1.643,1.643,0,0,1,1.643,1.643h0A1.643,1.643,0,0,1,106.555,213.286Z" transform="translate(-104.912 -210)" fill="#d1f0f6"/>
          <path id="Path_6443" data-name="Path 6443" d="M293.221,213.286h0a1.643,1.643,0,0,1-1.643-1.643h0A1.643,1.643,0,0,1,293.221,210h0a1.643,1.643,0,0,1,1.643,1.643h0A1.643,1.643,0,0,1,293.221,213.286Z" transform="translate(-280.625 -210)" fill="#d1f0f6"/>
          <path id="Path_6444" data-name="Path 6444" d="M199.888,213.286h0a1.643,1.643,0,0,1-1.643-1.643h0A1.643,1.643,0,0,1,199.888,210h0a1.643,1.643,0,0,1,1.643,1.643h0A1.643,1.643,0,0,1,199.888,213.286Z" transform="translate(-192.769 -210)" fill="#d1f0f6"/>
        </g>
        <g id="Group_2448" data-name="Group 2448" transform="translate(1.084 10.909)">
          <path id="Path_6445" data-name="Path 6445" d="M386.555,213.286h0a1.643,1.643,0,0,1-1.643-1.643h0A1.643,1.643,0,0,1,386.555,210h0a1.643,1.643,0,0,1,1.643,1.643h0A1.643,1.643,0,0,1,386.555,213.286Z" transform="translate(-363.412 -210)" fill="#fff"/>
          <circle id="Ellipse_118" data-name="Ellipse 118" cx="4.225" cy="4.225" r="4.225" transform="translate(0 5.515)" fill="#fff"/>
        </g>
        <g id="Group_2449" data-name="Group 2449" transform="translate(7.999 -4.413)">
          <path id="Path_6446" data-name="Path 6446" d="M137.506,15.075a1.173,1.173,0,0,1-1.173-1.173V11.173a1.174,1.174,0,0,1,2.347,0V13.9A1.173,1.173,0,0,1,137.506,15.075Z" transform="translate(-136.333 -10)" fill="#fff"/>
          <path id="Path_6447" data-name="Path 6447" d="M365.507,15.075a1.173,1.173,0,0,1-1.173-1.173V11.173a1.174,1.174,0,0,1,2.347,0V13.9A1.174,1.174,0,0,1,365.507,15.075Z" transform="translate(-350.955 -10)" fill="#fff"/>
        </g>
        <path id="Path_6448" data-name="Path 6448" d="M27.108-2.418h-2.8V-3.24A1.762,1.762,0,0,0,22.551-5a1.762,1.762,0,0,0-1.76,1.76v.821H10.933V-3.24A1.762,1.762,0,0,0,9.173-5a1.762,1.762,0,0,0-1.76,1.76V-2.4a.585.585,0,0,0-.156-.022H4.918A2.937,2.937,0,0,0,1.985.515V14.1a.587.587,0,0,0,1.173,0V3.625H24.311a.587.587,0,1,0,0-1.173H3.158V.515a1.762,1.762,0,0,1,1.76-1.76H7.256a.588.588,0,0,0,.156-.022v.755a1.762,1.762,0,0,0,1.76,1.76,1.762,1.762,0,0,0,1.76-1.76v-.733H20.79v.733a1.762,1.762,0,0,0,1.76,1.76,1.762,1.762,0,0,0,1.76-1.76v-.733h2.8a1.762,1.762,0,0,1,1.76,1.76V26.4a1.056,1.056,0,1,1-2.113,0V24.881a.587.587,0,0,0-.587-.587H19.343a.587.587,0,1,0,0,1.173h6.238V26.4a2.216,2.216,0,0,0,.267,1.056H2.23A1.057,1.057,0,0,1,1.173,26.4v-.931H14.306a.587.587,0,1,0,0-1.173H8.444a4.811,4.811,0,1,0-6.27,0H.587A.587.587,0,0,0,0,24.881V26.4a2.232,2.232,0,0,0,2.23,2.23H27.811a2.233,2.233,0,0,0,2.23-2.23V.515A2.937,2.937,0,0,0,27.108-2.418ZM9.76-.511a.587.587,0,0,1-.587.587.587.587,0,0,1-.587-.587V-3.24a.587.587,0,0,1,.587-.587.587.587,0,0,1,.587.587Zm13.378,0a.587.587,0,0,1-.587.587.587.587,0,0,1-.587-.587V-3.24a.587.587,0,0,1,.587-.587.587.587,0,0,1,.587.587ZM1.671,20.649a3.638,3.638,0,1,1,3.638,3.638A3.642,3.642,0,0,1,1.671,20.649Z" fill="#0096b6" stroke="#0096b6" stroke-width="0.5"/>
        <path id="Path_6449" data-name="Path 6449" d="M451.827,128.173a.587.587,0,1,0-.415-.172A.591.591,0,0,0,451.827,128.173Z" transform="translate(-424.764 -124.548)" fill="#0096b6"/>
        <path id="Path_6450" data-name="Path 6450" d="M281.752,438.3a.588.588,0,1,0,.415-.171A.592.592,0,0,0,281.752,438.3Z" transform="translate(-265.058 -413.835)" fill="#0096b6"/>
        <path id="Path_6451" data-name="Path 6451" d="M190.475,308.459a2.23,2.23,0,1,0-2.23-2.23A2.232,2.232,0,0,0,190.475,308.459Zm0-3.286a1.056,1.056,0,1,1-1.056,1.056A1.057,1.057,0,0,1,190.475,305.174Z" transform="translate(-177.2 -287.575)" fill="#0096b6"/>
        <path id="Path_6452" data-name="Path 6452" d="M283.808,308.459a2.23,2.23,0,1,0-2.23-2.23A2.232,2.232,0,0,0,283.808,308.459Zm0-3.286a1.056,1.056,0,1,1-1.056,1.056A1.057,1.057,0,0,1,283.808,305.174Z" transform="translate(-265.057 -287.575)" fill="#0096b6"/>
        <path id="Path_6454" data-name="Path 6454" d="M99.371,202.23a2.23,2.23,0,1,0-2.23,2.23A2.232,2.232,0,0,0,99.371,202.23Zm-3.286,0a1.056,1.056,0,1,1,1.056,1.056A1.057,1.057,0,0,1,96.085,202.23Z" transform="translate(-89.343 -189.678)" fill="#0096b6"/>
        <path id="Path_6455" data-name="Path 6455" d="M283.808,204.459a2.23,2.23,0,1,0-2.23-2.23A2.232,2.232,0,0,0,283.808,204.459Zm0-3.286a1.056,1.056,0,1,1-1.056,1.056A1.057,1.057,0,0,1,283.808,201.174Z" transform="translate(-265.057 -189.678)" fill="#0096b6"/>
        <path id="Path_6456" data-name="Path 6456" d="M377.142,204.459a2.23,2.23,0,1,0-2.23-2.23A2.232,2.232,0,0,0,377.142,204.459Zm0-3.286a1.056,1.056,0,1,1-1.056,1.056A1.057,1.057,0,0,1,377.142,201.174Z" transform="translate(-352.914 -189.678)" fill="#0096b6"/>
        <path id="Path_6457" data-name="Path 6457" d="M190.475,204.459a2.23,2.23,0,1,0-2.23-2.23A2.232,2.232,0,0,0,190.475,204.459Zm0-3.286a1.056,1.056,0,1,1-1.056,1.056A1.057,1.057,0,0,1,190.475,201.174Z" transform="translate(-177.2 -189.678)" fill="#0096b6"/>
        <path id="Path_6458" data-name="Path 6458" d="M52.434,352.028a.587.587,0,0,0,.83,0L55.59,349.7a.587.587,0,0,0-.83-.83l-1.911,1.911-.653-.653a.587.587,0,1,0-.83.83Z" transform="translate(-48.19 -329.653)" fill="#18d685"/>
      </g>
      <g id="Group_2426" data-name="Group 2426" transform="translate(1606.963 692.015)">
        <g id="Group_2444" data-name="Group 2444" transform="translate(19.268 22.965)">
          <g id="Group_2443" data-name="Group 2443">
            <g id="Group_2439" data-name="Group 2439">
              <g id="Group_2438" data-name="Group 2438">
                <g id="Group_2437" data-name="Group 2437">
                  <g id="Group_2435" data-name="Group 2435" transform="translate(11.532)">
                    <path id="Path_6424" data-name="Path 6424" d="M270.993,211.261a2.079,2.079,0,0,1-2.077-2.077V201.67a1.62,1.62,0,0,0-1.618-1.618h-11.44a1.62,1.62,0,0,0-1.618,1.618v7.514a2.077,2.077,0,1,1-4.154,0V201.67a5.779,5.779,0,0,1,5.772-5.772H267.3a5.779,5.779,0,0,1,5.772,5.772v7.514A2.079,2.079,0,0,1,270.993,211.261Z" transform="translate(-250.086 -195.898)" fill="#99d5e2"/>
                  </g>
                  <g id="Group_2436" data-name="Group 2436" transform="translate(0 9.63)">
                    <path id="Path_6425" data-name="Path 6425" d="M206.661,299.1h-37.1a4.473,4.473,0,0,1-4.474-4.473v-23.27a4.474,4.474,0,0,1,4.474-4.474h37.1a4.474,4.474,0,0,1,4.474,4.474v23.27A4.474,4.474,0,0,1,206.661,299.1Z" transform="translate(-165.087 -266.881)" fill="#99d5e2"/>
                    <path id="Path_6426" data-name="Path 6426" d="M416.844,266.88h-8.583a4.474,4.474,0,0,1,4.473,4.474v23.27a4.473,4.473,0,0,1-4.473,4.473h8.583a4.473,4.473,0,0,0,4.474-4.473v-23.27A4.474,4.474,0,0,0,416.844,266.88Z" transform="translate(-375.27 -266.88)" fill="#7bc5d5"/>
                    <path id="Path_6427" data-name="Path 6427" d="M206.661,266.88h-37.1a4.474,4.474,0,0,0-4.474,4.474v3.111a8.106,8.106,0,0,0,8.106,8.106h29.835a8.106,8.106,0,0,0,8.106-8.106v-3.111A4.474,4.474,0,0,0,206.661,266.88Z" transform="translate(-165.087 -266.88)" fill="#cc9675"/>
                    <path id="Path_6428" data-name="Path 6428" d="M206.661,266.88h-37.1a4.474,4.474,0,0,0-4.474,4.474v3.111a8.106,8.106,0,0,0,8.106,8.106h29.835a8.106,8.106,0,0,0,8.106-8.106v-3.111A4.474,4.474,0,0,0,206.661,266.88Z" transform="translate(-165.087 -266.88)" fill="#99d5e2"/>
                    <path id="Path_6429" data-name="Path 6429" d="M412.734,271.355v11.218h.477a8.106,8.106,0,0,0,8.106-8.106v-3.111a4.474,4.474,0,0,0-4.473-4.474H408.26A4.473,4.473,0,0,1,412.734,271.355Z" transform="translate(-375.269 -266.881)" fill="#7bc5d5"/>
                  </g>
                </g>
              </g>
            </g>
            <g id="Group_2442" data-name="Group 2442" transform="translate(8.763 21.547)">
              <g id="Group_2440" data-name="Group 2440">
                <path id="Path_6430" data-name="Path 6430" d="M232.38,363.758a2.7,2.7,0,0,1-2.7-2.7V357.42a2.7,2.7,0,1,1,5.4,0v3.637A2.7,2.7,0,0,1,232.38,363.758Z" transform="translate(-229.679 -354.719)" fill="#f4fbff"/>
              </g>
              <g id="Group_2441" data-name="Group 2441" transform="translate(23.119)">
                <path id="Path_6431" data-name="Path 6431" d="M402.79,363.758a2.7,2.7,0,0,1-2.7-2.7V357.42a2.7,2.7,0,1,1,5.4,0v3.637A2.7,2.7,0,0,1,402.79,363.758Z" transform="translate(-400.089 -354.719)" fill="#f4fbff"/>
              </g>
            </g>
          </g>
        </g>
        <g id="Group_2445" data-name="Group 2445" transform="translate(18.25 21.948)">
          <path id="Path_6434" data-name="Path 6434" d="M200.177,198.027h-6.041v-2.841a6.8,6.8,0,0,0-6.79-6.79H175.908a6.8,6.8,0,0,0-6.79,6.79v2.841h-6.041a5.491,5.491,0,0,0-5.491,5.491v23.27a5.5,5.5,0,0,0,5.491,5.491h37.1a5.5,5.5,0,0,0,5.491-5.491v-4.409a1.018,1.018,0,1,0-2.035,0v4.409a3.46,3.46,0,0,1-3.456,3.456h-37.1a3.46,3.46,0,0,1-3.456-3.456V212.367a9.113,9.113,0,0,0,6.728,3.379V217.3a3.719,3.719,0,0,0,7.437,0v-1.546h15.682V217.3a3.719,3.719,0,0,0,7.437,0v-1.554a9.113,9.113,0,0,0,6.728-3.379v5.255a1.018,1.018,0,1,0,2.035,0v-14.1A5.491,5.491,0,0,0,200.177,198.027Zm-29.025-2.841a4.76,4.76,0,0,1,4.755-4.755h11.439a4.76,4.76,0,0,1,4.755,4.755v2.841h-2.119v-2.841a2.639,2.639,0,0,0-2.636-2.635H175.908a2.639,2.639,0,0,0-2.636,2.635v2.841h-2.119Zm4.154,2.841v-2.841a.6.6,0,0,1,.6-.6h11.439a.6.6,0,0,1,.6.6v2.841ZM171.751,217.3a1.684,1.684,0,0,1-3.367,0v-3.637a1.684,1.684,0,1,1,3.367,0Zm23.119,0a1.684,1.684,0,0,1-3.367,0v-2.554s0-.007,0-.01,0-.007,0-.01v-1.063a1.684,1.684,0,0,1,3.367,0Zm2.035-3.591v-.047a3.719,3.719,0,0,0-7.437,0v.056H173.786v-.056a3.719,3.719,0,0,0-7.437,0v.047a7.1,7.1,0,0,1-6.728-7.08v-3.111a3.456,3.456,0,0,1,3.456-3.456h37.1a3.456,3.456,0,0,1,3.456,3.456v3.111A7.1,7.1,0,0,1,196.905,213.709Z" transform="translate(-157.586 -188.397)" fill="#0096b6"/>
        </g>
      </g>
    </g>
  </g>
</svg>
