<svg xmlns="http://www.w3.org/2000/svg" width="47.206" height="38.502" viewBox="0 0 47.206 38.502">
  <g id="holidays-icon" transform="translate(0.003 -31.993)">
    <path id="Path_3085" data-name="Path 3085" d="M5.939,57.6a2.321,2.321,0,0,0,1.795.887l9.628-.015a4.417,4.417,0,0,0,2.186-.59L41.008,45.657a13.1,13.1,0,0,0,4.943-4.828c1.351-2.358,1.5-4.065.964-5.27s-1.825-2.092-4.3-2.273A11.291,11.291,0,0,0,36.255,34.9l-7.266,4.139L12.859,32.244a1.192,1.192,0,0,0-1.328-.092l-4.85,2.763A1.617,1.617,0,0,0,6.3,37.277L17.823,45.4,10.21,49.737l-5.336-3.02a1.186,1.186,0,0,0-1.185,0L.728,48.405A1.617,1.617,0,0,0,.317,50.73L5.939,57.6Z" transform="translate(0 0)" fill="#209865"/>
    <path id="Path_6262" data-name="Path 6262" d="M46.023,70.993H1.178A1.106,1.106,0,0,0,0,72.007v2.029a1.106,1.106,0,0,0,1.18,1.014H46.023a1.106,1.106,0,0,0,1.18-1.014V72.007A1.106,1.106,0,0,0,46.023,70.993Z" transform="translate(0 -4.556)" fill="#c8c8c8"/>
  </g>
</svg>
