<svg xmlns="http://www.w3.org/2000/svg" width="53" height="60.571" viewBox="0 0 53 60.571">
  <g id="html-icon" transform="translate(-32)">
    <path id="Path_6348" data-name="Path 6348" d="M99.786,0A3.8,3.8,0,0,0,96,3.786v53a3.8,3.8,0,0,0,3.786,3.786h37.857a3.8,3.8,0,0,0,3.786-3.786V15.143L126.286,0Z" transform="translate(-56.429)" fill="#e2e5e7"/>
    <path id="Path_6349" data-name="Path 6349" d="M355.786,15.143h11.357L352,0V11.357A3.8,3.8,0,0,0,355.786,15.143Z" transform="translate(-282.143)" fill="#b0b7bd"/>
    <path id="Path_6350" data-name="Path 6350" d="M395.357,139.357,384,128h11.357Z" transform="translate(-310.357 -112.857)" fill="#cad1d8"/>
    <path id="Path_6351" data-name="Path 6351" d="M77.429,260.821a1.9,1.9,0,0,1-1.893,1.893H33.893A1.9,1.9,0,0,1,32,260.821V241.893A1.9,1.9,0,0,1,33.893,240H75.536a1.9,1.9,0,0,1,1.893,1.893Z" transform="translate(0 -211.607)" fill="#715abd"/>
    <g id="Group_2402" data-name="Group 2402" transform="translate(34.801 34.817)">
      <path id="Path_6352" data-name="Path 6352" d="M55.68,305.006v-8.6a.948.948,0,0,1,1.073-.939.9.9,0,0,1,.924.939v3.3H62.61v-3.3a.985.985,0,0,1,1.03-.939.916.916,0,0,1,.939.939v8.6a.925.925,0,0,1-.939.939,1,1,0,0,1-1.03-.939v-3.312H57.677v3.313a.912.912,0,0,1-.924.939A.956.956,0,0,1,55.68,305.006Z" transform="translate(-55.68 -295.334)" fill="#fff"/>
      <path id="Path_6353" data-name="Path 6353" d="M145.684,297.04h-2.648a.968.968,0,1,1,0-1.936h7.157a.969.969,0,1,1,0,1.936h-2.512v7.641a1,1,0,0,1-2,0V297.04Z" transform="translate(-131.83 -295.009)" fill="#fff"/>
      <path id="Path_6354" data-name="Path 6354" d="M233.8,298.271v5.6a1.044,1.044,0,0,1-1.088,1.045.94.94,0,0,1-.909-1.045v-8.52a1.011,1.011,0,0,1,.909-1.047,1.249,1.249,0,0,1,.952.547L237,299.345l3.449-4.662a.983.983,0,0,1,1.726.668v8.52a.941.941,0,0,1-.909,1.045.952.952,0,0,1-.969-1.045v-5.6l-2.512,3.178a.992.992,0,0,1-1.724,0Z" transform="translate(-210.971 -294.304)" fill="#fff"/>
      <path id="Path_6355" data-name="Path 6355" d="M337.264,296.268a.944.944,0,0,1,.954-.924.923.923,0,0,1,.893.924v7.583h4.117a1,1,0,1,1,0,1.982H338.22a.915.915,0,0,1-.954-.924v-8.641Z" transform="translate(-303.952 -295.221)" fill="#fff"/>
    </g>
    <path id="Path_6356" data-name="Path 6356" d="M131.964,417.893H96v1.893h35.964a1.9,1.9,0,0,0,1.893-1.893V416A1.9,1.9,0,0,1,131.964,417.893Z" transform="translate(-56.429 -366.786)" fill="#cad1d8"/>
  </g>
</svg>
