<svg xmlns="http://www.w3.org/2000/svg" width="39.9" height="39" viewBox="0 0 39.9 39">
  <g id="ic_notifications_active_48px-hovered" transform="translate(-4.05 -3)">
    <path id="Path_6126" data-name="Path 6126" d="M15.16,8.16,12.3,5.3A20.921,20.921,0,0,0,4.05,21h4A16.961,16.961,0,0,1,15.16,8.16ZM39.95,21h4A20.921,20.921,0,0,0,35.7,5.3L32.85,8.15A17.017,17.017,0,0,1,39.95,21ZM36,22c0-6.15-3.27-11.28-9-12.64V8a3,3,0,0,0-6,0V9.36c-5.73,1.36-9,6.49-9,12.64V32L8,36v2H40V36l-4-4ZM24,44a4.278,4.278,0,0,0,.81-.08A3.979,3.979,0,0,0,28,40H20a4,4,0,0,0,4,4Z" transform="translate(0 -2)" fill="#0096b6"/>
  </g>
</svg>
