<svg xmlns="http://www.w3.org/2000/svg" width="70" height="65" viewBox="0 0 70 65">
  <g id="job-promotion-serv-icon" transform="translate(-1604 -695.583)">
    <rect id="icon-base" width="70" height="65" transform="translate(1604 695.583)" fill="none"/>
    <g id="Group_2470" data-name="Group 2470" transform="translate(1607 696.583)">
      <g id="Group_2470-2" data-name="Group 2470" transform="translate(0.127 16.088)">
        <path id="Path_6503" data-name="Path 6503" d="M48.717,299.424l-3.67,20.161a3.718,3.718,0,0,0,7.336,1.222l3.005-16.172Z" transform="translate(-39.544 -278.397)" fill="#0096b6"/>
        <path id="Path_6504" data-name="Path 6504" d="M10.405,129.789l-9.3,7.437a3.724,3.724,0,0,0,0,5.258l9.926,7.746-.629-6.545-3.27-2.6,3.27-3.046Z" transform="translate(-0.022 -129.789)" fill="#0096b6"/>
        <path id="Path_6505" data-name="Path 6505" d="M97.121,181.555l-3.719-9.3a3.739,3.739,0,0,0-2.351-2.351l-8.614-2.871V151H75v18.82a3.846,3.846,0,0,0,2.542,3.424l9.391,3.132,3.134,7.533a3.718,3.718,0,0,0,7.054-2.355Z" transform="translate(-65.83 -148.371)" fill="#0096b6"/>
      </g>
      <g id="Group_2471" data-name="Group 2471" transform="translate(9.294)">
        <path id="Path_6506" data-name="Path 6506" d="M82.421,135.839a3.7,3.7,0,0,1-3.326-2.055l-3.719-7.437a3.719,3.719,0,1,1,6.653-3.326L84.72,128.4H95.436a3.719,3.719,0,0,1,0,7.437Z" transform="translate(-74.982 -105.966)" fill="#64cae1"/>
        <path id="Path_6507" data-name="Path 6507" d="M80.578,11.28A5.584,5.584,0,0,1,75,5.7a5.579,5.579,0,1,1,11.156,0A5.584,5.584,0,0,1,80.578,11.28Z" transform="translate(-74.998)" fill="#64cae1"/>
      </g>
      <path id="Path_6508" data-name="Path 6508" d="M62.919,215.278,59.2,211.561a1.865,1.865,0,0,0-2.634,0l-3.716,3.716a1.859,1.859,0,1,0,2.629,2.629l.545-.545v12.369H39.045a1.858,1.858,0,0,0-1.859,1.859v5.578H20.452a1.858,1.858,0,0,0-1.859,1.859v5.578H1.859a1.859,1.859,0,0,0,0,3.719H20.452a1.858,1.858,0,0,0,1.859-1.859v-5.578H39.045a1.858,1.858,0,0,0,1.859-1.859V233.45H57.886a1.858,1.858,0,0,0,1.859-1.859V217.362l.545.545a1.859,1.859,0,1,0,2.629-2.629Z" transform="translate(0 -184.86)" fill="#646870"/>
    </g>
  </g>
</svg>
