<svg xmlns="http://www.w3.org/2000/svg" width="70" height="65.788" viewBox="0 0 70 65.788">
  <g id="LinkShortener-serv-icon" transform="translate(-1174.031 -943.034)">
    <rect id="icon-base" width="70" height="65" transform="translate(1174.031 943.034)" fill="none"/>
    <g id="Group_2501" data-name="Group 2501" transform="translate(-1 0.679)">
      <g id="Group_2497" data-name="Group 2497" transform="translate(1209.649 983.25) rotate(-31)">
        <g id="Group_2490" data-name="Group 2490" transform="translate(0 0)">
          <g id="Path_6651" data-name="Path 6651" transform="translate(-0.839 -1.119)" fill="#99d5e2">
            <path d="M 15.89959526062012 28.00386428833008 C 15.81123447418213 28.00386428833008 15.72017478942871 28.00158309936523 15.6212043762207 27.99689292907715 C 12.86777496337891 27.8532543182373 10.66553497314453 25.46762275695801 10.60403442382813 22.56560325622559 C 10.58885192871094 21.84608459472656 10.46019744873047 21.1718635559082 10.22018718719482 20.54961585998535 C 9.964030265808105 21.21415901184082 9.834855079650879 21.93725776672363 9.834855079650879 22.71163368225098 C 9.834855079650879 25.62978363037109 7.460684776306152 28.00386428833008 4.54242467880249 28.00386428833008 C 1.624174833297729 28.00386428833008 -0.7499951720237732 25.62978363037109 -0.7499951720237732 22.71163368225098 C -0.7499951720237732 19.79350280761719 1.624174833297729 17.41942405700684 4.54242467880249 17.41942405700684 C 5.140386581420898 17.41942405700684 5.736489772796631 17.52448081970215 6.300177574157715 17.72676658630371 L 7.147769927978516 15.81222152709961 L 2.368524789810181 4.341553688049316 C 2.183034896850586 3.895873546600342 2.089034795761108 3.425623655319214 2.089034795761108 2.943593740463257 C 2.089034795761108 1.725873589515686 2.693944931030273 0.5955236554145813 3.707174777984619 -0.0800863578915596 L 4.379204750061035 -0.5281463861465454 C 4.592414855957031 -0.6723363399505615 4.846154689788818 -0.7499863505363464 5.108944892883301 -0.7499863505363464 C 5.235374927520752 -0.7499863505363464 5.36092472076416 -0.731756329536438 5.482104778289795 -0.6958063840866089 C 5.85259485244751 -0.5885263681411743 6.158084869384766 -0.3211463689804077 6.315564632415771 0.03640364110469818 L 10.22047805786133 8.864912986755371 L 14.12572479248047 0.0352836400270462 C 14.28221035003662 -0.3198654651641846 14.5859489440918 -0.5865193009376526 14.95909118652344 -0.6959661841392517 C 15.07978630065918 -0.7318220734596252 15.20493698120117 -0.750006377696991 15.33110523223877 -0.750006377696991 C 15.592604637146 -0.750006377696991 15.84577465057373 -0.6729263663291931 16.06325531005859 -0.5271163582801819 L 16.73366546630859 -0.08018635958433151 C 17.74697494506836 0.5955536365509033 18.35187530517578 1.725913643836975 18.35187530517578 2.943593740463257 C 18.35187530517578 3.425723552703857 18.25786399841309 3.896003723144531 18.07244491577148 4.341363430023193 L 13.29292869567871 15.81138229370117 L 14.13914966583252 17.72467613220215 C 14.70054912567139 17.52181434631348 15.28820133209229 17.41940307617188 15.89445495605469 17.41940307617188 C 16.33449554443359 17.41940307617188 16.77969551086426 17.47514343261719 17.21769523620605 17.58506393432617 C 19.15460395812988 18.07281303405762 20.66768455505371 19.64342308044434 21.0730152130127 21.58652305603027 C 21.41715431213379 23.23099327087402 20.99664497375488 24.89567375183105 19.91920471191406 26.15325355529785 C 18.91164398193359 27.3293342590332 17.44655418395996 28.00386428833008 15.89959526062012 28.00386428833008 Z M 15.89784526824951 21.19050407409668 C 15.05908489227295 21.19050407409668 14.37669467926025 21.87288284301758 14.37669467926025 22.71163368225098 C 14.37669467926025 23.55039405822754 15.05908489227295 24.23278427124023 15.89784526824951 24.23278427124023 C 16.73659515380859 24.23278427124023 17.41897392272949 23.55039405822754 17.41897392272949 22.71163368225098 C 17.41897392272949 21.87288284301758 16.73659515380859 21.19050407409668 15.89784526824951 21.19050407409668 Z M 4.54225492477417 21.19050407409668 C 3.703504800796509 21.19050407409668 3.021134853363037 21.87288284301758 3.021134853363037 22.71163368225098 C 3.021134853363037 23.55039405822754 3.703504800796509 24.23278427124023 4.54225492477417 24.23278427124023 C 5.381014823913574 24.23278427124023 6.06340503692627 23.55039405822754 6.06340503692627 22.71163368225098 C 6.06340503692627 21.87288284301758 5.381014823913574 21.19050407409668 4.54225492477417 21.19050407409668 Z M 10.22002506256104 15.51279354095459 C 10.0074348449707 15.51279354095459 9.834474563598633 15.68574333190918 9.834474563598633 15.89833354949951 C 9.834474563598633 16.11092376708984 10.0074348449707 16.28388404846191 10.22002506256104 16.28388404846191 C 10.43261528015137 16.28388404846191 10.60556507110596 16.11092376708984 10.60556507110596 15.89833354949951 C 10.60556507110596 15.68574333190918 10.43261528015137 15.51279354095459 10.22002506256104 15.51279354095459 Z" stroke="none"/>
            <path d="M 15.89959526062012 27.25386428833008 C 17.23149490356445 27.25386428833008 18.47797393798828 26.68276405334473 19.34965515136719 25.665283203125 C 20.27451515197754 24.58579444885254 20.63493537902832 23.1546745300293 20.33881568908691 21.73967361450195 C 19.99171447753906 20.07572364807129 18.6952953338623 18.73056411743164 17.03513526916504 18.31250381469727 C 16.65371322631836 18.21678161621094 16.27158737182617 18.16940689086914 15.89445686340332 18.16940689086914 C 15.14876270294189 18.16940689086914 14.42238140106201 18.35455513000488 13.75806522369385 18.71725273132324 L 12.47674465179443 15.82020378112793 L 17.38005447387695 4.053103446960449 C 17.52755546569824 3.698813676834106 17.60187530517578 3.325623750686646 17.60187530517578 2.943593740463257 C 17.60187530517578 1.977163672447205 17.12167549133301 1.080033659934998 16.31765556335449 0.5438536405563354 L 15.64558506011963 0.09582363814115524 C 15.5514030456543 0.03267655149102211 15.44158458709717 -1.553649894958653e-06 15.3311014175415 -1.553649894958653e-06 C 15.27768039703369 -1.553649894958653e-06 15.22410869598389 0.007636444177478552 15.17206478118896 0.02316364087164402 C 15.01124477386475 0.06974364072084427 14.87929439544678 0.1850936412811279 14.81163501739502 0.3386536538600922 L 10.22049522399902 10.7190637588501 L 5.629194736480713 0.3387136459350586 C 5.561554908752441 0.1851436346769333 5.429605007171631 0.06979364156723022 5.268795013427734 0.0232236422598362 C 5.216369152069092 0.007671066094189882 5.162517070770264 1.856353810580913e-05 5.108948707580566 1.856353810580913e-05 C 4.998221397399902 1.856353810580913e-05 4.888677597045898 0.03270429000258446 4.795254707336426 0.0958736389875412 L 4.123254776000977 0.5439136624336243 C 3.319224834442139 1.080033659934998 2.839034795761108 1.977163672447205 2.839034795761108 2.943593740463257 C 2.839034795761108 3.325623750686646 2.913354873657227 3.698753595352173 3.060834884643555 4.053103446960449 L 7.964004993438721 15.82120323181152 L 6.681654930114746 18.71778297424316 C 6.021824836730957 18.35737419128418 5.293224811553955 18.16942405700684 4.54242467880249 18.16942405700684 C 2.03724479675293 18.16942405700684 4.828491000807844e-06 20.20709419250488 4.828491000807844e-06 22.71163368225098 C 4.828491000807844e-06 25.21619415283203 2.037194728851318 27.25386428833008 4.54242467880249 27.25386428833008 C 7.047615051269531 27.25386428833008 9.084855079650879 25.21619415283203 9.084855079650879 22.71163368225098 C 9.084855079650879 21.0320930480957 9.634505271911621 19.8041934967041 10.21972465515137 18.96477317810059 C 10.78862476348877 19.77907371520996 11.3200044631958 20.94501304626465 11.3538646697998 22.54971313476563 C 11.40709495544434 25.06150436401367 13.29791450500488 27.12467384338379 15.65671443939209 27.24773406982422 C 15.73878479003906 27.25162315368652 15.8197546005249 27.25386428833008 15.89959526062012 27.25386428833008 M 15.89784526824951 20.44050407409668 C 17.14984512329102 20.44050407409668 18.16897392272949 21.45905303955078 18.16897392272949 22.71163368225098 C 18.16897392272949 23.9642333984375 17.14984512329102 24.98278427124023 15.89784526824951 24.98278427124023 C 14.64583492279053 24.98278427124023 13.62669467926025 23.9642333984375 13.62669467926025 22.71163368225098 C 13.62669467926025 21.45905303955078 14.64583492279053 20.44050407409668 15.89784526824951 20.44050407409668 M 4.54225492477417 20.44050407409668 C 5.794274806976318 20.44050407409668 6.81340503692627 21.45905303955078 6.81340503692627 22.71163368225098 C 6.81340503692627 23.9642333984375 5.794274806976318 24.98278427124023 4.54225492477417 24.98278427124023 C 3.290254831314087 24.98278427124023 2.271134853363037 23.9642333984375 2.271134853363037 22.71163368225098 C 2.271134853363037 21.45905303955078 3.290254831314087 20.44050407409668 4.54225492477417 20.44050407409668 M 10.22002506256104 14.76279354095459 C 10.84658527374268 14.76279354095459 11.35556507110596 15.27236366271973 11.35556507110596 15.89833354949951 C 11.35556507110596 16.52431297302246 10.84658527374268 17.03388404846191 10.22002506256104 17.03388404846191 C 9.593464851379395 17.03388404846191 9.084474563598633 16.52431297302246 9.084474563598633 15.89833354949951 C 9.084474563598633 15.27236366271973 9.593504905700684 14.76279354095459 10.22002506256104 14.76279354095459 M 15.89959526062012 28.75386428833008 C 15.79927444458008 28.75386428833008 15.69660472869873 28.75130271911621 15.58569526672363 28.74605369567871 L 15.58213520050049 28.74588394165039 L 15.57856464385986 28.74569320678711 C 13.14468765258789 28.61871910095215 11.08665752410889 26.96339416503906 10.25154590606689 24.69203758239746 C 9.429889678955078 27.05417251586914 7.180988788604736 28.75386428833008 4.54242467880249 28.75386428833008 C 1.210624814033508 28.75386428833008 -1.499995112419128 26.04333305358887 -1.499995112419128 22.71163368225098 C -1.499995112419128 19.37994384765625 1.210624814033508 16.66942405700684 4.54242467880249 16.66942405700684 C 4.992617130279541 16.66942405700684 5.441889762878418 16.72143745422363 5.880126953125 16.82287979125977 L 6.331534862518311 15.80323886871338 L 1.676214814186096 4.630003452301025 C 1.452404856681824 4.092263698577881 1.339034795761108 3.525053739547729 1.339034795761108 2.943593740463257 C 1.339034795761108 1.474563598632813 2.068774938583374 0.1109436452388763 3.291094779968262 -0.7040863633155823 L 3.960625410079956 -1.150479912757874 C 4.301176071166992 -1.379166722297668 4.698079109191895 -1.499986410140991 5.108944892883301 -1.499986410140991 C 5.305417060852051 -1.499986410140991 5.500574111938477 -1.471963167190552 5.68911075592041 -1.416685581207275 C 6.27677059173584 -1.24554717540741 6.755127429962158 -0.8262670636177063 7.001935005187988 -0.2659163475036621 L 10.22046566009521 7.010773181915283 L 13.4398250579834 -0.2680863440036774 C 13.68542289733887 -0.8255031108856201 14.1627025604248 -1.244278192520142 14.74897193908691 -1.415931463241577 C 14.93795871734619 -1.471724629402161 15.13377666473389 -1.500006318092346 15.33110523223877 -1.500006318092346 C 15.7418851852417 -1.500006318092346 16.13950538635254 -1.378986358642578 16.48095512390137 -1.150026321411133 L 17.14968490600586 -0.7042363286018372 C 18.37215423583984 0.1110036447644234 19.10187530517578 1.474623680114746 19.10187530517578 2.943593740463257 C 19.10187530517578 3.52518367767334 18.98847389221191 4.092443466186523 18.76483535766602 4.629623413085938 L 14.10910606384277 15.80257797241211 L 14.55907917022705 16.81996154785156 C 14.99329948425293 16.71980285644531 15.43926334381104 16.66940307617188 15.89445495605469 16.66940307617188 C 16.39597511291504 16.66940307617188 16.90259552001953 16.73272323608398 17.40024566650391 16.85761451721191 C 19.6142749786377 17.41515350341797 21.3436450958252 19.21112442016602 21.80720520019531 21.43336296081543 C 22.19930458068848 23.30697441101074 21.71881484985352 25.20550346374512 20.48875427246094 26.64121437072754 C 19.33854484558105 27.98382377624512 17.66584396362305 28.75386428833008 15.89959526062012 28.75386428833008 Z M 15.89784526824951 21.94050407409668 C 15.47263526916504 21.94050407409668 15.12669467926025 22.28643417358398 15.12669467926025 22.71163368225098 C 15.12669467926025 23.13684272766113 15.47263526916504 23.48278427124023 15.89784526824951 23.48278427124023 C 16.32304573059082 23.48278427124023 16.66897392272949 23.13684272766113 16.66897392272949 22.71163368225098 C 16.66897392272949 22.28643417358398 16.32304573059082 21.94050407409668 15.89784526824951 21.94050407409668 Z M 4.54225492477417 21.94050407409668 C 4.11705493927002 21.94050407409668 3.771134853363037 22.28643417358398 3.771134853363037 22.71163368225098 C 3.771134853363037 23.13684272766113 4.11705493927002 23.48278427124023 4.54225492477417 23.48278427124023 C 4.967464923858643 23.48278427124023 5.31340503692627 23.13684272766113 5.31340503692627 22.71163368225098 C 5.31340503692627 22.28643417358398 4.967464923858643 21.94050407409668 4.54225492477417 21.94050407409668 Z" stroke="none" fill="#2fa9c4"/>
          </g>
        </g>
      </g>
      <g id="Group_2500" data-name="Group 2500" transform="translate(1181.031 947.034)">
        <g id="Group_2499" data-name="Group 2499" transform="translate(0 0)">
          <g id="Group_2498" data-name="Group 2498" transform="translate(0 0)">
            <path id="Path_6685" data-name="Path 6685" d="M18.33,196.313,12.839,201.8A5.825,5.825,0,1,1,4.6,193.568l10.984-10.984a5.823,5.823,0,0,1,8.236,0,1.942,1.942,0,1,0,2.746-2.746,9.707,9.707,0,0,0-13.728,0L1.855,190.822a9.708,9.708,0,1,0,13.73,13.728l5.491-5.491a1.942,1.942,0,1,0-2.746-2.746Z" transform="translate(0.989 -160.794)" fill="#0096b6"/>
            <path id="Path_6686" data-name="Path 6686" d="M216.319,15.58a9.708,9.708,0,0,0-13.73-13.729L196,8.44a1.942,1.942,0,0,0,2.746,2.746L205.335,4.6a5.825,5.825,0,0,1,8.238,8.236L201.492,24.916a5.823,5.823,0,0,1-8.236,0,1.942,1.942,0,1,0-2.746,2.746,9.707,9.707,0,0,0,13.728,0Z" transform="translate(-172.562 0.992)" fill="#0096b6"/>
            <path id="Path_6688" data-name="Path 6688" d="M48.053,50.8A1.942,1.942,0,0,0,50.8,48.05L44.969,42.22a1.942,1.942,0,1,0-2.746,2.746Z" transform="translate(-33.247 -42.192) rotate(3)" fill="#99d5e2"/>
            <path id="Path_6690" data-name="Path 6690" d="M150.279,8.709a1.942,1.942,0,0,0,1.942-1.942V.942a1.942,1.942,0,1,0-3.883,0V6.767A1.942,1.942,0,0,0,150.279,8.709Z" transform="translate(-130.066 -9.444) rotate(3)" fill="#99d5e2"/>
            <path id="Path_6691" data-name="Path 6691" d="M.945,152.217H6.77a1.942,1.942,0,1,0,0-3.883H.945a1.942,1.942,0,1,0,0,3.883Z" transform="translate(10.44 -135.005) rotate(3)" fill="#99d5e2"/>
          </g>
        </g>
      </g>
    </g>
  </g>
</svg>
