<svg xmlns="http://www.w3.org/2000/svg" width="70" height="65" viewBox="0 0 70 65">
  <g id="loan-serv-icon" transform="translate(-1604 -695.583)">
    <rect id="icon-base" width="70" height="65" transform="translate(1604 695.583)" fill="none"/>
    <g id="XMLID_1125_" transform="translate(1608 697.583)">
      <g id="XMLID_1410_" transform="translate(14.237 1.206)">
        <path id="XMLID_1408_" d="M216.858,11.218a2.49,2.49,0,0,0,3.522,0,4.232,4.232,0,0,1,5.985,0,2.49,2.49,0,0,0,3.522,0l.015-.015a.966.966,0,0,1,1.6,1l-2.7,7.762H217.974l-2.71-7.745a.966.966,0,0,1,1.595-1Z" transform="translate(-203.43 -9.978)" fill="#99d5e2"/>
        <path id="XMLID_1399_" d="M151.857,101.489,142.97,92.6H132.522l-8.887,8.887a19.956,19.956,0,1,0,28.222,0Z" transform="translate(-117.79 -82.615)" fill="#99d5e2"/>
      </g>
      <path id="XMLID_1411_" d="M98,338.827h23.477a17.909,17.909,0,0,0,12.482-5.066l11.835-11.5a3.414,3.414,0,0,0-4.647-5l-11.858,10.532a10.913,10.913,0,0,1-7.247,2.754l-12.375-3.766L121,330.38a3.433,3.433,0,0,0,2.523-6.368l-8.533-4.087a14.216,14.216,0,0,0-11.041-.524l-5.928,2.177Z" transform="translate(-86.155 -278.152)" fill="#fff"/>
      <path id="XMLID_1218_" d="M18.38,345.98H12.256A2.256,2.256,0,0,0,10,348.236V362.58a2.256,2.256,0,0,0,2.256,2.256H18.38a2.256,2.256,0,0,0,2.256-2.256V348.236A2.256,2.256,0,0,0,18.38,345.98Z" transform="translate(-8.791 -304.161)" fill="#fff"/>
      <g id="XMLID_281_" transform="translate(0 0)">
        <path id="XMLID_283_" d="M253.736,190.6a1.481,1.481,0,0,1,1.592,1.333,1.209,1.209,0,0,0,2.417,0,3.794,3.794,0,0,0-2.8-3.576v-.168a1.209,1.209,0,1,0-2.417,0v.168a3.794,3.794,0,0,0-2.8,3.576,3.89,3.89,0,0,0,4.009,3.75,1.354,1.354,0,1,1-1.592,1.333,1.209,1.209,0,1,0-2.417,0,3.793,3.793,0,0,0,2.8,3.576v.168a1.209,1.209,0,0,0,2.417,0v-.168a3.794,3.794,0,0,0,2.8-3.576,3.891,3.891,0,0,0-4.009-3.75,1.354,1.354,0,1,1,0-2.666Z" transform="translate(-219.543 -164.38)" fill="#0096b6"/>
        <path id="XMLID_1217_" d="M61.7,40.376a4.621,4.621,0,0,0-6.617-2.8,21.3,21.3,0,0,0-.872-10.274,1.209,1.209,0,0,0-2.287.785,18.869,18.869,0,0,1,.038,12.087l-9.632,8.555a9.713,9.713,0,0,1-1.939,1.339,4.638,4.638,0,0,0-2.5-5.3L29.36,40.683a15.511,15.511,0,0,0-11.979-.568l-.867.318a18.669,18.669,0,0,1,4.424-19.5L29.47,12.4h9.447l7.23,7.23a1.209,1.209,0,0,0,1.709-1.709l-6.908-6.908,2.5-7.187a2.175,2.175,0,0,0-3.592-2.251l-.015.015a1.283,1.283,0,0,1-1.812,0,5.447,5.447,0,0,0-7.694,0,1.282,1.282,0,0,1-1.812,0,2.175,2.175,0,0,0-3.59,2.256l2.508,7.168-8.21,8.21a21.17,21.17,0,0,0-4.986,22.042l-1.906.7A3.461,3.461,0,0,0,9.589,40.61H3.465A3.469,3.469,0,0,0,0,44.075V58.418a3.469,3.469,0,0,0,3.465,3.465H35.322a19.018,19.018,0,0,0,13.324-5.408l11.835-11.5A4.615,4.615,0,0,0,61.7,40.376ZM29.426,4.384A3.675,3.675,0,0,0,32.042,3.3a3.027,3.027,0,0,1,4.275,0,3.7,3.7,0,0,0,4.569.527L38.747,9.984H29.638L27.487,3.837a3.676,3.676,0,0,0,1.939.547ZM2.417,58.418V44.075a1.049,1.049,0,0,1,1.048-1.048H9.589a1.049,1.049,0,0,1,1.048,1.048V58.418a1.049,1.049,0,0,1-1.048,1.048H3.465A1.049,1.049,0,0,1,2.417,58.418ZM58.8,43.239l-11.835,11.5a16.614,16.614,0,0,1-11.639,4.724H12.892a3.451,3.451,0,0,0,.162-1.048V44.279l5.16-1.895a13.081,13.081,0,0,1,10.1.479l8.533,4.087a2.225,2.225,0,0,1,.935,3.169,2.221,2.221,0,0,1-2.57.957l-11.336-3.6a1.209,1.209,0,0,0-.733,2.3l11.336,3.6a4.654,4.654,0,0,0,1.412.22c.057,0,.113,0,.169-.005a12.107,12.107,0,0,0,7.874-3.055L55.795,40.008a2.215,2.215,0,0,1,1.923-.508A2.206,2.206,0,0,1,58.8,43.239Z" transform="translate(0 0)" fill="#0096b6"/>
        <path id="XMLID_1298_" d="M409.948,181.406a1.209,1.209,0,1,0-.855-.354A1.212,1.212,0,0,0,409.948,181.406Z" transform="translate(-359.335 -157.355)" fill="#0096b6"/>
      </g>
    </g>
  </g>
</svg>
