<svg xmlns="http://www.w3.org/2000/svg" width="20" height="20" viewBox="0 0 20 20">
  <g id="location-icon" transform="translate(-1754 -440)">
    <rect id="icon-base" width="20" height="20" transform="translate(1754 440)" fill="none"/>
    <path id="Path_1295" data-name="Path 1295" d="M-7.444,1.887a.844.844,0,0,0,1.387,0C-.948-5.518,0-6.278,0-9a6.75,6.75,0,0,0-6.75-6.75A6.75,6.75,0,0,0-13.5-9C-13.5-6.278-12.552-5.518-7.444,1.887Zm.694-8.074A2.813,2.813,0,0,1-9.562-9,2.813,2.813,0,0,1-6.75-11.812,2.813,2.813,0,0,1-3.937-9,2.813,2.813,0,0,1-6.75-6.187Z" transform="translate(1771 456.75)" fill="none" stroke="#fff" stroke-width="1.5"/>
  </g>
</svg>
