<svg xmlns="http://www.w3.org/2000/svg" width="85.616" height="76.497" viewBox="0 0 85.616 76.497">
  <g id="logo" transform="translate(-1673.676 -21.323)">
    <g id="Logo-2" data-name="Logo" transform="translate(1650.589 21.323)">
      <g id="_008178cf" data-name="#008178cf" transform="translate(56.404)">
        <path id="Path_6275" data-name="Path 6275" d="M96.678,0h1.073a5.049,5.049,0,0,1,4.465,5.283c.01,1.963-1.467,3.445-3.06,4.359,1.549.919,3.026,2.338,3.05,4.267a4.878,4.878,0,0,1-4.739,5.311,4.934,4.934,0,0,1-5.042-5.754A5.458,5.458,0,0,1,95.48,9.642a5.276,5.276,0,0,1-3.113-4.359A5.151,5.151,0,0,1,96.678,0Z" transform="translate(-92.337)" fill="#fff" opacity="0.81"/>
        <path id="Path_6276" data-name="Path 6276" d="M92.392,49a4.935,4.935,0,1,1,9.8.082,5.077,5.077,0,0,1-3.233,4.075,5.24,5.24,0,0,1,3.262,4.513,4.9,4.9,0,0,1-4.739,5.172A4.951,4.951,0,0,1,92.4,57.3c.154-1.886,1.621-3.243,3.166-4.133A5.3,5.3,0,0,1,92.392,49Z" transform="translate(-92.343 -22.58)" fill="#fff" opacity="0.81"/>
      </g>
      <g id="_9f6614ff" data-name="#9f6614ff" transform="translate(88.509 0.076)">
        <path id="Path_6277" data-name="Path 6277" d="M159.418,3.955A4.947,4.947,0,1,1,168.5,7.6a6.485,6.485,0,0,1-2.228,2.074,5.048,5.048,0,0,1,1.636,7.486,4.969,4.969,0,0,1-7.727.048,5.027,5.027,0,0,1,1.742-7.621C160.106,8.381,158.778,6.182,159.418,3.955Z" transform="translate(-159.081 -0.158)" fill="#fff"/>
        <path id="Path_6278" data-name="Path 6278" d="M159.382,50.474a4.977,4.977,0,0,1,4.479-5.995,5.059,5.059,0,0,1,4.84,2.8,6.145,6.145,0,0,1-.01,4.4,11.858,11.858,0,0,1-2.309,2.295,13.375,13.375,0,0,1,2.189,2.357,6.341,6.341,0,0,1-.048,4.114,4.95,4.95,0,1,1-8.992-4.142c.438-1.087,1.5-1.669,2.266-2.492C160.773,52.885,159.613,51.927,159.382,50.474Z" transform="translate(-159.069 -23.146)" fill="#fff"/>
      </g>
      <g id="_70480eb5" data-name="#70480eb5" transform="translate(97.964 0.086)">
        <path id="Path_6280" data-name="Path 6280" d="M180.7,3.5A4.973,4.973,0,0,1,188.52,1.31a5.1,5.1,0,0,1-1.1,8.371,5.114,5.114,0,0,1,2.661,4.349,4.917,4.917,0,1,1-9.805-.419c.043-1.79,1.357-3.108,2.713-4.085C181.058,8.277,179.715,5.756,180.7,3.5Z" transform="translate(-179.504 -0.179)" fill="#fff" opacity="0.71"/>
        <path id="Path_6281" data-name="Path 6281" d="M178.9,47.27a5.236,5.236,0,0,1,4.306-2.8,4.977,4.977,0,0,1,5.047,5.956,5.34,5.34,0,0,1-2.665,3.474,5.189,5.189,0,0,1,2.709,5.287,4.969,4.969,0,0,1-5.615,4.1c-1.751-.159-2.949-1.559-3.96-2.848a6.342,6.342,0,0,0,.048-4.114,27.866,27.866,0,0,1,2.353-2.415c-.765-.726-1.516-1.467-2.232-2.237A6.145,6.145,0,0,0,178.9,47.27Z" transform="translate(-178.72 -23.151)" fill="#fff" opacity="0.71"/>
      </g>
      <g id="_009ddcff" data-name="#009ddcff" transform="translate(23.11 11.466)">
        <path id="Path_6282" data-name="Path 6282" d="M23.243,29.764a4.938,4.938,0,1,1,9.781-1.049,5.171,5.171,0,0,1-3.291,4.811,5.048,5.048,0,0,1,.072,9.435c1.876.957,3.459,2.829,3.209,5.057,0,1.963-1.506,3.4-3.017,4.417a5.083,5.083,0,0,1,3.012,4.171,4.936,4.936,0,1,1-9.853.52,5.177,5.177,0,0,1,3.171-4.777,5.072,5.072,0,0,1-3.166-4.9,5.361,5.361,0,0,1,3.248-4.494,5.163,5.163,0,0,1-3.252-4.575,5.11,5.11,0,0,1,3.344-4.85A5.359,5.359,0,0,1,23.243,29.764Z" transform="translate(-23.135 -23.833)" fill="#fff"/>
      </g>
      <g id="_0077a7c2" data-name="#0077a7c2" transform="translate(33.806 11.457)">
        <path id="Path_6283" data-name="Path 6283" d="M45.4,29.166a4.94,4.94,0,1,1,9.589,1.251,5.569,5.569,0,0,1-3.065,3.1A5.113,5.113,0,0,1,55.25,38.37a5.177,5.177,0,0,1-3.286,4.6,5.116,5.116,0,0,1,3.281,5.008,4.939,4.939,0,1,1-9.593-1.905A5.975,5.975,0,0,1,48.6,42.945a5.152,5.152,0,0,1-3.146-5.552c.192-1.8,1.641-2.993,3.079-3.868C46.951,32.582,45.436,31.148,45.4,29.166Z" transform="translate(-45.367 -23.813)" fill="#fff" opacity="0.76"/>
      </g>
      <g id="_009f94ff" data-name="#009f94ff" transform="translate(44.488 11.464)">
        <path id="Path_6284" data-name="Path 6284" d="M67.585,28.756a4.939,4.939,0,1,1,9.579,1.732,5.314,5.314,0,0,1-3.084,3.036,5.027,5.027,0,0,1,3.276,5.759,5.325,5.325,0,0,1-3.228,3.7,5.183,5.183,0,0,1,3.065,3.1,4.938,4.938,0,1,1-9.6,1.41,5.236,5.236,0,0,1,3.161-4.46c-1.337-.929-2.762-2.04-3.055-3.758A5.045,5.045,0,0,1,71,33.524,5.128,5.128,0,0,1,67.585,28.756Z" transform="translate(-67.571 -23.829)" fill="#fff"/>
      </g>
      <g id="_00625b9e" data-name="#00625b9e" transform="translate(67.137 15.602)">
        <path id="Path_6285" data-name="Path 6285" d="M120.745,39.353c-1.636-3.305,1.554-7.486,5.167-6.861,3.252.318,5.162,4.037,3.95,6.976a5.326,5.326,0,0,1,4.744-1.054,4.958,4.958,0,0,1,3.32,6.283,6.111,6.111,0,0,1-2.463,2.968c2.526,1.453,3.589,5.008,1.732,7.4a4.973,4.973,0,0,1-8.261-.409,5.115,5.115,0,0,1,2.054-7,5.316,5.316,0,0,1-2.324-6.562C126.235,43.226,121.934,42.466,120.745,39.353Z" transform="translate(-117.583 -32.43)" fill="#fff" opacity="0.62"/>
        <path id="Path_6286" data-name="Path 6286" d="M118.358,63.282a4.976,4.976,0,0,1,5.937,6.245c-.885,3.517-5.894,4.7-8.28,1.987A4.99,4.99,0,0,1,118.358,63.282Z" transform="translate(-114.647 -48.343)" fill="#fff" opacity="0.62"/>
        <path id="Path_6287" data-name="Path 6287" d="M129.728,83.936a4.949,4.949,0,1,1-3.06,3.262A4.939,4.939,0,0,1,129.728,83.936Z" transform="translate(-120.773 -58.985)" fill="#fff" opacity="0.62"/>
      </g>
      <g id="_58585aff" data-name="#58585aff" transform="translate(23.086 47.284)">
        <path id="Path_6288" data-name="Path 6288" d="M136.26,98.28c.909,0,1.819.01,2.728.019-.01,2.088,0,4.171-.034,6.259a38.78,38.78,0,0,1,7.472-.168,4.253,4.253,0,0,1,3.834,3.82,54.166,54.166,0,0,1,0,6.312,4.3,4.3,0,0,1-4.306,3.859c-3.286.082-6.572,0-9.863.024a15.586,15.586,0,0,1-1.843,2.492c-6.418-5.677-12.687-11.518-19.009-17.3.616-.669,1.227-1.342,1.843-2.011q7.686,7.051,15.4,14.073c4.489-.024,8.978.048,13.462-.024a1.538,1.538,0,0,0,1.607-1.607c.053-1.771.058-3.546,0-5.312a1.547,1.547,0,0,0-1.641-1.617q-2.648-.094-5.292,0a1.556,1.556,0,0,0-1.621,1.65c-.072,1.511-.01,3.026-.024,4.537-.919-.01-1.833-.019-2.752-.024C136.25,108.268,136.178,103.274,136.26,98.28Z" transform="translate(-70.904 -98.28)" fill="#fff"/>
        <path id="Path_6289" data-name="Path 6289" d="M193.32,98.424c.914-.01,1.823-.01,2.738-.014.082,6.562.014,13.13.034,19.692-.909.014-1.823.029-2.733.048C193.3,111.573,193.363,105,193.32,98.424Z" transform="translate(-111.418 -98.347)" fill="#fff"/>
        <path id="Path_6290" data-name="Path 6290" d="M60.663,98.794c.9-.043,1.809,0,2.709-.034.019,5.182-.034,10.363.014,15.545a1.655,1.655,0,0,0,1.948,1.6c4.47.029,8.934-.01,13.4.01.014.909-.024,1.819-.01,2.728-4.45.034-8.905.014-13.356.014a6,6,0,0,1-3.368-1.054,5.99,5.99,0,0,1-2.863,1.025c-3.916.091-7.833,0-11.749.038.01-.505.019-1.006.029-1.506-2.42,2.353-6.009,1.256-9.016,1.5-.034-.269-.1-.818-.13-1.092-2.42,2.6-6.226,2.656-9.488,2.141a7.356,7.356,0,0,1-5.624-6.336c-.159-2.4-.019-4.8-.072-7.2.914,0,1.823,0,2.733,0,.207,2.839-.553,5.87.568,8.564,1.15,2.367,3.993,2.617,6.307,2.391a4.6,4.6,0,0,0,4.792-4.272c.135-3.094.014-6.2.038-9.3.9.014,1.8,0,2.7.01-.038,3.094.029,6.187-.019,9.281a10.026,10.026,0,0,1-.726,3.074,47.943,47.943,0,0,0,5.2-.13,1.58,1.58,0,0,0,.9-1.54c.063-3.551-.01-7.1.014-10.652.929.038,1.857.01,2.786.048-.12,4.085.245,8.2-.221,12.264,1.7-.293,4.46.842,5.307-1.174.168-3.685.024-7.38.058-11.07.9-.043,1.8-.038,2.709-.082a113.609,113.609,0,0,1-.178,12.345,29.8,29.8,0,0,0,3.531-.115,1.891,1.891,0,0,0,1.078-2.011C60.687,108.8,60.673,103.8,60.663,98.794Z" transform="translate(-23.086 -98.529)" fill="#fff"/>
        <path id="Path_6291" data-name="Path 6291" d="M109.23,145.6c1.439-1.39,2.853-2.814,4.258-4.243,1.414,1.424,2.829,2.843,4.263,4.243a33.832,33.832,0,0,0-3.974,4.243h-.625A32.411,32.411,0,0,0,109.23,145.6Z" transform="translate(-67.785 -120.634)" fill="#fff"/>
      </g>
    </g>
  </g>
</svg>
