<svg xmlns="http://www.w3.org/2000/svg" xmlns:xlink="http://www.w3.org/1999/xlink" width="285" height="180" viewBox="0 0 285 180">
  <defs>
    <clipPath id="clip-path">
      <rect id="bg" width="285" height="180" rx="30" transform="translate(-57.999 -9.003)" fill="#fcfcfc"/>
    </clipPath>
  </defs>
  <g id="logo-bg" transform="translate(57.999 9.003)" opacity="0.08" clip-path="url(#clip-path)">
    <g id="logo-shape" transform="translate(-228.2 -126.758)">
      <path id="Path_1397" data-name="Path 1397" d="M1104.263-658.728a416.32,416.32,0,0,0-38.455,51.193c-3.918,6.074-7.558,12.236-11.094,18.429-3.583,6.127-7.127,12.381-10.423,18.773a417.442,417.442,0,0,0-25.126,58.937,436.961,436.961,0,0,0-19.8,85.706l113.321-65.289a352.284,352.284,0,0,1,23.361-51.064h.063v-.076a350.814,350.814,0,0,1,32.517-45.647V-718.732a437.817,437.817,0,0,0-64.355,60.012" transform="translate(-999.36 718.773)" fill="#9297a1"/>
      <path id="Path_1398" data-name="Path 1398" d="M1193.01-587.778a348.143,348.143,0,0,1,32.619,45.665l.024.075h.021a351.866,351.866,0,0,1,23.362,51.065l113.339,65.289a436.828,436.828,0,0,0-19.805-85.706,415.427,415.427,0,0,0-25.145-58.937c-3.338-6.392-6.861-12.646-10.425-18.773-3.527-6.193-7.19-12.342-11.082-18.429a417.1,417.1,0,0,0-38.446-51.193,437.939,437.939,0,0,0-64.444-60.039Z" transform="translate(-1011.634 718.758)" fill="#9297a1"/>
      <path id="Path_1400" data-name="Path 1400" d="M1231.438-464.89a349.408,349.408,0,0,1-55.871,5.4h-.127a352.491,352.491,0,0,1-55.906-5.254l-113.281,65.757a440.16,440.16,0,0,0,84.308,25.645,424.8,424.8,0,0,0,63.549,7.493c7.193.313,14.4.4,21.492.313,7.136.053,14.29-.052,21.484-.392a420.137,420.137,0,0,0,63.564-7.819,438.3,438.3,0,0,0,84.146-25.905Z" transform="translate(-999.813 702.69)" fill="#9297a1"/>
    </g>
  </g>
</svg>
