<svg xmlns="http://www.w3.org/2000/svg" width="70" height="65" viewBox="0 0 70 65">
  <g id="maintainance-serv-icon" transform="translate(-1604 -695.583)">
    <rect id="icon-base" width="70" height="65" transform="translate(1604 695.583)" fill="none"/>
    <g id="Group_2417" data-name="Group 2417" transform="translate(1608.989 697.583)">
      <g id="Group_2418" data-name="Group 2418" transform="translate(0.011 0)">
        <g id="Group_2417-2" data-name="Group 2417" transform="translate(0 0)">
          <g id="filled_outline_33_">
            <path id="Path_6385" data-name="Path 6385" d="M319.65,309.509,307.542,297.4l-.507.507a2.153,2.153,0,0,1-3.045-3.045h0l.508-.508-3.045-3.045L291.3,301.46l3.045,3.045.508-.507a2.153,2.153,0,1,1,3.045,3.045l-.508.507L309.5,319.659a7.191,7.191,0,0,0,1.209.965l9.907-9.907A7.192,7.192,0,0,0,319.65,309.509Z" transform="translate(-261.865 -261.872)" fill="#99d5e2"/>
            <path id="Path_6386" data-name="Path 6386" d="M493.259,483.362l-9.907,9.907a7.169,7.169,0,0,0,9.907-9.907Z" transform="translate(-434.509 -434.517)" fill="#99d5e2"/>
            <path id="Path_6387" data-name="Path 6387" d="M22.234,18.184l-1.015-4.06-7.105-4.06-4.06,4.06,4.06,7.105,4.06,1.015L41.52,45.59l4.06-4.06Z" transform="translate(-9.039 -9.047)" fill="#fff"/>
            <path id="Path_6388" data-name="Path 6388" d="M67.439,18.485l-6.762,6.762-6.09-2.03-2.03-6.09,6.762-6.762A11.119,11.119,0,0,0,45.8,23.887L22.776,46.908a11.229,11.229,0,1,0,8.12,8.12L53.917,32.007A11.124,11.124,0,0,0,67.439,18.485ZM23.121,62.8h-6.09l-3.045-5.075,3.045-5.075h6.09l3.045,5.075Z" transform="translate(-7.896 -9.005)" fill="#fff"/>
            <path id="Path_6389" data-name="Path 6389" d="M556.519,487.228a7.161,7.161,0,0,0-1.137-3.866l-2.923,2.923v7.4A7.171,7.171,0,0,0,556.519,487.228Z" transform="translate(-496.632 -434.517)" fill="#99d5e2"/>
            <path id="Path_6390" data-name="Path 6390" d="M.179,5.661l4.06,7.105a1.012,1.012,0,0,0,.634.481l3.788.947L21.654,27.187l1.435-1.435-13.2-13.2a1.013,1.013,0,0,0-.471-.267l-3.64-.914L2.326,5.323,5.29,2.359l6.056,3.46.914,3.64a1.016,1.016,0,0,0,.267.472l13.2,13.2,1.435-1.435L14.164,8.7l-.947-3.786a1.012,1.012,0,0,0-.481-.635L5.631.217A1.015,1.015,0,0,0,4.413.381L.353,4.441A1.014,1.014,0,0,0,.179,5.661Z" transform="translate(-0.045 -0.076)" fill="#0096b6"/>
            <rect id="Rectangle_882" data-name="Rectangle 882" width="31.58" height="2.03" transform="translate(18.568 40.9) rotate(-45)" fill="#0096b6"/>
            <path id="Path_6391" data-name="Path 6391" d="M61.258,422.381a1.015,1.015,0,0,0-.87-.492H54.3a1.015,1.015,0,0,0-.87.492l-3.045,5.075a1.017,1.017,0,0,0,0,1.045l3.045,5.075a1.015,1.015,0,0,0,.87.492h6.09a1.015,1.015,0,0,0,.87-.492L64.3,428.5a1.017,1.017,0,0,0,0-1.045Zm-1.444,9.658H54.872l-2.436-4.06,2.436-4.06h4.941l2.436,4.06Z" transform="translate(-45.162 -379.256)" fill="#0096b6"/>
            <path id="Path_6392" data-name="Path 6392" d="M48.733,24.363A12.14,12.14,0,0,0,60.539,9.239a1.015,1.015,0,0,0-1.7-.473L52.519,15.08,47.505,13.41,45.834,8.4l6.319-6.32a1.016,1.016,0,0,0-.476-1.7A12.143,12.143,0,0,0,36.552,12.182,11.925,11.925,0,0,0,36.8,14.56L14.57,36.79a12,12,0,0,0-2.378-.247,12.18,12.18,0,1,0,12.18,12.18,11.926,11.926,0,0,0-.247-2.378l5.322-5.322,2.327,2.327a1.016,1.016,0,0,0,1.435,0l.507-.507a1.138,1.138,0,0,1,1.612,1.608l0,0-.507.507a1.016,1.016,0,0,0,0,1.435L46.928,58.5A8.192,8.192,0,1,0,58.566,46.972l-.053-.053L46.405,34.811a1.016,1.016,0,0,0-1.435,0l-.507.507A1.138,1.138,0,0,1,42.85,33.71l0,0,.507-.507a1.016,1.016,0,0,0,0-1.435l-2.327-2.327,5.322-5.322A12,12,0,0,0,48.733,24.363Zm3.988,34.511a6.151,6.151,0,0,1-2.159-.394l7.927-7.927a6.155,6.155,0,0,1-5.768,8.321Zm-11.5-26.381a3.168,3.168,0,0,0,4.466,4.46l11.391,11.4c.124.124.24.255.351.388L48.751,57.42c-.133-.112-.264-.227-.388-.351l-11.4-11.4a3.168,3.168,0,0,0-4.466-4.46l-1.624-1.624L39.6,30.873Zm4.1-10.209L22.294,45.306a1.015,1.015,0,0,0-.268.964,10.219,10.219,0,1,1-7.381-7.381,1.025,1.025,0,0,0,.964-.268L38.63,15.6a1.017,1.017,0,0,0,.267-.964A10.1,10.1,0,0,1,49.309,2.048L43.955,7.4a1.014,1.014,0,0,0-.246,1.038l2.03,6.09a1.013,1.013,0,0,0,.642.641l6.09,2.03a1.014,1.014,0,0,0,1.038-.245l5.354-5.354c.012.194.018.386.018.577a10.1,10.1,0,0,1-12.6,9.835,1.017,1.017,0,0,0-.964.267Z" transform="translate(-0.011 0)" fill="#0096b6"/>
            <rect id="Rectangle_883" data-name="Rectangle 883" width="2.03" height="14.354" transform="translate(40.897 42.337) rotate(-45)" fill="#0096b6"/>
          </g>
        </g>
      </g>
    </g>
  </g>
</svg>
