<svg xmlns="http://www.w3.org/2000/svg" width="70" height="65" viewBox="0 0 70 65">
  <g id="mission-doc-serv-icon" transform="translate(-1604 -695.583)">
    <rect id="icon-base" width="70" height="65" transform="translate(1604 695.583)" fill="none"/>
    <g id="Group_2422" data-name="Group 2422" transform="translate(1606 694.583)">
      <path id="Path_6401" data-name="Path 6401" d="M55.457,57.788V6.132a4.132,4.132,0,0,0-8.265,0V8.2H10V59.854a4.132,4.132,0,0,0,8.265,0V57.788Z" transform="translate(0.298 0.033)" fill="#c6eaf2"/>
      <path id="Path_6402" data-name="Path 6402" d="M10,50.869a32.465,32.465,0,0,0,6.715.706c19.115,0,34.609-16.652,34.609-37.192A39.648,39.648,0,0,0,49.489,2.434a4.118,4.118,0,0,0-2.3,3.684V8.184H10Z" transform="translate(0.298 0.047)" fill="#ddf3f8"/>
      <path id="Path_6403" data-name="Path 6403" d="M51.589,2H6.132A4.133,4.133,0,0,0,2,6.132V8.2H47.457V6.132A4.133,4.133,0,0,1,51.589,2" transform="translate(0.033 0.033)" fill="#99d5e2"/>
      <path id="Path_6404" data-name="Path 6404" d="M14,62.2H59.457a4.133,4.133,0,0,0,4.132-4.132V56H18.132v2.066A4.133,4.133,0,0,1,14,62.2" transform="translate(0.43 1.821)" fill="#7bcbdc"/>
      <path id="Path_6405" data-name="Path 6405" d="M19,40h8.265v4.132H19Z" transform="translate(0.596 1.291)" fill="#99d5e2"/>
      <path id="Path_6406" data-name="Path 6406" d="M29,22H41.4v8.265H29Z" transform="translate(0.927 0.695)" fill="#99d5e2"/>
      <path id="Path_6407" data-name="Path 6407" d="M29,30.2V24h6.2Z" transform="translate(0.927 0.762)" fill="#fff"/>
      <path id="Path_6408" data-name="Path 6408" d="M23,16H35.4v8.265H23Z" transform="translate(0.728 0.497)" fill="#99d5e2"/>
      <path id="Path_6409" data-name="Path 6409" d="M59.622,64.821H14.166A5.171,5.171,0,0,1,9,59.655V8h2.066V59.655a3.1,3.1,0,1,0,6.2,0V57.589A1.033,1.033,0,0,1,18.3,56.556H63.755a1.033,1.033,0,0,1,1.033,1.033v2.066A5.171,5.171,0,0,1,59.622,64.821ZM18.3,62.755H59.622a3.1,3.1,0,0,0,3.1-3.1V58.622H19.331v1.033a5.145,5.145,0,0,1-1.035,3.1Z" transform="translate(0.265 0.232)" fill="#0096b6"/>
      <path id="Path_6410" data-name="Path 6410" d="M56.788,57.821H54.722V6.166a3.1,3.1,0,0,0-6.2,0V8.232A1.033,1.033,0,0,1,47.49,9.265H2.033A1.033,1.033,0,0,1,1,8.232V6.166A5.171,5.171,0,0,1,6.166,1H51.622a5.171,5.171,0,0,1,5.166,5.166ZM3.066,7.2H46.457V6.166a5.145,5.145,0,0,1,1.035-3.1H6.166a3.1,3.1,0,0,0-3.1,3.1Z" fill="#0096b6"/>
      <path id="Path_6411" data-name="Path 6411" d="M47.49,9.265H2.033A1.033,1.033,0,0,1,1,8.232V6.166A5.171,5.171,0,0,1,6.166,1H51.622a1.033,1.033,0,0,1,0,2.066,3.1,3.1,0,0,0-3.1,3.1V8.232A1.033,1.033,0,0,1,47.49,9.265ZM3.066,7.2H46.457V6.166a5.145,5.145,0,0,1,1.035-3.1H6.166a3.1,3.1,0,0,0-3.1,3.1Z" fill="#0096b6"/>
      <path id="Path_6412" data-name="Path 6412" d="M33,51H51.6v2.066H33Z" transform="translate(1.059 1.655)" fill="#0096b6"/>
      <path id="Path_6413" data-name="Path 6413" d="M33,47H51.6v2.066H33Z" transform="translate(1.059 1.523)" fill="#0096b6"/>
      <path id="Path_6414" data-name="Path 6414" d="M33,43H51.6v2.066H33Z" transform="translate(1.059 1.391)" fill="#0096b6"/>
      <path id="Path_6415" data-name="Path 6415" d="M35.43,25.331h-12.4A1.033,1.033,0,0,1,22,24.3V16.033A1.033,1.033,0,0,1,23.033,15h12.4a1.033,1.033,0,0,1,1.033,1.033V24.3A1.033,1.033,0,0,1,35.43,25.331ZM24.066,23.265H34.4v-6.2H24.066Z" transform="translate(0.695 0.464)" fill="#0096b6"/>
      <path id="Path_6416" data-name="Path 6416" d="M41.43,31.331h-12.4a1.033,1.033,0,0,1-.73-1.764l6.2-6.2,1.461,1.461-4.435,4.435H40.4v-6.2H35.232V21h6.2a1.033,1.033,0,0,1,1.033,1.033V30.3A1.033,1.033,0,0,1,41.43,31.331Z" transform="translate(0.894 0.662)" fill="#0096b6"/>
      <path id="Path_6417" data-name="Path 6417" d="M28,24h2.066v6.2H28Z" transform="translate(0.894 0.762)" fill="#0096b6"/>
      <path id="Path_6418" data-name="Path 6418" d="M22,13h2.066V40.894H22Z" transform="translate(0.695 0.397)" fill="#0096b6"/>
      <path id="Path_6419" data-name="Path 6419" d="M27.3,45.2H19.033A1.033,1.033,0,0,1,18,44.166V40.033A1.033,1.033,0,0,1,19.033,39H27.3a1.033,1.033,0,0,1,1.033,1.033v4.132A1.033,1.033,0,0,1,27.3,45.2Zm-7.232-2.066h6.2V41.066h-6.2Z" transform="translate(0.563 1.258)" fill="#0096b6"/>
    </g>
  </g>
</svg>
