<svg xmlns="http://www.w3.org/2000/svg" width="84.458" height="54.5" viewBox="0 0 84.458 54.5">
  <g id="next-cloud" transform="translate(-841.517 642.162)">
    <path id="Path_2973" data-name="Path 2973" d="M909.487-623.788a27.256,27.256,0,0,0-25.766-18.374,27.259,27.259,0,0,0-27.1,24.383h-.045a15.058,15.058,0,0,0-15.059,15.059,15.058,15.058,0,0,0,15.059,15.059h51.3a18.1,18.1,0,0,0,18.1-18.1A18.1,18.1,0,0,0,909.487-623.788Zm-25.742,26.667a17.79,17.79,0,0,1-17.789-17.79A17.789,17.789,0,0,1,883.746-632.7a17.79,17.79,0,0,1,17.79,17.789A17.79,17.79,0,0,1,883.746-597.121Z" transform="translate(0 0)" fill="#00a3df"/>
    <g id="Group_1527" data-name="Group 1527" transform="translate(871.558 -628.038)">
      <g id="Group_1525" data-name="Group 1525" transform="translate(0 0.002)">
        <path id="Path_2974" data-name="Path 2974" d="M922.145-603.514a28.706,28.706,0,0,0-2.651,3.53c-.27.418-.521.844-.765,1.271s-.492.853-.719,1.294a28.748,28.748,0,0,0-1.734,4.064,30.14,30.14,0,0,0-1.365,5.909l7.814-4.5a24.311,24.311,0,0,1,1.612-3.521h0v-.005a24.183,24.183,0,0,1,2.242-3.147v-9.03a30.163,30.163,0,0,0-4.438,4.138" transform="translate(-914.911 607.652)" fill="#00a3df"/>
      </g>
      <path id="Path_2975" data-name="Path 2975" d="M945.466-598.626a24.021,24.021,0,0,1,2.247,3.148l0,.005h0a24.305,24.305,0,0,1,1.611,3.521l7.815,4.5a30.124,30.124,0,0,0-1.365-5.909,28.694,28.694,0,0,0-1.734-4.064c-.23-.441-.473-.872-.719-1.294s-.5-.852-.764-1.271a28.765,28.765,0,0,0-2.651-3.53,30.225,30.225,0,0,0-4.443-4.139Z" transform="translate(-932.959 607.656)" fill="#00a3df"/>
      <g id="Group_1526" data-name="Group 1526" transform="translate(0.446 16.395)">
        <path id="Path_2976" data-name="Path 2976" d="M939.286-559.353l.807.049-.322-1.31Z" transform="translate(-929.754 563.473)" fill="#00a3df"/>
        <path id="Path_2977" data-name="Path 2977" d="M953.729-561.815c-.506.079-.77.6-.67,1.256s.543,1.026,1.042.949c.656-.1.758-.749.681-1.258C954.689-561.495,954.262-561.893,953.729-561.815Z" transform="translate(-937.878 564.189)" fill="#00a3df"/>
        <path id="Path_2978" data-name="Path 2978" d="M931.525-567.6a24.038,24.038,0,0,1-3.852.373h-.009a24.305,24.305,0,0,1-3.854-.362L916-563.056a30.316,30.316,0,0,0,5.813,1.768,29.235,29.235,0,0,0,4.382.517c.5.021.993.027,1.482.021s.985,0,1.481-.027a28.978,28.978,0,0,0,4.382-.539,30.207,30.207,0,0,0,5.8-1.786Zm-8.69,2.763c.126.176.752.428,1.026.81a.812.812,0,0,1,.142.663,1.042,1.042,0,0,1-1.317.816,1.573,1.573,0,0,1-1.008-.541l.37-.409a1.38,1.38,0,0,0,.693.38c.308.05.532-.068.571-.3a.326.326,0,0,0-.052-.238c-.164-.232-.717-.4-.993-.789a.824.824,0,0,1-.15-.641.989.989,0,0,1,1.253-.754,1.474,1.474,0,0,1,.939.511l-.379.381a1.229,1.229,0,0,0-.609-.346c-.279-.046-.5.053-.535.254A.239.239,0,0,0,922.835-564.839Zm3.841,2.625-.195-.683-1.151-.073-.275.652-.684-.04,1.356-3.128.68.042.971,3.272Zm2.216.057a1.58,1.58,0,0,1-1.1-.33l.281-.471a1.4,1.4,0,0,0,.757.233c.311-.013.507-.177.5-.411a.339.339,0,0,0-.1-.222c-.207-.194-.784-.249-1.133-.572a.828.828,0,0,1-.277-.6.988.988,0,0,1,1.072-.991,1.48,1.48,0,0,1,1.022.31l-.29.45a1.234,1.234,0,0,0-.67-.216c-.283.01-.48.153-.469.354a.241.241,0,0,0,.086.191c.161.147.824.266,1.167.585a.8.8,0,0,1,.275.621A1.04,1.04,0,0,1,928.892-562.158Zm3.407-.3a1.562,1.562,0,0,1-1.806-1.454,1.53,1.53,0,0,1,1.3-1.869,1.528,1.528,0,0,1,1.792,1.4A1.552,1.552,0,0,1,932.3-562.456Z" transform="translate(-916 567.601)" fill="#00a3df"/>
      </g>
    </g>
  </g>
</svg>
