<svg xmlns="http://www.w3.org/2000/svg" width="169.612" height="21.261" viewBox="0 0 169.612 21.261">
  <g id="oracle" transform="translate(-715.06 -719.668)">
    <g id="g16337" transform="translate(715.06 719.668)">
      <path id="path16197" d="M778.431,733.5h9.7L783,724.307l-9.414,16.622H769.3l11.45-19.967A2.636,2.636,0,0,1,783,719.668a2.586,2.586,0,0,1,2.2,1.261l11.494,20h-4.283l-2.021-3.714h-9.821Zm44.5,3.715V719.87H819.3v19.042a2.11,2.11,0,0,0,.527,1.412,1.771,1.771,0,0,0,1.329.605h16.578l2.143-3.714Zm-60.146-3.109c3.53,0,6.4-3.177,6.4-7.109s-2.866-7.126-6.4-7.126h-15.9v21.059h3.634V723.584h12.029a3.434,3.434,0,0,1,0,6.824l-10.249-.017,10.852,10.538h5.28l-7.3-6.824Zm-38.276,6.824c-5.218,0-9.452-4.706-9.452-10.521s4.234-10.538,9.452-10.538H735.5c5.219,0,9.451,4.723,9.451,10.538s-4.231,10.521-9.451,10.521Zm10.742-3.714c3.381,0,6.119-3.042,6.119-6.807s-2.738-6.824-6.119-6.824h-10.5c-3.379,0-6.119,3.059-6.119,6.824s2.739,6.807,6.119,6.807Zm69.032,3.714c-5.218,0-9.458-4.706-9.458-10.521s4.24-10.538,9.458-10.538h13.049l-2.126,3.714H804.53c-3.381,0-6.125,3.059-6.125,6.824s2.744,6.807,6.125,6.807h13.109l-2.143,3.714Zm44.457-3.714a6.25,6.25,0,0,1-5.884-4.958H858.4l2.143-3.714H842.859a6.268,6.268,0,0,1,5.884-4.958h10.666l2.157-3.714H848.5c-5.221,0-9.458,4.723-9.458,10.538s4.238,10.521,9.458,10.521H859.71l2.143-3.714H848.743" transform="translate(-715.06 -719.668)" fill="#f80000"/>
      <path id="path16199" d="M1337.23,728.836a6.985,6.985,0,1,1,6.95,7.017A6.929,6.929,0,0,1,1337.23,728.836Zm6.95,8.977a8.915,8.915,0,1,0-8.85-8.914A8.9,8.9,0,0,0,1344.18,737.813Zm-.82-14.225a6.4,6.4,0,0,1,2.59.316,2.786,2.786,0,0,1,1.96,2.782,2.462,2.462,0,0,1-.13.822,2.534,2.534,0,0,1-1.2,1.707c-.12.063-.19.126-.44.253l2.28,4.109h-2.22l-2.02-3.793h-1.39v3.793h-1.96v-9.989Zm.69,4.552c.64-.063,1.27-.063,1.65-.632a1.335,1.335,0,0,0,.25-.885,1.421,1.421,0,0,0-.76-1.2,4.533,4.533,0,0,0-1.83-.19h-.57v2.908h1.26" transform="translate(-1183.478 -719.668)" fill="#f80000"/>
    </g>
  </g>
</svg>
