<svg xmlns="http://www.w3.org/2000/svg" width="43.731" height="38.879" viewBox="0 0 43.731 38.879">
  <g id="orders-icon" transform="translate(0 0.075)">
    <path id="Path_3084" data-name="Path 3084" d="M30.544,27.927l2.43-2.43a.61.61,0,0,1,1.04.433V36.969a3.645,3.645,0,0,1-3.644,3.644H3.644A3.645,3.645,0,0,1,0,36.969V10.244A3.645,3.645,0,0,1,3.644,6.6H24.409a.611.611,0,0,1,.433,1.04l-2.43,2.43a.6.6,0,0,1-.433.175H3.644V36.969H30.369V28.352A.6.6,0,0,1,30.544,27.927Z" transform="translate(0 -1.81)" fill="#9297a1"/>
    <path id="Path_6263" data-name="Path 6263" d="M46.954,10.8,27.017,30.733l-6.863.759a3.137,3.137,0,0,1-3.462-3.462l.759-6.863L37.388,1.229a4.431,4.431,0,0,1,6.279,0l3.28,3.28a4.447,4.447,0,0,1,.008,6.286Zm-7.5,2.346L35.042,8.73,20.935,22.844,20.381,27.8l4.958-.554Zm4.92-6.051-3.28-3.28a.793.793,0,0,0-1.124,0L37.623,6.156l4.411,4.411L44.38,8.222A.809.809,0,0,0,44.373,7.09Z" transform="translate(-4.521)" fill="#ffa75e"/>
  </g>
</svg>
