<svg xmlns="http://www.w3.org/2000/svg" width="53" height="60.571" viewBox="0 0 53 60.571">
  <g id="pdf-icon" transform="translate(-32)">
    <path id="Path_6332" data-name="Path 6332" d="M99.786,0A3.8,3.8,0,0,0,96,3.786v53a3.8,3.8,0,0,0,3.786,3.786h37.857a3.8,3.8,0,0,0,3.786-3.786V15.143L126.286,0Z" transform="translate(-56.429)" fill="#e2e5e7"/>
    <path id="Path_6333" data-name="Path 6333" d="M355.786,15.143h11.357L352,0V11.357A3.8,3.8,0,0,0,355.786,15.143Z" transform="translate(-282.143)" fill="#b0b7bd"/>
    <path id="Path_6334" data-name="Path 6334" d="M395.357,139.357,384,128h11.357Z" transform="translate(-310.357 -112.857)" fill="#cad1d8"/>
    <path id="Path_6335" data-name="Path 6335" d="M77.428,260.821a1.9,1.9,0,0,1-1.893,1.893H33.893A1.9,1.9,0,0,1,32,260.821V241.893A1.9,1.9,0,0,1,33.893,240H75.535a1.9,1.9,0,0,1,1.893,1.893Z" transform="translate(0 -211.607)" fill="#f15642"/>
    <g id="Group_2396" data-name="Group 2396" transform="translate(40.251 34.819)">
      <path id="Path_6336" data-name="Path 6336" d="M101.744,295.365a1.041,1.041,0,0,1,1.028-1.045h3.5a3.784,3.784,0,0,1,0,7.568h-2.527v2a.95.95,0,0,1-.969,1.043,1.02,1.02,0,0,1-1.028-1.043Zm2,.861V300h2.527a1.887,1.887,0,0,0,0-3.771Z" transform="translate(-101.744 -294.32)" fill="#fff"/>
      <path id="Path_6337" data-name="Path 6337" d="M188.869,305.945a.947.947,0,0,1-1.045-.937v-8.6a1.03,1.03,0,0,1,1.045-.939h3.466c6.916,0,6.765,10.473.136,10.473Zm.954-8.626v6.78h2.512c4.087,0,4.268-6.78,0-6.78h-2.512Z" transform="translate(-177.64 -295.336)" fill="#fff"/>
      <path id="Path_6338" data-name="Path 6338" d="M289.116,297.426v2.406h3.86a1.17,1.17,0,0,1,1.09,1.073,1.052,1.052,0,0,1-1.09.909h-3.86v3.178a.9.9,0,0,1-.907.937.961.961,0,0,1-1.073-.937v-8.6a.957.957,0,0,1,1.073-.939h5.313a.944.944,0,0,1,1.06.939,1.046,1.046,0,0,1-1.06,1.03h-4.407Z" transform="translate(-265.204 -295.322)" fill="#fff"/>
    </g>
    <path id="Path_6339" data-name="Path 6339" d="M131.964,417.893H96v1.893h35.964a1.9,1.9,0,0,0,1.893-1.893V416A1.9,1.9,0,0,1,131.964,417.893Z" transform="translate(-56.429 -366.786)" fill="#cad1d8"/>
  </g>
</svg>
