<svg xmlns="http://www.w3.org/2000/svg" width="53" height="60.571" viewBox="0 0 53 60.571">
  <g id="ppt-icon" transform="translate(-32)">
    <path id="Path_6365" data-name="Path 6365" d="M99.786,0A3.8,3.8,0,0,0,96,3.786v53a3.8,3.8,0,0,0,3.786,3.786h37.857a3.8,3.8,0,0,0,3.786-3.786V15.143L126.286,0Z" transform="translate(-56.429)" fill="#e2e5e7"/>
    <path id="Path_6366" data-name="Path 6366" d="M355.786,15.143h11.357L352,0V11.357A3.8,3.8,0,0,0,355.786,15.143Z" transform="translate(-282.143)" fill="#b0b7bd"/>
    <path id="Path_6367" data-name="Path 6367" d="M395.357,139.357,384,128h11.357Z" transform="translate(-310.357 -112.857)" fill="#cad1d8"/>
    <path id="Path_6368" data-name="Path 6368" d="M77.429,260.821a1.9,1.9,0,0,1-1.893,1.893H33.893A1.9,1.9,0,0,1,32,260.821V241.893A1.9,1.9,0,0,1,33.893,240H75.536a1.9,1.9,0,0,1,1.893,1.893Z" transform="translate(0 -211.607)" fill="#f15642"/>
    <g id="Group_2406" data-name="Group 2406" transform="translate(40.69 34.819)">
      <path id="Path_6369" data-name="Path 6369" d="M105.456,295.365a1.041,1.041,0,0,1,1.028-1.045h3.5a3.784,3.784,0,0,1,0,7.568h-2.527v2a.949.949,0,0,1-.967,1.043,1.02,1.02,0,0,1-1.028-1.043v-8.522Zm2,.861V300h2.527a1.887,1.887,0,0,0,0-3.771Z" transform="translate(-105.456 -294.32)" fill="#fff"/>
      <path id="Path_6370" data-name="Path 6370" d="M191.616,295.365a1.042,1.042,0,0,1,1.03-1.045h3.5a3.784,3.784,0,0,1,0,7.568h-2.527v2a.95.95,0,0,1-.969,1.043,1.021,1.021,0,0,1-1.03-1.043Zm2,.861V300h2.527a1.887,1.887,0,0,0,0-3.771Z" transform="translate(-181.423 -294.32)" fill="#fff"/>
      <path id="Path_6371" data-name="Path 6371" d="M274.594,297.04h-2.646a.968.968,0,1,1,0-1.936H279.1a.969.969,0,1,1,0,1.936h-2.512v7.643a1,1,0,0,1-2,0Z" transform="translate(-251.38 -295.011)" fill="#fff"/>
    </g>
    <path id="Path_6372" data-name="Path 6372" d="M131.964,417.893H96v1.893h35.964a1.9,1.9,0,0,0,1.893-1.893V416A1.9,1.9,0,0,1,131.964,417.893Z" transform="translate(-56.429 -366.786)" fill="#cad1d8"/>
  </g>
</svg>
