<svg id="quote-left" xmlns="http://www.w3.org/2000/svg" width="30" height="26.25" viewBox="0 0 30 26.25">
  <path id="Path_6331" data-name="Path 6331" d="M2.812,58.25h7.5a2.813,2.813,0,0,0,2.813-2.812v-7.5a2.813,2.813,0,0,0-2.812-2.812H5.625v-3.75a3.753,3.753,0,0,1,3.75-3.75h.469a1.4,1.4,0,0,0,1.406-1.406V33.406A1.4,1.4,0,0,0,9.844,32H9.375A9.372,9.372,0,0,0,0,41.375V55.437A2.813,2.813,0,0,0,2.812,58.25Zm16.875,0h7.5A2.813,2.813,0,0,0,30,55.437v-7.5a2.813,2.813,0,0,0-2.812-2.812H22.5v-3.75a3.753,3.753,0,0,1,3.75-3.75h.469a1.4,1.4,0,0,0,1.406-1.406V33.406A1.4,1.4,0,0,0,26.719,32H26.25a9.372,9.372,0,0,0-9.375,9.375V55.437A2.813,2.813,0,0,0,19.688,58.25Z" transform="translate(0 -32)" fill="#0096b6"/>
</svg>
