<svg id="quote-right" xmlns="http://www.w3.org/2000/svg" width="30" height="26.25" viewBox="0 0 30 26.25">
  <path id="Path_6331" data-name="Path 6331" d="M27.188,32h-7.5a2.813,2.813,0,0,0-2.812,2.812v7.5a2.813,2.813,0,0,0,2.812,2.813h4.688v3.75a3.753,3.753,0,0,1-3.75,3.75h-.469a1.4,1.4,0,0,0-1.406,1.406v2.813a1.4,1.4,0,0,0,1.406,1.406h.469A9.372,9.372,0,0,0,30,48.875V34.812A2.813,2.813,0,0,0,27.188,32ZM10.313,32h-7.5A2.813,2.813,0,0,0,0,34.812v7.5a2.813,2.813,0,0,0,2.813,2.813H7.5v3.75a3.753,3.753,0,0,1-3.75,3.75H3.281a1.4,1.4,0,0,0-1.406,1.406v2.813A1.4,1.4,0,0,0,3.281,58.25H3.75a9.372,9.372,0,0,0,9.375-9.375V34.812A2.813,2.813,0,0,0,10.313,32Z" transform="translate(0 -32)" fill="#0096b6"/>
</svg>
