<svg xmlns="http://www.w3.org/2000/svg" width="55" height="55" viewBox="0 0 55 55">
  <g id="rel-support-icon" transform="translate(0)">
    <path id="Path_6293" data-name="Path 6293" d="M50.7,24.932V23.2A23.2,23.2,0,0,0,11.093,6.8,23.051,23.051,0,0,0,4.3,23.2v1.729A5.918,5.918,0,0,0,0,30.615v8.594a5.915,5.915,0,0,0,5.908,5.908h6.445a1.611,1.611,0,0,0,1.611-1.611V23.2a13.535,13.535,0,1,1,27.07,0v20.3a1.611,1.611,0,0,0,1.611,1.611h2.686v1.826a1.613,1.613,0,0,1-1.611,1.611H33.131a4.842,4.842,0,0,0-4.557-3.223H26.426a4.834,4.834,0,1,0,0,9.668h2.148a4.842,4.842,0,0,0,4.557-3.223h10.59a4.839,4.839,0,0,0,4.834-4.834V45.117h.537A5.915,5.915,0,0,0,55,39.209V30.615a5.918,5.918,0,0,0-4.3-5.683ZM28.574,51.777H26.426a1.611,1.611,0,1,1,0-3.223h2.148a1.611,1.611,0,0,1,0,3.223ZM10.742,41.895H5.908a2.689,2.689,0,0,1-2.686-2.686V30.615A2.689,2.689,0,0,1,5.908,27.93h4.834ZM27.5,6.445A16.777,16.777,0,0,0,10.742,23.2v1.5H7.52V23.2a19.98,19.98,0,0,1,39.961,0v1.5H44.258V23.2A16.777,16.777,0,0,0,27.5,6.445ZM51.777,39.209a2.689,2.689,0,0,1-2.686,2.686H44.258V27.93h4.834a2.689,2.689,0,0,1,2.686,2.686Z" fill="#228b5e"/>
    <path id="Path_6294" data-name="Path 6294" d="M174.47,201.111a1.611,1.611,0,0,0,2.643-1.238v-3.76h.537a3.764,3.764,0,0,0,3.76-3.76V183.76a3.764,3.764,0,0,0-3.76-3.76H164.76a3.764,3.764,0,0,0-3.76,3.76v8.594a3.764,3.764,0,0,0,3.76,3.76h3.713Zm-10.248-8.757V183.76a.538.538,0,0,1,.537-.537H177.65a.538.538,0,0,1,.537.537v8.594a.538.538,0,0,1-.537.537H175.5a1.611,1.611,0,0,0-1.611,1.611v1.931l-3.8-3.169a1.611,1.611,0,0,0-1.032-.373h-4.3A.538.538,0,0,1,164.223,192.354Z" transform="translate(-143.705 -160.664)" fill="#80bbae"/>
    <path id="Path_6295" data-name="Path 6295" d="M226.908,243.223a1.611,1.611,0,1,0,0-3.223h-4.3a1.611,1.611,0,1,0,0,3.223Z" transform="translate(-197.26 -214.219)" fill="#80bbae"/>
  </g>
</svg>
