<svg xmlns="http://www.w3.org/2000/svg" width="54" height="54" viewBox="0 0 54 54">
  <g id="rel-mail-icon" transform="translate(0.5 0.5)">
    <path id="Path_6296" data-name="Path 6296" d="M49.118,3.83H43.684V.776A.776.776,0,0,0,42.907,0H10.093a.776.776,0,0,0-.776.776V3.83H3.882A3.886,3.886,0,0,0,0,7.712v34.16a3.886,3.886,0,0,0,3.882,3.882H20.45l-.934,3.27A3.589,3.589,0,0,1,16.3,51.447H10.455a.776.776,0,1,0,0,1.553h32.09a.776.776,0,1,0,0-1.553H36.7a3.589,3.589,0,0,1-3.212-2.423l-.934-3.27H49.118A3.886,3.886,0,0,0,53,41.872V7.712A3.886,3.886,0,0,0,49.118,3.83Zm-38.249.832,9.008,7.345-9.008,7.345Zm.864,15.99,9.372-7.643,1.96,1.6a5.454,5.454,0,0,0,6.869,0l1.96-1.6,9.374,7.644a2.319,2.319,0,0,1,.862,1.809H10.869A2.32,2.32,0,0,1,11.733,20.652Zm30.4-1.3-9.008-7.345,9.008-7.346Zm0-17.8a2.32,2.32,0,0,1-.864,1.811L28.953,13.4a3.9,3.9,0,0,1-4.906,0L11.732,3.362a2.319,2.319,0,0,1-.862-1.809ZM3.882,5.383H9.316V23.239a.776.776,0,0,0,.776.776H42.907a.776.776,0,0,0,.776-.776V5.383h5.435a2.332,2.332,0,0,1,2.329,2.329V34.885H1.553V7.712A2.332,2.332,0,0,1,3.882,5.383ZM31.991,49.451a4.737,4.737,0,0,0,1.192,2H19.817a4.737,4.737,0,0,0,1.192-2l1.056-3.7h8.87ZM49.118,44.2H3.882a2.332,2.332,0,0,1-2.329-2.329V36.438H51.447v5.435A2.332,2.332,0,0,1,49.118,44.2Z" fill="#0096b6" stroke="#0096b6" stroke-width="1"/>
    <circle id="Ellipse_113" data-name="Ellipse 113" cx="2.5" cy="2.5" r="2.5" transform="translate(24 37.771)" fill="#78cbdc"/>
  </g>
</svg>
