<svg xmlns="http://www.w3.org/2000/svg" width="70" height="65" viewBox="0 0 70 65">
  <g id="salary-serv-icon" transform="translate(-1604 -695.583)">
    <rect id="icon-base" width="70" height="65" transform="translate(1604 695.583)" fill="none"/>
    <g id="Group_2468" data-name="Group 2468" transform="translate(1608.999 685.911)">
      <path id="Path_6486" data-name="Path 6486" d="M62.309,29.721,41.375,14.488a14.443,14.443,0,0,0-17,0L3.442,29.723a7.114,7.114,0,0,0-2.776,4.5,1.4,1.4,0,0,0,.607,1.4l23.715,15.82a14.221,14.221,0,0,0,15.775,0l23.712-15.82a1.4,1.4,0,0,0,.607-1.4A7.123,7.123,0,0,0,62.309,29.721Z" transform="translate(-0.561 -0.044)" fill="#71c3d5"/>
      <path id="Path_6487" data-name="Path 6487" d="M65.412,52.342H110.37a1.405,1.405,0,0,1,1.4,1.4v28.1a1.405,1.405,0,0,1-1.4,1.4H65.412a1.405,1.405,0,0,1-1.4-1.4v-28.1A1.405,1.405,0,0,1,65.412,52.342Z" transform="translate(-55.576 -35.313)" fill="#aeeef3"/>
      <g id="Ellipse_120" data-name="Ellipse 120" transform="translate(21 21.672)" fill="#e7fbf6" stroke="#0096b6" stroke-width="2">
        <circle cx="11" cy="11" r="11" stroke="none"/>
        <circle cx="11" cy="11" r="10" fill="none"/>
      </g>
      <path id="Path_6492" data-name="Path 6492" d="M64.519,174.765a1.405,1.405,0,0,0-2.161-.91l-23.71,15.817a11.276,11.276,0,0,1-12.664,0L2.272,173.855a1.4,1.4,0,0,0-2.161.91,7.042,7.042,0,0,0-.11,1.27V206.8a6.909,6.909,0,0,0,6.772,7.025H57.856a6.909,6.909,0,0,0,6.772-7.025V176.035A7.043,7.043,0,0,0,64.519,174.765Z" transform="translate(0 -140.616)" fill="#c1e6ee"/>
      <path id="Path_6493" data-name="Path 6493" d="M57.848,162.451H6.782A6.912,6.912,0,0,1,0,155.426V124.644a7.117,7.117,0,0,1,2.883-5.752L8.65,114.7a1.405,1.405,0,1,1,1.652,2.273l-5.766,4.192a4.3,4.3,0,0,0-1.725,3.479v30.782a4.1,4.1,0,0,0,3.97,4.215H57.848a4.1,4.1,0,0,0,3.97-4.215V124.644a4.3,4.3,0,0,0-1.725-3.479l-5.71-4.15a1.405,1.405,0,1,1,1.652-2.273l5.707,4.15a7.117,7.117,0,0,1,2.886,5.752v30.782A6.912,6.912,0,0,1,57.848,162.451Z" transform="translate(0 -89.224)" fill="#0096b6"/>
      <path id="Path_6494" data-name="Path 6494" d="M148.253,19.831a1.4,1.4,0,0,1-.826-2.529l3.909-2.855a14.412,14.412,0,0,1,17,0l3.864,2.81a1.405,1.405,0,0,1-1.652,2.273l-3.864-2.81a11.622,11.622,0,0,0-13.7,0l-3.909,2.841A1.4,1.4,0,0,1,148.253,19.831Z" transform="translate(-127.521)" fill="#0096b6"/>
      <path id="Path_6495" data-name="Path 6495" d="M69.376,218.762a14.2,14.2,0,0,1-7.887-2.4l-18.18-12.119a1.405,1.405,0,1,1,1.559-2.338l18.183,12.119a11.377,11.377,0,0,0,12.644,0l18.183-12.119a1.405,1.405,0,0,1,1.559,2.338L77.254,216.366A14.2,14.2,0,0,1,69.376,218.762Z" transform="translate(-37.061 -164.974)" fill="#0096b6"/>
      <path id="Path_6496" data-name="Path 6496" d="M110.37,76.226a1.405,1.405,0,0,1-1.4-1.4V55.152H66.817V74.821a1.4,1.4,0,0,1-2.81,0V53.747a1.405,1.405,0,0,1,1.4-1.4H110.37a1.405,1.405,0,0,1,1.4,1.4V74.821A1.4,1.4,0,0,1,110.37,76.226Z" transform="translate(-55.576 -35.313)" fill="#0096b6"/>
      <path id="Path_6497" data-name="Path 6497" d="M195.465,124.679c-1.879,0-3.346-.973-3.488-2.316a.827.827,0,0,1,.6-.944.738.738,0,0,1,.782.73c.027.246.793.844,2.1.844,1.356,0,2.1-.634,2.1-.844,0,0-.024-.53-2.043-.828l-.147-.024c-1.021-.152-3.4-.506-3.4-2.531,0-1.442,1.5-2.531,3.5-2.531,1.879,0,3.346.973,3.488,2.315a.827.827,0,0,1-.6.944.738.738,0,0,1-.782-.73c-.027-.246-.793-.844-2.1-.844-1.356,0-2.1.634-2.1.844,0,0,.024.53,2.05.828l.14.024c1.021.152,3.4.506,3.4,2.531C198.961,123.592,197.457,124.679,195.465,124.679Z" transform="translate(-167.223 -87.981)" fill="#0096b6"/>
      <path id="Path_6499" data-name="Path 6499" d="M163.963,268.485H140.079a1.4,1.4,0,0,1,0-2.81h23.884a1.4,1.4,0,0,1,0,2.81Z" transform="translate(-120.409 -220.547)" fill="#0096b6"/>
      <path id="Path_6502" data-name="Path 6502" d="M34.177,32.586c.953-3.386-.693-5.78.239-6.861s3.77-1.206,4.246.674-2.535,2.464-2.535,2.464a7.053,7.053,0,0,0,2.21,3.582" transform="translate(-0.91 3.968)" fill="none" stroke="#0096b6" stroke-linecap="round" stroke-width="1.6"/>
    </g>
  </g>
</svg>
