<svg xmlns="http://www.w3.org/2000/svg" width="57.361" height="55.395" viewBox="0 0 57.361 55.395">
  <g id="saso-logo" transform="translate(0.088)">
    <g id="Group_187" data-name="Group 187" transform="translate(29.518)">
      <path id="Path_444" data-name="Path 444" d="M364.278,210.785a56.609,56.609,0,0,1,5.3,7.439l.006.009,0,.008a56.333,56.333,0,0,1,3.805,8.306l18.45,10.631a70.957,70.957,0,0,0-3.223-13.959,67.588,67.588,0,0,0-4.094-9.588c-.54-1.045-1.111-2.061-1.7-3.06s-1.168-2.013-1.8-3a68.345,68.345,0,0,0-6.262-8.335,71.335,71.335,0,0,0-10.488-9.771Z" transform="translate(-364.278 -189.463)" fill="#fff"/>
    </g>
    <g id="Group_189" data-name="Group 189">
      <g id="Group_188" data-name="Group 188">
        <path id="Path_445" data-name="Path 445" d="M354.349,210.785a56.872,56.872,0,0,0-5.306,7.439l0,.009,0,.008a56.588,56.588,0,0,0-3.809,8.306l-18.446,10.631A71.015,71.015,0,0,1,330,223.219a67.4,67.4,0,0,1,4.094-9.588c.544-1.045,1.11-2.061,1.7-3.06.569-1.007,1.167-2.013,1.8-3a68.486,68.486,0,0,1,6.259-8.335,71.263,71.263,0,0,1,10.494-9.771Z" transform="translate(-326.782 -189.463)" fill="#fff"/>
      </g>
    </g>
    <path id="Subtraction_3" data-name="Subtraction 3" d="M26.76,16.183c-.885,0-1.79-.018-2.689-.054A68.409,68.409,0,0,1,13.72,14.9,71.39,71.39,0,0,1,0,10.727L18.441.027a57.532,57.532,0,0,0,9.1.854l.01,0h.008A56.672,56.672,0,0,0,36.655,0L55.112,10.622A72.02,72.02,0,0,1,41.42,14.841a68.034,68.034,0,0,1-10.35,1.273c-.958.044-1.931.065-2.974.065l-.524,0C27.284,16.181,27.011,16.183,26.76,16.183Zm1.761-5.224h0l-.664,1.114a3.652,3.652,0,0,0,2.4.782c.06,0,.12,0,.183,0A2.456,2.456,0,0,0,33.1,10.335a1.9,1.9,0,0,0-.644-1.465,5.723,5.723,0,0,0-1.835-.955,3.38,3.38,0,0,1-.92-.431.544.544,0,0,1-.209-.444.66.66,0,0,1,.179-.484A1.338,1.338,0,0,1,30.6,6.2h.066a2.964,2.964,0,0,1,1.512.515l.687-1.061A3.443,3.443,0,0,0,30.62,4.91c-.056,0-.113,0-.169,0a2.812,2.812,0,0,0-1.991.816,2.078,2.078,0,0,0-.542,1.53,1.907,1.907,0,0,0,.653,1.4,4.773,4.773,0,0,0,1.655.863,3.245,3.245,0,0,1,1.021.49.789.789,0,0,1,.232.526c.02.559-.442.937-1.177.965h-.085a3.258,3.258,0,0,1-1.653-.523l-.019-.012-.023-.014Zm-6.487-.023h0l2.719.169.459,1.608,1.652.1L24.576,5.091,22.969,5l-3.2,7.383,1.618.1.649-1.54Zm15.9-6.686a4.348,4.348,0,0,0-.638.049A3.576,3.576,0,0,0,34.87,5.684a4.033,4.033,0,0,0-.645,3.028A3.719,3.719,0,0,0,37.866,12.2a4.067,4.067,0,0,0,.62-.047c2.175-.332,3.4-2.155,3.036-4.537A3.625,3.625,0,0,0,37.929,4.25ZM14.287,9.685h0l-.876.962a3.679,3.679,0,0,0,2.376,1.283,3.9,3.9,0,0,0,.625.054A2.35,2.35,0,0,0,18.9,10a1.943,1.943,0,0,0-.337-1.562,5.74,5.74,0,0,0-1.619-1.316,3.4,3.4,0,0,1-.8-.6.563.563,0,0,1-.116-.479c.065-.386.431-.626.956-.626a1.906,1.906,0,0,1,.309.026,2.921,2.921,0,0,1,1.437.82l.891-.9A3.531,3.531,0,0,0,17.4,4.154a3.647,3.647,0,0,0-.6-.052,2.2,2.2,0,0,0-2.359,1.835A1.945,1.945,0,0,0,14.8,7.449a4.736,4.736,0,0,0,1.445,1.174l0,0a3.185,3.185,0,0,1,.9.684.775.775,0,0,1,.127.565.931.931,0,0,1-1.028.734,1.95,1.95,0,0,1-.325-.028,3.086,3.086,0,0,1-1.611-.875l-.022-.02Zm23.706,1.146c-1.1,0-1.943-.887-2.147-2.26-.242-1.587.395-2.778,1.583-2.963a2.174,2.174,0,0,1,.319-.024,2.333,2.333,0,0,1,2.169,2.258c.092.625.249,2.685-1.61,2.965A2.047,2.047,0,0,1,37.993,10.831Zm-13.58-.987h0l-1.9-.117,1.139-2.976.765,3.092Z" transform="translate(1.036 38.712)" fill="#fff" stroke="rgba(0,0,0,0)" stroke-miterlimit="10" stroke-width="1"/>
  </g>
</svg>
