<svg xmlns="http://www.w3.org/2000/svg" width="70" height="65.191" viewBox="0 0 70 65.191">
  <g id="serv-calendar-icon" transform="translate(0.105)">
    <rect id="icon-base" width="70" height="65" transform="translate(-0.105 0.191)" fill="none"/>
    <g id="Group_2333" data-name="Group 2333" transform="translate(3.382)">
      <g id="Group_2333-2" data-name="Group 2333">
        <g id="Group_2352" data-name="Group 2352">
          <path id="Path_6121" data-name="Path 6121" d="M346.848,330.977a15.468,15.468,0,0,0-12.11-15.016,15.916,15.916,0,0,0-3.532-.4c-.34,0-.675.014-1.009.035a15.543,15.543,0,0,0-14.531,13.64,15.113,15.113,0,0,0,.245,4.973,15.666,15.666,0,0,0,30.938-3.232Zm-15.642,10.194a10.2,10.2,0,1,1,10.344-10.194A10.27,10.27,0,0,1,331.205,341.171Z" transform="translate(-282.26 -282.742)" fill="#0096b6"/>
          <path id="Path_6123" data-name="Path 6123" d="M95,0a1.755,1.755,0,0,0-1.766,1.74V9.945A1.755,1.755,0,0,0,95,11.686h1.514a1.755,1.755,0,0,0,1.766-1.74V1.74A1.755,1.755,0,0,0,96.515,0Z" transform="translate(-83.395)" fill="#0096b6"/>
          <path id="Path_6124" data-name="Path 6124" d="M357.97,0A1.755,1.755,0,0,0,356.2,1.74V9.945a1.755,1.755,0,0,0,1.766,1.74h1.514a1.755,1.755,0,0,0,1.766-1.74V1.74A1.755,1.755,0,0,0,359.484,0Z" transform="translate(-318.612)" fill="#0096b6"/>
          <path id="Path_6125" data-name="Path 6125" d="M4.037,100.733H29.014A18.632,18.632,0,0,1,28.637,97c0-.418.019-.832.046-1.243H7.569a3.006,3.006,0,0,1-3.028-2.984V68.908h43.4v9.226c.334-.017.671-.026,1.009-.026a19.453,19.453,0,0,1,3.532.327V58.962a4.008,4.008,0,0,0-4.037-3.978h-3.28v4.227a4.263,4.263,0,0,1-4.289,4.227H39.358a4.263,4.263,0,0,1-4.289-4.227V54.984H17.408v4.227a4.263,4.263,0,0,1-4.289,4.227H11.606a4.263,4.263,0,0,1-4.289-4.227V54.984H4.037A4.008,4.008,0,0,0,0,58.962V96.755A4.008,4.008,0,0,0,4.037,100.733Z" transform="translate(0 -49.265)" fill="#0096b6"/>
        </g>
        <g id="Group_2334" data-name="Group 2334" transform="translate(10.471 23.154)">
          <g id="Group_2351" data-name="Group 2351">
            <path id="Path_6122" data-name="Path 6122" d="M405.795,396.844h-3.481v5.47h-5.47v3.481h8.951v-3.481h0Z" transform="translate(-365.64 -378.724)" fill="rgba(0,150,182,0.4)"/>
            <circle id="Ellipse_78" data-name="Ellipse 78" cx="3.947" cy="3.947" r="3.947" fill="rgba(0,150,182,0.4)"/>
            <circle id="Ellipse_79" data-name="Ellipse 79" cx="3.947" cy="3.947" r="3.947" transform="translate(11.841)" fill="rgba(0,150,182,0.4)"/>
            <circle id="Ellipse_80" data-name="Ellipse 80" cx="3.947" cy="3.947" r="3.947" transform="translate(23.682)" fill="rgba(0,150,182,0.4)"/>
            <circle id="Ellipse_81" data-name="Ellipse 81" cx="3.947" cy="3.947" r="3.947" transform="translate(11.841 11.935)" fill="rgba(0,150,182,0.4)"/>
            <circle id="Ellipse_82" data-name="Ellipse 82" cx="3.947" cy="3.947" r="3.947" transform="translate(0 11.935)" fill="rgba(0,150,182,0.4)"/>
          </g>
        </g>
      </g>
    </g>
  </g>
</svg>
