<svg xmlns="http://www.w3.org/2000/svg" width="70" height="65" viewBox="0 0 70 65">
  <g id="serv-headphone-icon" transform="translate(-0.922 0)">
    <rect id="icon-base" width="70" height="65" transform="translate(0.922 0)" fill="none"/>
    <g id="Group_2310" data-name="Group 2310" transform="translate(3.922 2)">
      <g id="Group_2312" data-name="Group 2312" transform="translate(0 10.842)">
        <g id="Group_2311" data-name="Group 2311">
          <g id="Group_2310-2" data-name="Group 2310">
            <path id="Path_6112" data-name="Path 6112" d="M11.7,19.57H7.85a17.21,17.21,0,0,1,33.227-4.633,1.958,1.958,0,0,0,2.507,1.139A1.922,1.922,0,0,0,44.737,13.6a20.8,20.8,0,0,0-7.6-9.776A21.26,21.26,0,0,0,10.073,6.1,20.564,20.564,0,0,0,3.9,20.606,7.7,7.7,0,0,0,0,27.283v6.556a7.767,7.767,0,0,0,7.8,7.712h3.9a1.94,1.94,0,0,0,1.951-1.928V21.5A1.94,1.94,0,0,0,11.7,19.57ZM9.754,37.695H7.8a3.884,3.884,0,0,1-3.9-3.856V27.283a3.884,3.884,0,0,1,3.9-3.856H9.754Z" fill="#0096b6"/>
            <path id="Path_6113" data-name="Path 6113" d="M237.069,203h-3.9a1.94,1.94,0,0,0-1.951,1.928v20.149a1.942,1.942,0,0,1-1.951,1.928h-5.95v.061a3.856,3.856,0,1,0,0,3.734v.061h5.95a5.825,5.825,0,0,0,5.852-5.784v-.1h1.951a7.767,7.767,0,0,0,7.8-7.712v-6.556A7.767,7.767,0,0,0,237.069,203Zm3.9,14.268a3.884,3.884,0,0,1-3.9,3.856h-1.951V206.856h1.951a3.884,3.884,0,0,1,3.9,3.856Z" transform="translate(-194.931 -183.43)" fill="#0096b6"/>
          </g>
        </g>
      </g>
      <g id="Ellipse_77" data-name="Ellipse 77" transform="translate(32.411 0)" fill="#b7f0fc" stroke="rgba(0,150,182,0.4)" stroke-width="1.5">
        <circle cx="16" cy="16" r="16" stroke="none"/>
        <circle cx="16" cy="16" r="15.25" fill="none"/>
      </g>
      <path id="Path_6114" data-name="Path 6114" d="M22.94,1.388a5.064,5.064,0,0,0-4.762.148l-3.786,1.8L7.88,0,4,.168,9.379,5.721,5.952,7.378,2.387,6,0,7.13,2.157,9.859a1.017,1.017,0,0,0-.247,1.076c.245.535.969.8,2.156.8q.365,0,.789-.034a11.336,11.336,0,0,0,3.6-.863L21.989,4.414c1.169-.555,1.751-1.138,1.78-1.783A1.379,1.379,0,0,0,22.94,1.388ZM21.575,3.511,8.041,9.938a10.263,10.263,0,0,1-3.148.763,4.212,4.212,0,0,1-2.031-.143,1.884,1.884,0,0,1,.275-.29l.352-.315L1.546,7.5l.88-.418L5.995,8.461l5.048-2.442-4.8-4.951,1.42-.062,6.708,3.436,4.216-2a4,4,0,0,1,3.856-.19h0c.257.152.346.285.344.337C22.791,2.59,22.762,2.948,21.575,3.511Z" transform="translate(37.221 10.843)" fill="rgba(0,150,182,0.4)" fill-rule="evenodd"/>
    </g>
  </g>
</svg>
