<svg xmlns="http://www.w3.org/2000/svg" width="70" height="65" viewBox="0 0 70 65">
  <g id="serv-desk-icon" transform="translate(0.205 0)">
    <rect id="icon-base" width="70" height="65" transform="translate(-0.205 0)" fill="none"/>
    <g id="Group_2302" data-name="Group 2302" transform="translate(3.795 2)">
      <g id="Group_2350" data-name="Group 2350">
        <path id="Path_6106" data-name="Path 6106" d="M62.826,44H59.786V38a1.007,1.007,0,0,0-1.014-1H56.358l2.307-4.553-1.813-.9-2.193,4.329L51.544,30.5l-1.76.992L52.972,37H50.664a1.007,1.007,0,0,0-1.014,1v6H45.6V31a1.007,1.007,0,0,0-1.014-1H31.325a7.069,7.069,0,0,0-7.014-6H24a8.973,8.973,0,0,0,1.81-3h.532a4.031,4.031,0,0,0,4.054-4,3.978,3.978,0,0,0-2.027-3.444V9a8.064,8.064,0,0,0-8.108-8H14.176A8.064,8.064,0,0,0,6.068,9v4.556A3.978,3.978,0,0,0,4.041,17a4.031,4.031,0,0,0,4.054,4h.532a8.957,8.957,0,0,0,1.81,3h-.315a7.056,7.056,0,0,0-7.095,7V44H2.014A1.007,1.007,0,0,0,1,45v6a1.007,1.007,0,0,0,1.014,1H3.027V63H5.054V52H59.786V63h2.027V52h1.014a1.007,1.007,0,0,0,1.014-1V45a1.007,1.007,0,0,0-1.014-1ZM51.677,39h6.081v5H51.677Zm-8.108,5H23.3V32H43.569ZM29.277,30H22.284a1.007,1.007,0,0,0-1.014,1V44H18.23V31.3L21.813,26h2.5a5.061,5.061,0,0,1,4.965,4Zm-12.06-.8-1.582-2.342a8.7,8.7,0,0,0,3.164,0ZM26.339,19h-.06a8.817,8.817,0,0,0,.06-1V15a2,2,0,1,1,0,4ZM8.095,9a6.047,6.047,0,0,1,6.081-6h6.081a6.047,6.047,0,0,1,6.081,6v4H22.284a2.016,2.016,0,0,1-2.027-2V7H18.23V8a5.04,5.04,0,0,1-5.068,5H8.095Zm0,10a2,2,0,1,1,0-4v3a8.817,8.817,0,0,0,.06,1Zm2.027-4h3.041a7.117,7.117,0,0,0,5.384-2.454A4.06,4.06,0,0,0,22.284,15h2.027v3a7.1,7.1,0,0,1-14.19,0ZM5.054,31a5.04,5.04,0,0,1,5.068-5h2.5L16.2,31.3V44H11.135V37H9.108v7H5.054ZM61.813,50H3.027V46H61.813Z" transform="translate(-1 -1)" fill="#0096b6"/>
        <path id="Path_6107" data-name="Path 6107" d="M33,41a3,3,0,1,0-3-3A3,3,0,0,0,33,41Zm0-4a1,1,0,1,1-1,1A1,1,0,0,1,33,37Z" transform="translate(-0.565 -1)" fill="#0096b6"/>
        <path id="Path_6109" data-name="Path 6109" d="M34,15h7v2H34Z" transform="translate(-0.496 -1)" fill="#0096b6"/>
        <path id="Path_6110" data-name="Path 6110" d="M32,19h9v2H32Z" transform="translate(-0.509 -1)" fill="#0096b6"/>
      </g>
      <g id="Group_2349" data-name="Group 2349">
        <path id="Path_6108" data-name="Path 6108" d="M53,21A10,10,0,1,0,43,11,10.011,10.011,0,0,0,53,21ZM52,3.069V5h2V3.069A8.007,8.007,0,0,1,60.931,10H59v2h1.931A8.007,8.007,0,0,1,54,18.931V17H52v1.931A8.007,8.007,0,0,1,45.069,12H47V10H45.069A8.008,8.008,0,0,1,52,3.069Z" transform="translate(-0.16 -1)" fill="rgba(0,150,182,0.4)"/>
        <path id="Path_6111" data-name="Path 6111" d="M53.707,11.707A1,1,0,0,0,54,11V7H52v3.586l-2.707,2.707,1.414,1.414Z" transform="translate(-0.16 -1)" fill="rgba(0,150,182,0.4)"/>
      </g>
    </g>
  </g>
</svg>
