<svg xmlns="http://www.w3.org/2000/svg" width="32" height="29.714" viewBox="0 0 32 29.714">
  <g id="serv-sm-icon" transform="translate(-1604 -695.583)">
    <rect id="icon-base" width="32" height="29.714" transform="translate(1604 695.583)" fill="none"/>
    <path id="Path_2957" data-name="Path 2957" d="M29.08,1.781c-2.072-1.244-4.426-.583-6.036.19l-4.8,2.306L9.989,0,5.073.216l6.816,7.121L7.545,9.464,3.026,7.691,0,9.145l2.735,3.5a1.315,1.315,0,0,0-.313,1.38c.311.686,1.228,1.031,2.733,1.031q.463,0,1-.044a14.233,14.233,0,0,0,4.564-1.107L27.874,5.662c1.482-.712,2.22-1.46,2.257-2.286A1.771,1.771,0,0,0,29.08,1.781ZM27.35,4.5,10.193,12.747a12.886,12.886,0,0,1-3.991.979,5.28,5.28,0,0,1-2.574-.183,2.4,2.4,0,0,1,.348-.372l.446-.4L1.959,9.614l1.116-.536L7.6,10.852,14,7.72,7.92,1.37l1.8-.08,8.5,4.407,5.344-2.568c1.952-.938,3.6-1.02,4.888-.244h0c.325.2.439.366.436.433C28.891,3.322,28.854,3.781,27.35,4.5Z" transform="translate(1604.919 700.546)" fill="#0096b6" fill-rule="evenodd"/>
    <line id="Line_171" data-name="Line 171" x2="25.915" transform="translate(1608.386 719.28)" fill="none" stroke="rgba(0,150,182,0.4)" stroke-linecap="round" stroke-width="1"/>
  </g>
</svg>
