<svg id="serv-plane-icon" xmlns="http://www.w3.org/2000/svg" width="70" height="65" viewBox="0 0 70 65">
  <rect id="icon-base" width="70" height="65" fill="none"/>
  <path id="Path_2957" data-name="Path 2957" d="M63.612,3.9c-4.533-2.722-9.683-1.276-13.2.416l-10.5,5.045L21.851,0,11.1.474l14.91,15.577-9.5,4.651L6.619,16.826,0,20.007l5.982,7.655a2.876,2.876,0,0,0-.685,3.02c.68,1.5,2.686,2.256,5.979,2.256q1.013,0,2.187-.1a31.134,31.134,0,0,0,9.983-2.422L60.974,12.387c3.242-1.557,4.856-3.194,4.936-5C65.953,6.449,65.587,5.082,63.612,3.9ZM59.827,9.852,22.3,27.886a28.188,28.188,0,0,1-8.73,2.141c-3.288.3-5.045-.077-5.631-.4a5.262,5.262,0,0,1,.761-.814l.975-.884-5.388-6.9,2.44-1.172,9.9,3.881,14-6.852L17.325,3l3.937-.174,18.6,9.641,11.69-5.618c4.27-2.052,7.867-2.231,10.692-.534h0c.711.427.961.8.954.946C63.2,7.269,63.118,8.272,59.827,9.852Z" transform="translate(2.011 10.854)" fill="#0096b6" fill-rule="evenodd"/>
  <line id="Line_171" data-name="Line 171" x2="56.69" transform="translate(9.594 51.836)" fill="none" stroke="rgba(0,150,182,0.4)" stroke-linecap="round" stroke-width="3"/>
</svg>
