<svg xmlns="http://www.w3.org/2000/svg" width="70" height="65" viewBox="0 0 70 65">
  <g id="serv-car-icon" transform="translate(-1604 -695.583)">
    <rect id="icon-base" width="70" height="65" transform="translate(1604 695.583)" fill="none"/>
    <g id="Group_2321" data-name="Group 2321" transform="translate(1606 670.583)">
      <g id="Group_2316" data-name="Group 2316" transform="translate(0 28)">
        <g id="Group_2315" data-name="Group 2315" transform="translate(0 0)">
          <path id="Path_6116" data-name="Path 6116" d="M8.813,55.789l20.374-3.26a1.115,1.115,0,0,0,.488-.209L50.2,36.925a5.6,5.6,0,0,1,3.347-1.116H66.936V33.578H53.549a7.846,7.846,0,0,0-4.686,1.562L32.91,47.1,13.787,32.326A20.821,20.821,0,0,0,1.115,28,1.116,1.116,0,0,0,0,29.116v4.462a1.116,1.116,0,0,0,1.116,1.116,14.905,14.905,0,0,1,4.462.7V54.508A9.985,9.985,0,0,0,0,63.5v6.893a5.585,5.585,0,0,0,5.578,5.578H15.819a13.372,13.372,0,0,0,26.373,0H66.936V73.74H42.393a13.3,13.3,0,0,0-.781-4.462H66.936V67.046H40.582a13.352,13.352,0,0,0-22.424-1.116H13.387V62.584a3.347,3.347,0,0,0-3.347-3.347H3.494A7.779,7.779,0,0,1,8.813,55.789Zm-.359-2.2c-.223.035-.432.084-.645.133V36.295a14.79,14.79,0,0,1,2.566,1.62C18.089,44.022,23.7,48.5,26.416,50.712ZM2.231,32.5V30.268a18.6,18.6,0,0,1,10.193,3.827L31.055,48.5l-2,1.5c-2.5-2.1-10.522-8.472-17.292-13.834A17.232,17.232,0,0,0,2.231,32.5ZM17.954,72.29c.016-.119.035-.238.055-.356a11.075,11.075,0,0,1,.276-1.251c.015-.051.025-.1.04-.156a11.023,11.023,0,0,1,.519-1.369c.035-.077.073-.152.112-.223a11.146,11.146,0,0,1,21.207,4.8c0,.342-.022.678-.052,1.013a11.149,11.149,0,0,1-22.207,0c-.03-.335-.052-.669-.052-1.013A11.141,11.141,0,0,1,17.954,72.29Zm-1.116-4.128c-.021.045-.035.093-.055.137-.132.295-.248.6-.358.9-.048.132-.1.261-.144.395-.1.317-.189.641-.269.968-.03.126-.069.25-.1.377-.074.346-.125.7-.172,1.055-.015.112-.039.223-.051.335a13.4,13.4,0,0,0-.075,1.409H5.578a3.347,3.347,0,0,1-3.347-3.347V68.162Zm-6.8-6.694a1.116,1.116,0,0,1,1.116,1.116v3.347H2.231V63.5A7.88,7.88,0,0,1,2.5,61.468Z" transform="translate(0 -28)" fill="#0096b6"/>
        </g>
      </g>
      <g id="Group_2353" data-name="Group 2353">
        <g id="Group_2314" data-name="Group 2314" transform="translate(38.925 38.041)">
          <g id="Group_2313" data-name="Group 2313" transform="translate(0 0)">
            <path id="Path_6115" data-name="Path 6115" d="M295.3,102.231h11.843V100H295.3a5.608,5.608,0,0,0-3.447,1.191l-11.869,9.326a2.231,2.231,0,0,0,1.38,3.985h25.779v-2.231H281.363l11.867-9.325A3.373,3.373,0,0,1,295.3,102.231Z" transform="translate(-279.131 -100)" fill="rgba(0,150,182,0.4)"/>
          </g>
        </g>
        <g id="Group_2318" data-name="Group 2318" transform="translate(21.192 65.842)">
          <g id="Group_2317" data-name="Group 2317">
            <path id="Path_6117" data-name="Path 6117" d="M159.862,299.361a7.854,7.854,0,1,0,7.814,7.894A7.854,7.854,0,0,0,159.862,299.361Zm-.08,13.476a5.578,5.578,0,1,1,5.578-5.578A5.578,5.578,0,0,1,159.782,312.838Z" transform="translate(-151.968 -299.361)" fill="rgba(0,150,182,0.4)"/>
          </g>
        </g>
        <g id="Group_2320" data-name="Group 2320" transform="translate(52.433 54.774)">
          <g id="Group_2319" data-name="Group 2319">
            <path id="Path_6118" data-name="Path 6118" d="M384.925,220h-5.578a3.347,3.347,0,0,0,0,6.694h5.578a3.347,3.347,0,1,0,0-6.694Zm0,4.462h-5.578a1.116,1.116,0,0,1,0-2.231h5.578a1.116,1.116,0,1,1,0,2.231Z" transform="translate(-376 -220)" fill="rgba(0,150,182,0.4)"/>
          </g>
        </g>
      </g>
    </g>
  </g>
</svg>
