<svg xmlns="http://www.w3.org/2000/svg" width="70" height="65" viewBox="0 0 70 65">
  <g id="serv-headphone-icon" transform="translate(-0.922 0)">
    <rect id="icon-base" width="70" height="65" transform="translate(0.922 0)" fill="none"/>
    <g id="Layer_2" data-name="Layer 2" transform="translate(9.922 2)">
      <g id="Layer_1" data-name="Layer 1" transform="translate(0 0)">
        <path id="Path_6518" data-name="Path 6518" d="M19.244,5.662a5.644,5.644,0,1,1-1.65-4.006,5.662,5.662,0,0,1,1.65,4.006Z" transform="translate(-0.687 0)" fill="#0096b6"/>
        <path id="Path_6519" data-name="Path 6519" d="M39.05,41.457a2,2,0,0,0-2.064-2.11c-.411,0-.521-.11-.511-.521V33.694a2.5,2.5,0,0,0-2.685-2.74c-.6,0-1.123,0-1.333-.721a1.388,1.388,0,0,0-.858-.712l-.913-.365a22.94,22.94,0,0,1-4.676-2.594,2.036,2.036,0,0,1-.913-1.653,13.644,13.644,0,0,0-.329-2.091,15.58,15.58,0,0,0-2.247-5.9,6.11,6.11,0,0,0-5.479-2.959c-2.74.064-5.425.082-8.137,0a6.237,6.237,0,0,0-5.8,3.233A17.534,17.534,0,0,0,.831,24.041,58.448,58.448,0,0,0,.475,36.2a1.616,1.616,0,0,0,.749,1.4c.6.311.53.776.53,1.269,0,.265-.082.347-.338.338H0V49.347H4.073c.429,0,.548-.082.548-.539V40.315c0-1.123,0-1.114-1.123-1.142-.2,0-.6.2-.6-.2s-.283-.84.347-1.078a1.826,1.826,0,0,0,1.251-1.936,10.7,10.7,0,0,0-.064-1.416,46.666,46.666,0,0,1,.648-11.324A9.014,9.014,0,0,1,6.11,20.324V57.831a2.922,2.922,0,0,0,1.662,2.74,2.868,2.868,0,0,0,3.078-.119,3.2,3.2,0,0,0,1.479-2.986V35.63c0-.4.055-.6.53-.566s.658,0,.658.566V57.639a3.114,3.114,0,1,0,6.219,0v-37.4a.913.913,0,0,1,.329.539A18.264,18.264,0,0,1,21,24.6c.1.658.146,1.333.292,1.982a5.753,5.753,0,0,0,2.018,2.941A18.786,18.786,0,0,0,26.594,31.7a3.087,3.087,0,0,0-.749,2.484c0,1.6,0,3.187,0,4.785,0,.219,0,.384-.311.411-1.626.119-2.265.831-2.265,2.457V57.356a1.991,1.991,0,0,0,1.589,2.174c.438.073.466.274.466.63,0,.868.21,1.233.721,1.251s.785-.374.758-1.215c0-.457.1-.6.575-.594h6.959c.374,0,.822-.146,1.087.082s.046.63.082.913a.721.721,0,0,0,.74.749A.74.74,0,0,0,37,60.653a3.022,3.022,0,0,0,0-.7c0-.3.082-.4.374-.457a1.963,1.963,0,0,0,1.653-2.064Q39.068,49.466,39.05,41.457ZM11.516,17.813a6.174,6.174,0,0,1,.466-1.689c.119-.237.621,0,.913-.082s.785-.146.913.082a6.612,6.612,0,0,1,.466,1.689c.055.338-.7.721-1.388.721S11.452,18.151,11.516,17.813ZM15.1,29.521l-2.192,2.74c-.767-.913-1.479-1.826-2.21-2.74a.731.731,0,0,1-.146-.594q.639-4.648,1.26-9.288c0-.32.055-.566.521-.4a1.744,1.744,0,0,0,1.16,0c.42-.155.447.046.493.356q.63,4.7,1.269,9.4A.667.667,0,0,1,15.1,29.521Zm11.744,4.247a2.174,2.174,0,0,1,.119-.8c.283-.685.584-.8,1.251-.511s1.224.53,1.826.758a1.954,1.954,0,0,0,2.447-.868A.548.548,0,0,1,33.078,32H33.9A1.5,1.5,0,0,1,35.461,33.5v5.479c0,.384-.219.338-.457.338H27.379c-.393,0-.548-.064-.539-.5C26.868,37.155,26.849,35.466,26.849,33.767Zm9.516,11.379H25.991c-.228,0-.6.42-.621-.685s.4-.749.648-.749H36.393c.237,0,.548-.311.557.685S36.63,45.146,36.365,45.146Z" transform="translate(0 -1.21)" fill="#0096b6"/>
        <path id="Path_6520" data-name="Path 6520" d="M53.536,12.981a13.014,13.014,0,1,0-.247,4.5,4.246,4.246,0,0,1,.32-1.333V13.218C53.481,13.182,53.536,13.072,53.536,12.981ZM40.577,25.419a10.831,10.831,0,1,1,7.661-3.211A10.8,10.8,0,0,1,40.577,25.419Z" transform="translate(-2.395 -0.132)" fill="#3dd896"/>
        <path id="Path_6521" data-name="Path 6521" d="M37.819,20.22c.146-.42-.073-.612-.457-.776-1-.438-1.982-.913-2.977-1.4-.3-.128-.356-.256-.21-.566.365-.749.347-.758,1.132-.521s1.735.5,2.584.795c.356.119.466,0,.575-.3.228-.685.5-1.361.785-2.027.146-.329.082-.447-.237-.6-1.662-.758-3.3-1.562-4.95-2.32-.356-.164-.475-.311-.237-.676s.3-1.132.731-1.279.913.219,1.388.356c1.406.429,2.813.84,4.21,1.3.4.137.612.1.822-.3A13.7,13.7,0,0,1,43.107,8.86c.283-.3.6-.795,1.059-.584s.292.795.237,1.224a14.2,14.2,0,0,1-1.041,3.653.475.475,0,0,0,.219.694c1.562,1.023,3.105,2.073,4.667,3.087.31.21.365.374.183.685a7.646,7.646,0,0,0-.511,1.068c-.11.3-.247.283-.511.164-1.644-.795-3.3-1.553-4.941-2.356-.365-.183-.548-.2-.749.228a14.083,14.083,0,0,1-1.059,1.826c-.21.32-.128.438.155.621.831.521,1.616,1.132,2.466,1.616s.183.758.055,1.142c-.174.53-.466.146-.676.055-.986-.447-1.954-.913-2.922-1.388-.283-.137-.5-.192-.694.11a.393.393,0,0,1-.091.082c-.265.192-.521.521-.913.338S37.865,20.531,37.819,20.22Z" transform="translate(-2.924 -0.714)" fill="#3dd896"/>
      </g>
    </g>
  </g>
</svg>
