<svg xmlns="http://www.w3.org/2000/svg" width="70" height="65" viewBox="0 0 70 65">
  <g id="serv-meeting-icon" transform="translate(-1604 -695.583)">
    <rect id="icon-base" width="70" height="65" transform="translate(1604 695.583)" fill="none"/>
    <g id="Group_2332" data-name="Group 2332" transform="translate(1607 695.583)">
      <g id="Group_2323" data-name="Group 2323" transform="translate(0 10.738)">
        <g id="Group_2322" data-name="Group 2322">
          <path id="Path_6119" data-name="Path 6119" d="M61.027,95.418a8.59,8.59,0,1,0-10.854-.385h-5.7l-7.2-7.2a1.073,1.073,0,0,0-1.518,0l-4.3,4.3a1.073,1.073,0,0,0,0,1.518l9.664,9.664a1.069,1.069,0,0,0,.759.315h8.59v7.516h-18.4l5.33-7.994-1.787-1.191-6.124,9.185H26.845v-5.369a1.073,1.073,0,0,0-1.074-1.074h-8.59v-4.3a5.369,5.369,0,0,0-3.4-4.983,8.59,8.59,0,1,0-10.381,0A5.369,5.369,0,0,0,0,100.4v15.033A5.375,5.375,0,0,0,5.369,120.8v12.885H7.516V120.8h7.516v11.812a1.073,1.073,0,0,0,1.074,1.074h7.516a1.073,1.073,0,0,0,1.074-1.074V116.509a5.34,5.34,0,0,0-1.076-3.221H31.14v18.254h-4.3v2.148H37.582v-2.148h-4.3V113.287h7.544a5.313,5.313,0,0,0-1.1,3.221v16.107a1.073,1.073,0,0,0,1.074,1.074H48.32a1.073,1.073,0,0,0,1.074-1.074V120.8H56.91v12.885h2.148V120.8a5.375,5.375,0,0,0,5.369-5.369V100.4A5.369,5.369,0,0,0,61.027,95.418ZM2.148,88.59A6.443,6.443,0,1,1,8.59,95.033,6.449,6.449,0,0,1,2.148,88.59ZM24.7,111.14H10.738v-8.59H8.59v9.664a1.073,1.073,0,0,0,1.074,1.074h9.664a3.225,3.225,0,0,1,3.221,3.221v15.033H17.181V119.73a1.073,1.073,0,0,0-1.074-1.074H5.369a3.225,3.225,0,0,1-3.221-3.221V100.4A3.225,3.225,0,0,1,5.369,97.18h6.443a3.225,3.225,0,0,1,3.221,3.221v5.369a1.073,1.073,0,0,0,1.074,1.074H24.7Zm24.7-22.549a6.443,6.443,0,1,1,6.443,6.443A6.449,6.449,0,0,1,49.394,88.59Zm12.885,26.845a3.225,3.225,0,0,1-3.221,3.221H48.32a1.073,1.073,0,0,0-1.074,1.074v11.812H41.877V116.509a3.225,3.225,0,0,1,3.221-3.221h6.443a1.073,1.073,0,0,0,1.074-1.074v-9.664a1.073,1.073,0,0,0-1.074-1.074H42.322l-8.59-8.59,2.777-2.777,6.757,6.757a1.069,1.069,0,0,0,.759.315H59.058a3.225,3.225,0,0,1,3.221,3.221Z" transform="translate(0 -80)" fill="#0096b6"/>
        </g>
      </g>
      <g id="Group_2325" data-name="Group 2325" transform="translate(18.254)">
        <g id="Group_2324" data-name="Group 2324">
          <path id="Path_6120" data-name="Path 6120" d="M160.7,0H139.221A3.225,3.225,0,0,0,136,3.221v8.59a3.225,3.225,0,0,0,3.221,3.221H140.3v6.443a1.073,1.073,0,0,0,.663.992,1.06,1.06,0,0,0,.411.082,1.074,1.074,0,0,0,.759-.315l7.2-7.2H160.7a3.225,3.225,0,0,0,3.221-3.221V3.221A3.225,3.225,0,0,0,160.7,0Zm1.074,11.812a1.074,1.074,0,0,1-1.074,1.074H148.885a1.069,1.069,0,0,0-.759.315l-5.684,5.684V13.959a1.073,1.073,0,0,0-1.074-1.074h-2.148a1.074,1.074,0,0,1-1.074-1.074V3.221a1.074,1.074,0,0,1,1.074-1.074H160.7a1.074,1.074,0,0,1,1.074,1.074Z" transform="translate(-136)" fill="rgba(0,150,182,0.4)"/>
        </g>
        <rect id="Rectangle_872" data-name="Rectangle 872" width="7" height="2" transform="translate(3.959 4.214)" fill="rgba(0,150,182,0.4)"/>
        <rect id="Rectangle_873" data-name="Rectangle 873" width="20" height="3" transform="translate(3.959 8.213)" fill="rgba(0,150,182,0.4)"/>
        <rect id="Rectangle_874" data-name="Rectangle 874" width="11" height="2" transform="translate(12.959 4.214)" fill="rgba(0,150,182,0.4)"/>
      </g>
    </g>
  </g>
</svg>
