<svg xmlns="http://www.w3.org/2000/svg" width="20" height="20" viewBox="0 0 20 20">
  <g id="settings-outline-icon" transform="translate(-43.708 -39.96)">
    <rect id="icon-base" width="20" height="20" transform="translate(43.708 39.96)" fill="none"/>
    <g id="building" transform="translate(45.66 40.477)">
      <path id="Path_6103" data-name="Path 6103" d="M4.709,5.445V3.974a.443.443,0,0,1,.442-.442H6.623a.443.443,0,0,1,.442.442V5.445a.443.443,0,0,1-.442.442H5.151A.443.443,0,0,1,4.709,5.445Zm5.151.442h1.472a.443.443,0,0,0,.442-.442V3.974a.443.443,0,0,0-.442-.442H9.86a.443.443,0,0,0-.442.442V5.445A.443.443,0,0,0,9.86,5.887ZM5.151,9.419H6.623a.443.443,0,0,0,.442-.442V7.506a.443.443,0,0,0-.442-.442H5.151a.443.443,0,0,0-.442.442V8.977A.443.443,0,0,0,5.151,9.419Zm4.709,0h1.472a.443.443,0,0,0,.442-.442V7.506a.443.443,0,0,0-.442-.442H9.86a.443.443,0,0,0-.442.442V8.977A.443.443,0,0,0,9.86,9.419Zm-2.8,3.091V11.038a.443.443,0,0,0-.442-.442H5.151a.443.443,0,0,0-.442.442v1.472a.443.443,0,0,0,.442.442H6.623A.443.443,0,0,0,7.064,12.509Zm2.8.442h1.472a.443.443,0,0,0,.442-.442V11.038a.443.443,0,0,0-.442-.442H9.86a.443.443,0,0,0-.442.442v1.472A.443.443,0,0,0,9.86,12.951Zm6.623,4.562v1.325H0V17.513a.443.443,0,0,1,.442-.442h.717V.883A.881.881,0,0,1,2.042,0h12.4a.881.881,0,0,1,.883.883V17.071h.717A.443.443,0,0,1,16.483,17.513ZM2.925,17.035H7.064V14.57a.443.443,0,0,1,.442-.442H8.977a.443.443,0,0,1,.442.442v2.465h4.139V1.8L2.943,1.766Z" fill="#fff"/>
    </g>
  </g>
</svg>
