<svg xmlns="http://www.w3.org/2000/svg" xmlns:xlink="http://www.w3.org/1999/xlink" width="451.825" height="288.047" viewBox="0 0 451.825 288.047">
  <defs>
    <linearGradient id="linear-gradient" x1="0.5" x2="0.5" y2="1" gradientUnits="objectBoundingBox">
      <stop offset="0" stop-color="#4e75b7"/>
      <stop offset="1" stop-color="#1d3968"/>
    </linearGradient>
    <linearGradient id="linear-gradient-2" x1="0.5" x2="0.5" y2="1" gradientUnits="objectBoundingBox">
      <stop offset="0" stop-color="#fff"/>
      <stop offset="0.13" stop-color="#e7f2f9"/>
      <stop offset="1" stop-color="#c9e7ec"/>
    </linearGradient>
  </defs>
  <g id="slide-bg" transform="translate(-820.008 -939.813)">
    <g id="slide-bg-2" data-name="slide-bg" transform="translate(820.008 939.813)">
      <path id="Path_6142" data-name="Path 6142" d="M350.371,93.233c-26.849-.933-52.421-9.6-76.84-19.083s-48.6-19.992-74.827-25.016c-16.839-3.232-36.117-3.688-49.7,5.343-13.068,8.712-17.291,23.709-19.56,37.636-1.709,10.483-2.713,21.51,1.966,31.322,3.252,6.812,9.019,12.537,13.01,19.083,13.885,22.7,4.07,50.7-10.973,72.861-7.053,10.4-15.246,20.328-20.693,31.388s-7.965,23.751-3.2,35.039c4.721,11.2,15.976,19.6,28.169,25.514,24.763,12.006,53.931,15.445,82.394,17.391,62.987,4.31,126.307,2.444,189.46.577,23.373-.693,46.845-1.394,69.837-5.007,12.769-2.008,25.949-5.194,35.217-12.861,11.769-9.762,14.686-26.294,6.8-38.532-13.226-20.531-49.783-25.634-59.038-47.667-5.086-12.126.137-25.638,7.534-36.885,15.864-24.132,42.452-45.3,43.85-72.882.962-18.942-11.819-37.914-31.583-46.879-20.714-9.4-49.442-8.214-64.717,7.339C401.734,87.894,374.08,94.055,350.371,93.233Z" transform="translate(-92.246 -47.017)" fill="#3ac4e2" opacity="0.1"/>
      <ellipse id="Ellipse_91" data-name="Ellipse 91" cx="82.959" cy="8.455" rx="82.959" ry="8.455" transform="translate(285.908 271.137)" fill="#070707" opacity="0.1"/>
      <path id="Path_6144" data-name="Path 6144" d="M823.555,132.666s-34.931-2.107-30.811,22.369c0,0-.83,4.327,3.1,6.289,0,0,.062-1.813,3.58-1.2a15.948,15.948,0,0,0,3.8.183,7.882,7.882,0,0,0,4.642-1.912h0s9.815-4.057,13.636-20.1c0,0,2.825-3.5,2.713-4.4l-5.9,2.518s2.012,4.252.415,7.787c0,0-.191-7.633-1.323-7.467-.232.033-3.066,1.473-3.066,1.473s3.468,7.405.83,12.79c0,0,.992-9.127-1.933-12.255l-4.148,2.423s4.049,7.65,1.307,13.894c0,0,.7-9.575-2.178-13.3l-3.758,2.933s3.8,7.538,1.485,12.715c0,0-.307-11.143-2.3-11.985,0,0-3.29,2.9-3.792,4.09,0,0,2.605,5.476.992,8.363,0,0-.992-7.426-1.8-7.467,0,0-3.277,4.92-3.618,8.3a17.9,17.9,0,0,1,2.821-8.762,9.871,9.871,0,0,0-5.016,2.6s.51-3.476,5.808-3.783c0,0,2.709-3.734,3.435-3.958,0,0-5.289-.444-8.5.979,0,0,2.821-3.282,9.467-1.788l3.709-3.033s-6.961-.95-9.915.1c0,0,3.4-2.9,10.919-.788l4.041-2.414s-5.937-1.282-9.475-.83c0,0,3.734-2.012,10.658.17l2.9-1.3s-4.352-.855-5.625-.992-1.34-.485-1.34-.485a15.08,15.08,0,0,1,8.227.938S823.659,133.052,823.555,132.666Z" transform="translate(-423.724 -107.948)" fill="#3edb98"/>
      <path id="Path_6145" data-name="Path 6145" d="M761.281,106.461s-15.764-.95-13.922,10.11a2.7,2.7,0,0,0,1.4,2.842s.029-.83,1.618-.543a7.264,7.264,0,0,0,1.713.083,3.576,3.576,0,0,0,2.1-.863h0s4.435-1.834,6.161-9.085c0,0,1.278-1.581,1.245-1.987l-2.663,1.137a4.773,4.773,0,0,1,.191,3.518s-.083-3.447-.6-3.369c-.1,0-1.381.668-1.381.668s1.564,3.344.382,5.779c0,0,.448-4.124-.871-5.538l-1.875,1.1s1.83,3.456.589,6.277c0,0,.319-4.327-.983-6.011l-1.7,1.328s1.722,3.406.672,5.746c0,0-.137-5.036-1.037-5.418a10.251,10.251,0,0,0-1.713,1.85s1.174,2.489.444,3.779c0,0-.448-3.356-.83-3.373a11.171,11.171,0,0,0-1.635,3.734,8.074,8.074,0,0,1,1.274-3.958,4.444,4.444,0,0,0-2.265,1.174s.228-1.572,2.63-1.709a10.355,10.355,0,0,1,1.552-1.792,9.726,9.726,0,0,0-3.837.444s1.273-1.481,4.277-.83l1.659-1.369s-3.145-.415-4.48.046c0,0,1.539-1.311,4.933-.357l1.825-1.091a16.584,16.584,0,0,0-4.277-.369s1.684-.909,4.812.075L758,107.9s-1.962-.386-2.539-.448-.606-.22-.606-.22a6.788,6.788,0,0,1,3.688.415A16.728,16.728,0,0,0,761.281,106.461Z" transform="translate(-397.277 -92.63)" fill="#3edb98"/>
      <path id="Path_6146" data-name="Path 6146" d="M86.824,703.617a4.825,4.825,0,0,0,1.593-2.4,2.15,2.15,0,0,0-1.112-2.443c-1.021-.394-2.112.315-2.937,1.029s-1.776,1.531-2.858,1.377a4.344,4.344,0,0,0,1.332-4.07,1.659,1.659,0,0,0-.373-.83c-.564-.606-1.593-.344-2.273.133-2.157,1.518-2.759,4.447-2.767,7.086a13.072,13.072,0,0,1-.041-2.9,2.992,2.992,0,0,0-1.1-2.58,3.319,3.319,0,0,0-1.659-.394,3.47,3.47,0,0,0-2.713.772,2.668,2.668,0,0,0,.108,3.319,10.847,10.847,0,0,0,2.8,2.248,6.189,6.189,0,0,1,2.008,1.913,1.829,1.829,0,0,1,.149.34h6.078a16.911,16.911,0,0,0,3.759-2.6Z" transform="translate(-71.386 -426.725)" fill="#30bc80"/>
    </g>
    <g id="Group_2341" data-name="Group 2341" transform="translate(916.717 948.263)">
      <path id="Path_6127" data-name="Path 6127" d="M222.653,143.094a17.935,17.935,0,0,0-17.915,17.915V367.4a17.935,17.935,0,0,0,17.915,17.915h151.4A17.935,17.935,0,0,0,391.969,367.4V161.009a17.935,17.935,0,0,0-17.915-17.915Z" transform="translate(-204.739 -121.281)" fill="#3f3d56"/>
      <rect id="Rectangle_833" data-name="Rectangle 833" width="168.598" height="216.769" transform="translate(9.316 34.538)" fill="#fff"/>
      <rect id="Rectangle_834" data-name="Rectangle 834" width="124.517" height="8.18" transform="translate(31.356 73.392)" fill="#0096b6"/>
      <rect id="Rectangle_835" data-name="Rectangle 835" width="124.517" height="8.18" transform="translate(31.356 95.206)" fill="#0096b6"/>
      <rect id="Rectangle_836" data-name="Rectangle 836" width="124.517" height="8.18" transform="translate(31.356 117.019)" fill="#0096b6"/>
      <rect id="Rectangle_837" data-name="Rectangle 837" width="124.517" height="8.18" transform="translate(31.356 138.832)" fill="#0096b6"/>
      <rect id="Rectangle_838" data-name="Rectangle 838" width="124.517" height="8.18" transform="translate(31.356 160.645)" fill="#0096b6"/>
      <rect id="Rectangle_839" data-name="Rectangle 839" width="124.517" height="8.18" transform="translate(31.356 182.459)" fill="#0096b6"/>
      <rect id="Rectangle_840" data-name="Rectangle 840" width="124.517" height="8.18" transform="translate(31.356 204.272)" fill="#0096b6"/>
      <rect id="Rectangle_841" data-name="Rectangle 841" width="125.521" height="161.384" transform="translate(34.155 43.388) rotate(-10.37)" fill="#dbeef2"/>
      <rect id="Rectangle_842" data-name="Rectangle 842" width="92.703" height="6.09" transform="translate(55.504 68.889) rotate(-10.37)" fill="#0096b6"/>
      <rect id="Rectangle_843" data-name="Rectangle 843" width="92.703" height="6.09" transform="translate(58.427 84.864) rotate(-10.37)" fill="#0096b6"/>
      <rect id="Rectangle_844" data-name="Rectangle 844" width="92.703" height="6.09" transform="translate(61.35 100.838) rotate(-10.37)" fill="#0096b6"/>
      <rect id="Rectangle_845" data-name="Rectangle 845" width="92.703" height="6.09" transform="translate(64.273 116.813) rotate(-10.37)" fill="#0096b6"/>
      <rect id="Rectangle_846" data-name="Rectangle 846" width="92.703" height="6.09" transform="translate(67.197 132.787) rotate(-10.37)" fill="#0096b6"/>
      <rect id="Rectangle_847" data-name="Rectangle 847" width="92.703" height="6.09" transform="translate(70.12 148.762) rotate(-10.37)" fill="#0096b6"/>
      <rect id="Rectangle_848" data-name="Rectangle 848" width="92.703" height="6.09" transform="translate(73.043 164.737) rotate(-10.37)" fill="#0096b6"/>
      <rect id="Rectangle_849" data-name="Rectangle 849" width="35.517" height="45.664" transform="translate(210.082 200.844) rotate(-10.37)" fill="#e6e6e6"/>
      <rect id="Rectangle_850" data-name="Rectangle 850" width="26.231" height="1.723" transform="translate(216.123 208.06) rotate(-10.37)" fill="#fff"/>
      <rect id="Rectangle_851" data-name="Rectangle 851" width="26.231" height="1.723" transform="translate(216.95 212.58) rotate(-10.37)" fill="#fff"/>
      <rect id="Rectangle_852" data-name="Rectangle 852" width="26.231" height="1.723" transform="translate(217.777 217.1) rotate(-10.37)" fill="#fff"/>
      <rect id="Rectangle_853" data-name="Rectangle 853" width="26.231" height="1.723" transform="translate(218.604 221.62) rotate(-10.37)" fill="#fff"/>
      <rect id="Rectangle_854" data-name="Rectangle 854" width="26.231" height="1.723" transform="translate(219.432 226.14) rotate(-10.37)" fill="#fff"/>
      <rect id="Rectangle_855" data-name="Rectangle 855" width="26.231" height="1.723" transform="translate(220.259 230.66) rotate(-10.37)" fill="#fff"/>
      <rect id="Rectangle_856" data-name="Rectangle 856" width="26.231" height="1.723" transform="translate(221.086 235.18) rotate(-10.37)" fill="#fff"/>
      <path id="Path_6128" data-name="Path 6128" d="M420.126,96.115H405.27V93.073a8.319,8.319,0,0,0-8.319-8.319H380.869a8.32,8.32,0,0,0-8.32,8.32v3.041H357.693a8.32,8.32,0,0,0-8.32,8.32v23.037h79.073V104.434a8.32,8.32,0,0,0-8.32-8.32Z" transform="translate(-295.294 -84.754)" fill="#3f3d56"/>
      <path id="Path_6129" data-name="Path 6129" d="M439.185,699.506c2.456-1.681,4.981-3.429,7.9-4.194,2.661-.7,5.718-.513,7.823,1.436a4.792,4.792,0,0,1,1.157,6.059,3.85,3.85,0,0,1-2.551,1.856,3.073,3.073,0,0,1-2.763-1.079,2.818,2.818,0,0,1-.7-2.768,3.627,3.627,0,0,1,2.324-1.974,17.2,17.2,0,0,1,3.466-.716l4.82-.66,19.73-2.7,21.972-3.008a.686.686,0,0,0,.476-.839.7.7,0,0,0-.839-.476l-43.72,5.985c-1.581.216-3.185.372-4.75.69a7.988,7.988,0,0,0-3.411,1.417,4.07,4.07,0,0,0-.017,6.326,4.509,4.509,0,0,0,6.492-.486,5.887,5.887,0,0,0,.446-7.213,8.745,8.745,0,0,0-8.529-3.5c-3.763.462-6.954,2.578-10.01,4.67C437.777,698.822,438.459,700,439.185,699.506Z" transform="translate(-350.903 -463.963)" fill="#3f3d56"/>
      <path id="Path_6130" data-name="Path 6130" d="M850.854,579.591l.454,4.544s-2.727,10,3.181,10,1.363-10,1.363-10l.454-3.636Z" transform="translate(-609.163 -394.572)" fill="#bf9aa0"/>
      <path id="Path_6131" data-name="Path 6131" d="M950.649,539.1l-2.085,4.063s-7.717,6.917-2.755,10.123,6.572-7.656,6.572-7.656l2.355-2.807Z" transform="translate(-667.682 -369.219)" fill="#bf9aa0"/>
      <path id="Path_6132" data-name="Path 6132" d="M870.591,584.441l6.362,43.172,3.181,30.9s2.727,6.817,11.815.909L890.586,641.7l-.909-15.905s-.909-15.451-1.818-18.178.454-11.815.454-11.815l3.635-15Z" transform="translate(-621.629 -395.332)" fill="#2f2e41"/>
      <path id="Path_6133" data-name="Path 6133" d="M880.86,786.211l-3.636,4.09s-5.453-1.818-6.817,1.818,10.452,4.544,10.452,4.544,12.27.909,12.27,0-.329-7.86-1.982-8.247S880.86,786.211,880.86,786.211Z" transform="translate(-621.446 -523.937)" fill="#2f2e41"/>
      <path id="Path_6134" data-name="Path 6134" d="M916.777,579.125l6.362,45.444,3.181,30.9s2.727,6.817,11.815.909l-1.363-17.723-.909-15.906s-.909-15.451-1.818-18.178.454-11.816.454-11.816l-.909-16.814Z" transform="translate(-650.547 -392.288)" fill="#2f2e41"/>
      <path id="Path_6135" data-name="Path 6135" d="M927.046,786.211l-3.635,4.09s-5.453-1.818-6.816,1.818,10.452,4.544,10.452,4.544,12.27.909,12.27,0-.329-7.86-1.982-8.247S927.046,786.211,927.046,786.211Z" transform="translate(-650.363 -523.937)" fill="#2f2e41"/>
      <ellipse id="Ellipse_89" data-name="Ellipse 89" cx="9.073" cy="9.543" rx="9.073" ry="9.543" transform="translate(243.995 95.948)" fill="#bf9aa0"/>
      <path id="Path_6136" data-name="Path 6136" d="M681.479,293.685l4.09,6.817-10.452,4.544-1.363-8.18Z" transform="translate(-421.837 -183.876)" fill="#bf9aa0"/>
      <path id="Path_6139" data-name="Path 6139" d="M936.224,413.079l6.362.909a42.235,42.235,0,0,1,6.362,8.634c2.727,5,10.907,14.542,9.089,21.813s-7.271,20.45-7.271,20.45l-8.634-3.636s6.817-15.906,6.362-17.269-5.908-9.543-5.908-9.543Z" transform="translate(-662.722 -290.318)" fill="#3b5e99"/>
      <path id="Path_6137" data-name="Path 6137" d="M872.623,394.764s-9.543-.909-13.179,5l-8.97,6.817a5.171,5.171,0,0,0-2,4.795l10.431,132.334h7.009l20.322-.908,17.087.908L888.983,440.662s-3.181-9.543.454-15.905l-1.818-22.268-12.724-5Z" transform="translate(-607.756 -278.82)" fill="url(#linear-gradient)"/>
      <path id="Path_6138" data-name="Path 6138" d="M849.918,429.408l-.682-1.136s-.909,0-.909,1.818-1.591,41.127-1.591,41.127l-.454,15,8.634.909,3.181-28.175-1.363-18.632Z" transform="translate(-606.41 -299.83)" fill="#476dac"/>
      <path id="Path_6140" data-name="Path 6140" d="M855.389,340.137s-3.922-.492-2.927-3.193,1.926-2.835,5.739-3.62c0,0,3.1-1.367,3.1-.458,0,0,9.543-2.727,10.907,6.817s-.909,14.088-.909,14.088l-6.362-.454s1.363-7.726-3.635-6.817c0,0-4.09,1.363-4.544,0S855.389,340.137,855.389,340.137Z" transform="translate(-609.381 -239.871)" fill="#0a0a0f"/>
      <path id="Path_6141" data-name="Path 6141" d="M666.915,425.276l4.09-27.266-2.727-16.815.909,18.289-2.726,25.792Z" transform="translate(-417.272 -238.666)" opacity="0.2"/>
    </g>
    <g id="Group_2347" data-name="Group 2347" transform="translate(1211.641 1179.18)">
      <path id="Path_6147" data-name="Path 6147" d="M868.411,630.54s3.589,4.7-1.659,11.782-9.571,13.068-7.82,17.486c0,0,7.915-13.159,14.358-13.346S875.5,638.455,868.411,630.54Z" transform="translate(-839.599 -630.54)" fill="#2fc585"/>
      <path id="Path_6149" data-name="Path 6149" d="M897.25,643.507c0,1.659-.187,2.991-.415,2.991s-.415-1.34-.415-2.991.232-.871.461-.871S897.25,641.848,897.25,643.507Z" transform="translate(-861.766 -637.509)" fill="#ffd037"/>
      <path id="Path_6150" data-name="Path 6150" d="M899.944,648.12c-1.452.788-2.713,1.269-2.825,1.066s.979-1,2.431-1.8.875-.212.987,0S901.4,647.328,899.944,648.12Z" transform="translate(-862.17 -640.163)" fill="#ffd037"/>
      <path id="Path_6151" data-name="Path 6151" d="M825.282,630.54s-3.589,4.7,1.659,11.782,9.571,13.068,7.824,17.486c0,0-7.915-13.159-14.358-13.346S818.2,638.455,825.282,630.54Z" transform="translate(-815.428 -630.54)" fill="#2fc585"/>
      <path id="Path_6153" data-name="Path 6153" d="M820.55,643.507c0,1.659.187,2.991.415,2.991s.415-1.34.415-2.991-.232-.871-.461-.871S820.55,641.848,820.55,643.507Z" transform="translate(-817.371 -637.509)" fill="#ffd037"/>
      <path id="Path_6154" data-name="Path 6154" d="M813.764,648.12c1.448.788,2.713,1.269,2.821,1.066s-.975-1-2.427-1.8-.88-.212-.987,0S812.328,647.328,813.764,648.12Z" transform="translate(-812.887 -640.163)" fill="#ffd037"/>
      <path id="Path_6155" data-name="Path 6155" d="M823.31,691.96s10.035-.311,13.06-2.464,15.437-4.725,16.179-1.269,15.08,17.179,3.734,17.27-26.327-1.767-29.343-3.605S823.31,691.96,823.31,691.96Z" transform="translate(-818.986 -663.306)" fill="#9a6a3c"/>
      <path id="Path_6156" data-name="Path 6156" d="M856.511,711.926c-11.33.091-26.327-1.767-29.343-3.605-2.3-1.4-3.215-6.422-3.522-8.741h-.336s.635,8.094,3.655,9.932,18.013,3.7,29.343,3.605c3.269-.029,4.4-1.191,4.339-2.9C860.191,711.254,858.946,711.905,856.511,711.926Z" transform="translate(-818.986 -670.938)" opacity="0.2"/>
    </g>
    <path id="Path_6259" data-name="Path 6259" d="M1200.146,3823c.135-1.507,5.2-5.26,9.475-5.757s8.854.709,10.6,4.589,2.134,12.22,3.685,15.517,4.267,10.668,7.177,12.8,3.033,7.07,3.033,7.07.115,3.558-4.935,4.361-9.494,2.561-11.822,2.755-13.805,2.715-11.477,0,1.793-8.144,2.181-11.248-2.181-11.707-2.181-11.707-3.974-8.366-4.361-12.052S1200.011,3824.5,1200.146,3823Z" transform="translate(-41.228 -2779.853)" fill="url(#linear-gradient-2)"/>
    <path id="Path_6260" data-name="Path 6260" d="M1220.556,3822.691s-6.422,5.827-19.716,3.292a1.084,1.084,0,0,0,.662,1.653s10.793,2.5,19.788-3.293A1.16,1.16,0,0,0,1220.556,3822.691Z" transform="translate(-41.903 -2781.122)" fill="#464749"/>
  </g>
</svg>
