<svg xmlns="http://www.w3.org/2000/svg" width="51.683" height="55.374" viewBox="0 0 51.683 55.374">
  <g id="Stamp-Contract-Certification-Document-Business" transform="translate(0 0)">
    <path id="Path_6309" data-name="Path 6309" d="M45.608,10.383V52.837a3.7,3.7,0,0,1-3.692,3.692H8.692A3.692,3.692,0,0,1,5,52.837V6.692A3.692,3.692,0,0,1,8.692,3H38.225V8.537a1.851,1.851,0,0,0,1.846,1.846Z" transform="translate(-4.077 -2.077)" fill="#fcfcfc"/>
    <path id="Path_6310" data-name="Path 6310" d="M48.383,55v1.846a3.681,3.681,0,0,1-.5,1.846H41V55Z" transform="translate(-6.853 -6.086)" fill="#d8d7da"/>
    <path id="Path_6311" data-name="Path 6311" d="M39,53H55.612v3.692H39Z" transform="translate(-6.698 -5.932)" fill="#0096b6"/>
    <path id="Path_6312" data-name="Path 6312" d="M57.3,48.846v3.692H37V48.846A1.851,1.851,0,0,1,38.846,47H55.458A1.851,1.851,0,0,1,57.3,48.846Z" transform="translate(-6.544 -5.469)" fill="#ee8700"/>
    <path id="Path_6313" data-name="Path 6313" d="M51.77,42.391,53,44.227v.923H41.923v-.923l1.227-1.837a3.685,3.685,0,0,0,.618-2.049V37.749a7.149,7.149,0,0,0-1.431-4.356,6.452,6.452,0,0,1,6.045-10.318,2.753,2.753,0,0,1,.369.055,6.449,6.449,0,0,1,3.922,10.143,7.575,7.575,0,0,0-1.523,4.485v2.584a3.685,3.685,0,0,0,.618,2.049Z" transform="translate(-6.853 -3.62)" fill="#ff9811"/>
    <ellipse id="Ellipse_114" data-name="Ellipse 114" cx="8.5" cy="9" rx="8.5" ry="9" transform="translate(7.955 33.687)" fill="#d8d7da"/>
    <circle id="Ellipse_115" data-name="Ellipse 115" cx="8.5" cy="8.5" r="8.5" transform="translate(5.955 31.687)" fill="#3bbf86"/>
    <path id="Path_6314" data-name="Path 6314" d="M48.383,10.383H42.846A1.851,1.851,0,0,1,41,8.537V3Z" transform="translate(-6.853 -2.077)" fill="#bcbec0"/>
    <path id="Path_6315" data-name="Path 6315" d="M39,53H55.612v1.846H39Z" transform="translate(-6.698 -5.932)" fill="#006f87"/>
    <path id="Path_6316" data-name="Path 6316" d="M41.839,55.528H8.615A2.769,2.769,0,0,1,5.846,52.76V6.615A2.769,2.769,0,0,1,8.615,3.846h28.61V8.46a2.769,2.769,0,0,0,2.769,2.769h4.615v7.383h1.846V10.306a.923.923,0,0,0-.27-.652L38.8,2.27A.923.923,0,0,0,38.147,2H8.615A4.62,4.62,0,0,0,4,6.615V52.76a4.62,4.62,0,0,0,4.615,4.615H41.839a4.609,4.609,0,0,0,3.052-1.154L43.67,54.836A2.769,2.769,0,0,1,41.839,55.528ZM39.07,8.46V5.151L43.3,9.383h-3.31A.923.923,0,0,1,39.07,8.46Z" transform="translate(-4 -2)" fill="#0096b6"/>
    <path id="Path_6317" data-name="Path 6317" d="M55.381,44.15H53.535a.892.892,0,0,0-.157-.508L52.151,41.8a2.741,2.741,0,0,1-.461-1.532V37.68a6.625,6.625,0,0,1,1.347-3.941,7.383,7.383,0,1,0-13.345-4.356,7.276,7.276,0,0,0,1.523,4.485,6.261,6.261,0,0,1,1.246,3.8v2.593A2.741,2.741,0,0,1,42,41.8l-1.227,1.846a.892.892,0,0,0-.157.508H38.769A2.777,2.777,0,0,0,36,46.918V50.61a.923.923,0,0,0,.923.923h.923V54.3a.923.923,0,0,0,.923.923H55.381A.923.923,0,0,0,56.3,54.3V51.533h.923a.923.923,0,0,0,.923-.923V46.918a2.777,2.777,0,0,0-2.769-2.769ZM41.537,29.383a5.537,5.537,0,1,1,10.014,3.258,8.505,8.505,0,0,0-1.707,5.039v2.584a4.577,4.577,0,0,0,.775,2.556L51.5,44.15h-8.86l.886-1.329a4.577,4.577,0,0,0,.775-2.556V37.671a8.112,8.112,0,0,0-1.624-4.919,5.5,5.5,0,0,1-1.144-3.369Zm12.921,24H39.692V51.533H54.458ZM56.3,49.687H37.846V46.918A.923.923,0,0,1,38.769,46H55.381a.923.923,0,0,1,.923.923Z" transform="translate(-6.467 -3.542)" fill="#3a3a3a"/>
    <path id="Path_6318" data-name="Path 6318" d="M19.229,54.458A9.229,9.229,0,1,0,10,45.229a9.229,9.229,0,0,0,9.229,9.229Zm0-16.612a7.383,7.383,0,1,1-7.383,7.383A7.383,7.383,0,0,1,19.229,37.846Z" transform="translate(-4.463 -4.621)" fill="#464749"/>
    <path id="Path_6319" data-name="Path 6319" d="M18.714,49.406a.923.923,0,0,0,.652-.27L24.9,43.6l-1.3-1.3-4.885,4.885L16.6,45.062l-1.3,1.3,2.769,2.769a.923.923,0,0,0,.652.27Z" transform="translate(-4.871 -5.106)" fill="#f9f9f9"/>
    <path id="Path_6321" data-name="Path 6321" d="M33,13h1.846v1.846H33Z" transform="translate(-6.236 -2.848)" fill="#0096b6"/>
    <path id="Path_6330" data-name="Path 6330" d="M33,13h1.846v1.846H33Z" transform="translate(-12.696 -2.848)" fill="#0096b6"/>
    <path id="Path_6322" data-name="Path 6322" d="M19,13h1.846v1.846H19Z" transform="translate(-5.156 -2.848)" fill="#0096b6"/>
    <path id="Path_6323" data-name="Path 6323" d="M10,22h3.692v1.846H10Z" transform="translate(-4.463 -3.542)" fill="#0096b6"/>
    <path id="Path_6324" data-name="Path 6324" d="M16,22H38.15v1.846H16Z" transform="translate(-4.925 -3.542)" fill="#0096b6"/>
    <path id="Path_6325" data-name="Path 6325" d="M10,26H35.841v1.846H10Z" transform="translate(-4.463 -3.85)" fill="#0096b6"/>
    <path id="Path_6326" data-name="Path 6326" d="M10,30H35.841v1.846H10Z" transform="translate(-4.463 -4.159)" fill="#0096b6"/>
    <path id="Path_6327" data-name="Path 6327" d="M10,34h3.692v1.846H10Z" transform="translate(-4.463 -4.467)" fill="#0096b6"/>
    <path id="Path_6328" data-name="Path 6328" d="M26,34H37.075v1.846H26Z" transform="translate(-5.696 -4.467)" fill="#0096b6"/>
    <path id="Path_6329" data-name="Path 6329" d="M31,38h7.383v1.846H31Z" transform="translate(-6.082 -4.776)" fill="#0096b6"/>
  </g>
</svg>
