<svg xmlns="http://www.w3.org/2000/svg" width="70" height="65" viewBox="0 0 70 65">
  <g id="standard-traning-serv-icon" transform="translate(-1604 -695.583)">
    <rect id="icon-base" width="70" height="65" transform="translate(1604 695.583)" fill="none"/>
    <g id="Group_2478" data-name="Group 2478" transform="translate(1607 696.583)">
      <g id="Group_2480" data-name="Group 2480" transform="translate(1.058 1.058)">
        <rect id="Rectangle_886" data-name="Rectangle 886" width="52.89" height="31.734" transform="translate(4.231 2.116)" fill="#7bbdcb"/>
        <rect id="Rectangle_887" data-name="Rectangle 887" width="49.716" height="31.734" transform="translate(4.231 2.116)" fill="#99d5e2"/>
        <circle id="Ellipse_121" data-name="Ellipse 121" cx="4.231" cy="4.231" r="4.231" transform="translate(26.445 40.196)" fill="#c8edf5"/>
        <path id="Path_6635" data-name="Path 6635" d="M203.8,411.7v-5.591a6.354,6.354,0,0,1,12.694,0V411.7Z" transform="translate(-179.471 -351.408)" fill="#99d5e2"/>
        <circle id="Ellipse_122" data-name="Ellipse 122" cx="4.231" cy="4.231" r="4.231" transform="translate(46.543 40.196)" fill="#c8edf5"/>
        <path id="Path_6636" data-name="Path 6636" d="M365.933,411.7v-5.591a6.354,6.354,0,0,1,12.694,0V411.7Z" transform="translate(-321.506 -351.408)" fill="#99d5e2"/>
        <circle id="Ellipse_123" data-name="Ellipse 123" cx="4.231" cy="4.231" r="4.231" transform="translate(6.347 40.196)" fill="#c8edf5"/>
        <path id="Path_6637" data-name="Path 6637" d="M41.667,411.689V406.1a6.354,6.354,0,0,1,12.694,0v5.591Z" transform="translate(-37.436 -351.395)" fill="#99d5e2"/>
        <g id="Group_2478-2" data-name="Group 2478" transform="translate(0 0)">
          <path id="Path_6638" data-name="Path 6638" d="M9.649,7.533H66.77a2.116,2.116,0,0,1,2.116,2.116h0a2.116,2.116,0,0,1-2.116,2.116H9.649A2.116,2.116,0,0,1,7.533,9.649h0A2.116,2.116,0,0,1,9.649,7.533Z" transform="translate(-7.533 -7.533)" fill="#7bbdcb"/>
          <path id="Path_6639" data-name="Path 6639" d="M9.649,263.533H66.77a2.116,2.116,0,0,1,2.116,2.116h0a2.116,2.116,0,0,1-2.116,2.116H9.649a2.116,2.116,0,0,1-2.116-2.116h0A2.116,2.116,0,0,1,9.649,263.533Z" transform="translate(-7.533 -231.799)" fill="#7bbdcb"/>
        </g>
        <g id="Group_2479" data-name="Group 2479" transform="translate(0 0)">
          <path id="Path_6640" data-name="Path 6640" d="M9.594,7.533H63.651a2.061,2.061,0,0,1,2.061,2.061V9.7a2.061,2.061,0,0,1-2.061,2.061H9.594A2.061,2.061,0,0,1,7.533,9.7v-.11A2.061,2.061,0,0,1,9.594,7.533Z" transform="translate(-7.533 -7.533)" fill="#c8edf5"/>
          <path id="Path_6641" data-name="Path 6641" d="M9.594,263.533H63.651a2.061,2.061,0,0,1,2.061,2.061v.11a2.061,2.061,0,0,1-2.061,2.061H9.594A2.061,2.061,0,0,1,7.533,265.7v-.11A2.061,2.061,0,0,1,9.594,263.533Z" transform="translate(-7.533 -231.799)" fill="#c8edf5"/>
        </g>
        <path id="Path_6642" data-name="Path 6642" d="M272.283,149.613v7.013l-5.257,2.232a7.59,7.59,0,0,1-1.957.539l4.041-1.714v-6.728Z" transform="translate(-233.145 -132.001)" fill="#99d5e2"/>
        <path id="Path_6643" data-name="Path 6643" d="M200.485,150.957v6.728l-4.041,1.714a8.255,8.255,0,0,1-4.453-.539l-5.257-2.232v-7.013l6.876,2.92,1.343.571a.561.561,0,0,0,.487,0Z" transform="translate(-164.52 -132.002)" fill="#e9fafe"/>
        <path id="Path_6644" data-name="Path 6644" d="M171.152,82.879l-3.184,1.354-1.65.7L158.1,88.422a.561.561,0,0,1-.487,0l-8.219-3.491-4.834-2.052a.856.856,0,0,1-.159-1.4.591.591,0,0,1,.159-.106l13.053-5.543a.56.56,0,0,1,.487,0l13.053,5.543a.85.85,0,0,1,0,1.5Z" transform="translate(-127.18 -67.319)" fill="#99d5e2"/>
        <path id="Path_6645" data-name="Path 6645" d="M167.968,94.549l-1.65.7L158.1,98.738a.561.561,0,0,1-.487,0l-8.219-3.491-4.834-2.052a.856.856,0,0,1-.159-1.4l9.869-4.189a.561.561,0,0,1,.487,0l13.053,5.543a.856.856,0,0,1,.159,1.4Z" transform="translate(-127.18 -77.635)" fill="#e9fafe"/>
        <path id="Path_6646" data-name="Path 6646" d="M8.592,468.333H67.828a1.058,1.058,0,0,1,1.058,1.058v2.116a1.058,1.058,0,0,1-1.058,1.058H8.592a1.058,1.058,0,0,1-1.058-1.058v-2.116A1.058,1.058,0,0,1,8.592,468.333Z" transform="translate(-7.534 -411.212)" fill="#7bbdcb"/>
        <path id="Path_6647" data-name="Path 6647" d="M8.564,468.333H64.682a1.03,1.03,0,0,1,1.03,1.03v2.171a1.03,1.03,0,0,1-1.03,1.03H8.564a1.03,1.03,0,0,1-1.03-1.03v-2.171A1.03,1.03,0,0,1,8.564,468.333Z" transform="translate(-7.534 -411.212)" fill="#c8edf5"/>
      </g>
      <g id="Group_2481" data-name="Group 2481" transform="translate(0)">
        <path id="Path_6648" data-name="Path 6648" d="M60.294,6.347a3.173,3.173,0,0,0,0-6.347H3.173a3.173,3.173,0,0,0,0,6.347H4.231V31.734H3.173a3.173,3.173,0,0,0,0,6.347H60.294a3.173,3.173,0,0,0,0-6.347H59.237V6.347ZM2.116,3.173A1.059,1.059,0,0,1,3.173,2.116H60.294a1.058,1.058,0,0,1,0,2.116H3.173A1.059,1.059,0,0,1,2.116,3.173ZM61.352,34.907a1.059,1.059,0,0,1-1.058,1.058H3.173a1.058,1.058,0,1,1,0-2.116H60.294A1.059,1.059,0,0,1,61.352,34.907Zm-4.231-3.173H6.347V6.347H57.121V31.734Z" transform="translate(0)" fill="#0096b6"/>
        <path id="Path_6649" data-name="Path 6649" d="M137.589,84.058A1.058,1.058,0,0,0,138.647,83V77.822l3.173,1.348v6.312l0,.012a1.055,1.055,0,0,0,.079.391q.109.171.224.338a1.057,1.057,0,0,0,.343.234l5.26,2.233a9.31,9.31,0,0,0,7.23,0l5.254-2.231a1.058,1.058,0,0,0,.342-.234q.115-.167.224-.338a1.056,1.056,0,0,0,.079-.391l0-.012V79.17l4.189-1.78a1.9,1.9,0,0,0,0-3.447L152,68.4a1.667,1.667,0,0,0-1.314,0l-13.053,5.547a1.851,1.851,0,0,0-1.1,1.724V83A1.058,1.058,0,0,0,137.589,84.058Zm21.156.725-4.607,1.956a7.205,7.205,0,0,1-5.589,0l-4.613-1.959V80.07l6.748,2.867a1.667,1.667,0,0,0,1.313,0l6.748-2.867v4.713Zm-7.4-14.367L163.7,75.667l-4.3,1.827-.009,0-8.046,3.419L143.294,77.5l-.009,0-4.3-1.827Z" transform="translate(-119.606 -59.8)" fill="#0096b6"/>
        <path id="Path_6650" data-name="Path 6650" d="M61.352,340.953H59.236v-1.36a7.076,7.076,0,0,0-3.971-6.287,5.289,5.289,0,1,0-6.868,0,7.076,7.076,0,0,0-3.971,6.287v1.36H39.138v-1.36a7.076,7.076,0,0,0-3.971-6.287,5.289,5.289,0,1,0-6.868,0,7.076,7.076,0,0,0-3.971,6.287v1.36H19.04v-1.36a7.076,7.076,0,0,0-3.971-6.287,5.289,5.289,0,1,0-6.868,0,7.076,7.076,0,0,0-3.971,6.287v1.36H2.116A2.118,2.118,0,0,0,0,343.069v2.116A2.118,2.118,0,0,0,2.116,347.3H61.352a2.118,2.118,0,0,0,2.116-2.116v-2.116A2.118,2.118,0,0,0,61.352,340.953ZM48.658,329.318a3.173,3.173,0,1,1,3.173,3.173A3.173,3.173,0,0,1,48.658,329.318Zm-2.116,10.276a5.3,5.3,0,0,1,10.578,0v1.36H46.543v-1.36ZM28.56,329.318a3.173,3.173,0,1,1,3.173,3.173A3.173,3.173,0,0,1,28.56,329.318Zm-2.116,10.276a5.3,5.3,0,0,1,10.578,0v1.36H26.445v-1.36ZM8.462,329.318a3.173,3.173,0,1,1,3.173,3.173A3.173,3.173,0,0,1,8.462,329.318ZM6.347,339.593a5.15,5.15,0,0,1,5.289-4.987,5.15,5.15,0,0,1,5.289,4.987v1.36H6.347Zm-4.231,5.591v-2.116H61.352v2.116Z" transform="translate(0 -283.832)" fill="#0096b6"/>
      </g>
    </g>
  </g>
</svg>
