<svg xmlns="http://www.w3.org/2000/svg" width="40.54" height="38.609" viewBox="0 0 40.54 38.609">
  <g id="table-clock-icon" transform="translate(-2 -3)">
    <path id="Path_3083" data-name="Path 3083" d="M36.748,17.015V6.861A3.861,3.861,0,0,0,32.887,3H5.861A3.872,3.872,0,0,0,2,6.861V30.026a3.861,3.861,0,0,0,3.861,3.861H16.826A13.508,13.508,0,1,0,36.748,17.015m-3.861-6.293v4.421a14.03,14.03,0,0,0-3.861-.56A13.4,13.4,0,0,0,21.3,17.015V10.722H32.887m-27.026,0H17.444v7.722H5.861V10.722m0,19.3V22.3H16.826A13.552,13.552,0,0,0,15.513,28.1a12.807,12.807,0,0,0,.154,1.93H5.861m23.165,7.722A9.652,9.652,0,1,1,38.679,28.1,9.656,9.656,0,0,1,29.026,37.748Z" transform="translate(0 0)" fill="#fa8c32"/>
    <path id="Path_6261" data-name="Path 6261" d="M0,0H2.808V5.535L7.664,8.379,6.338,10.692,0,7.02Z" transform="translate(26.949 22.314)" fill="#c8c8c8"/>
  </g>
</svg>
