<svg xmlns="http://www.w3.org/2000/svg" width="37.357" height="46.099" viewBox="0 0 37.357 46.099">
  <g id="tasks-icon" transform="translate(-1320.006 -217.624)">
    <g id="solid_clipboard-check" data-name="solid clipboard-check" transform="translate(1324.006 221.624)" fill="none">
      <path d="M25.688,4.762H19.571a4.895,4.895,0,0,0-9.786,0H3.67A3.623,3.623,0,0,0,0,8.334V34.528A3.623,3.623,0,0,0,3.67,38.1H25.688a3.623,3.623,0,0,0,3.67-3.572V8.334A3.623,3.623,0,0,0,25.688,4.762ZM14.679,2.977a1.787,1.787,0,1,1-1.835,1.786A1.807,1.807,0,0,1,14.679,2.977Z" stroke="none"/>
      <path d="M 14.67860698699951 0 C 11.97988700866699 0 9.785736083984375 2.135643005371094 9.785736083984375 4.762413024902344 L 3.669647216796875 4.762413024902344 C 1.643697738647461 4.762413024902344 -3.814697265625e-06 6.36229133605957 -3.814697265625e-06 8.334220886230469 L -3.814697265625e-06 34.52750015258789 C -3.814697265625e-06 36.49944305419922 1.643697738647461 38.09932327270508 3.669647216796875 38.09932327270508 L 25.68755722045898 38.09932327270508 C 27.7135066986084 38.09932327270508 29.35721778869629 36.49944305419922 29.35721778869629 34.52750015258789 L 29.35721778869629 8.334220886230469 C 29.35721778869629 6.36229133605957 27.7135066986084 4.762413024902344 25.68755722045898 4.762413024902344 L 19.57147598266602 4.762413024902344 C 19.57147598266602 2.135643005371094 17.37732696533203 0 14.67860698699951 0 M 14.67860698699951 6.548320770263672 C 13.6618070602417 6.548320770263672 12.84377670288086 5.752101898193359 12.84377670288086 4.762413024902344 C 12.84377670288086 3.772720336914063 13.6618070602417 2.976512908935547 14.67860698699951 2.976512908935547 C 15.69540691375732 2.976512908935547 16.51343727111816 3.772720336914063 16.51343727111816 4.762413024902344 C 16.51343727111816 5.752101898193359 15.69540691375732 6.548320770263672 14.67860698699951 6.548320770263672 M 14.67860698699951 -4 C 18.12072944641113 -4 21.11220550537109 -2.063369750976563 22.58967971801758 0.7624130249023438 L 25.68755722045898 0.7624130249023438 C 29.91661643981934 0.7624130249023438 33.35721588134766 4.159111022949219 33.35721588134766 8.334220886230469 L 33.35721588134766 34.52750015258789 C 33.35721588134766 38.70262145996094 29.91661643981934 42.09932327270508 25.68755722045898 42.09932327270508 L 3.669647216796875 42.09932327270508 C -0.5594139099121094 42.09932327270508 -4.000001907348633 38.70262145996094 -4.000001907348633 34.52750015258789 L -4.000001907348633 8.334220886230469 C -4.000001907348633 4.159111022949219 -0.5594139099121094 0.7624130249023438 3.669647216796875 0.7624130249023438 L 6.767534255981445 0.7624130249023438 C 8.24500846862793 -2.063369750976563 11.23648452758789 -4 14.67860698699951 -4 Z" stroke="none" fill="#0096b6"/>
    </g>
    <path id="Union_3" data-name="Union 3" d="M5.66,13.662.652,8.654a2,2,0,0,1,0-2.829l.6-.6a2,2,0,0,1,2.829,0l2.97,2.97L14.311.677A2,2,0,0,1,17.14.627l.61.589a2,2,0,0,1,.05,2.828L8.548,13.625a2.028,2.028,0,0,1-2.888.037Z" transform="translate(1329.34 238.579)" fill="#32bb80"/>
  </g>
</svg>
