<svg id="task-full-icon" xmlns="http://www.w3.org/2000/svg" width="90.081" height="110.868" viewBox="0 0 90.081 110.868">
  <path id="Path_6373" data-name="Path 6373" d="M6.929,16H83.151a6.93,6.93,0,0,1,6.929,6.929v93.545a6.93,6.93,0,0,1-6.929,6.929H6.929A6.93,6.93,0,0,1,0,116.474V22.929A6.93,6.93,0,0,1,6.929,16Zm0,0" transform="translate(0 -12.535)" fill="#969eae"/>
  <path id="Path_6374" data-name="Path 6374" d="M32,118.727v-63.8A6.93,6.93,0,0,1,38.929,48h62.363a6.93,6.93,0,0,1,6.929,6.929v79.687a6.93,6.93,0,0,1-6.929,6.929H54.818Zm0,0" transform="translate(-25.071 -37.606)" fill="#f8fbff"/>
  <path id="Path_6375" data-name="Path 6375" d="M54.818,381.554v15.889L32,374.625H47.889A6.929,6.929,0,0,1,54.818,381.554Zm0,0" transform="translate(-25.071 -293.504)" fill="#717e98"/>
  <path id="Path_6377" data-name="Path 6377" d="M128,13.859V0h34.646V13.859a6.93,6.93,0,0,1-6.929,6.929H134.929A6.93,6.93,0,0,1,128,13.859Zm0,0" transform="translate(-100.283)" fill="#48c8ef"/>
  <path id="Path_6378" data-name="Path 6378" d="M134.568,184.715,124.33,174.477a3.464,3.464,0,1,1,4.9-4.9l5.65,5.651,22.673-19.835a3.464,3.464,0,0,1,4.563,5.214Zm0,0" transform="translate(-96.612 -121.073)" fill="#34c688"/>
  <circle id="Ellipse_116" data-name="Ellipse 116" cx="4" cy="4" r="4" transform="translate(6.289 96)" fill="#fff"/>
</svg>
