<svg xmlns="http://www.w3.org/2000/svg" width="70" height="65" viewBox="0 0 70 65">
  <g id="tech-support-serv-icon" transform="translate(-1604 -695.583)">
    <rect id="icon-base" width="70" height="65" transform="translate(1604 695.583)" fill="none"/>
    <g id="Group_2456" data-name="Group 2456" transform="translate(1606 695.083)">
      <g id="Group_2456-2" data-name="Group 2456" transform="translate(8.065 1)">
        <path id="Path_6478" data-name="Path 6478" d="M59.613,32.712V20.9L55.3,19.462a22.422,22.422,0,0,0-1.109-2.647l2.042-4.082L47.879,4.383,43.8,6.425a22.5,22.5,0,0,0-2.647-1.109L39.712,1H27.9L26.462,5.316a22.423,22.423,0,0,0-2.647,1.109L19.734,4.383l-8.351,8.351,2.042,4.082a22.5,22.5,0,0,0-1.109,2.647L8,20.9v11.81l4.316,1.439a22.734,22.734,0,0,0,1.1,2.625l-1.894,3.451h.611V42.29H23.484L24.5,41.274l-.651-.015A17.547,17.547,0,1,1,43.1,41.7l-.6-.013a2.059,2.059,0,0,1-1.462.607h4.13a2.065,2.065,0,1,1,0,4.129,2.051,2.051,0,0,1,1.923,2.8l.872-.008,8.27-8.335L54.188,36.8A22.664,22.664,0,0,0,55.3,34.151Z" transform="translate(-8 -1)" fill="#99d5e2"/>
      </g>
      <g id="Group_2457" data-name="Group 2457" transform="translate(6 8.226)">
        <path id="Path_6481" data-name="Path 6481" d="M52.452,26.581A18.581,18.581,0,1,0,22.2,41.032H13.226V38.968H6V59.613h7.226v-3.1h7.831l3.1,3.1h5.589v1.032a4.129,4.129,0,1,0,8.258,0V59.613h7.227a3.084,3.084,0,0,0,2.292-5.161,3.049,3.049,0,0,0,0-4.129,3.049,3.049,0,0,0,0-4.129,3.071,3.071,0,0,0-2.007-5.132A18.468,18.468,0,0,0,52.452,26.581ZM11.161,57.548h-3.1V41.032h3.1Zm13.847,0-3.1-3.1H13.226V43.1h10.75L28.1,38.968H41.1a1.032,1.032,0,0,1,0,2.065H30.347l-4.431,4.431,1.46,1.46,2.367-2.367V57.548ZM40.669,36.9H38V32.169l4.129-4.129V22.452A4.133,4.133,0,0,0,38,18.323H35.935v5.766l-.427.427H32.234l-.427-.427V18.323H29.742a4.133,4.133,0,0,0-4.129,4.129V28.04l4.129,4.129V36.9H27.25l-.065.065A12.381,12.381,0,1,1,40.669,36.9Zm-9.29-10.323h4.984L38,24.943V20.387a2.067,2.067,0,0,1,2.065,2.065v4.734L36.54,30.71H31.2l-3.524-3.524V22.452a2.067,2.067,0,0,1,2.065-2.065v4.556Zm.427,6.194h4.129V36.9H31.806ZM46.259,48.258a1.033,1.033,0,0,1-1.032,1.032H36.968a1.032,1.032,0,1,1,0-2.065h8.259A1.033,1.033,0,0,1,46.259,48.258Zm0,4.129a1.033,1.033,0,0,1-1.032,1.032H36.968a1.032,1.032,0,0,1,0-2.065h8.259A1.033,1.033,0,0,1,46.259,52.387ZM33.871,62.71a2.067,2.067,0,0,1-2.065-2.065V43.1h2.254a3,3,0,0,0,.615,3.1,3.049,3.049,0,0,0,0,4.129,3.049,3.049,0,0,0,0,4.129,3.068,3.068,0,0,0,1.259,4.971v1.222A2.067,2.067,0,0,1,33.871,62.71Zm11.356-5.161H36.968a1.032,1.032,0,0,1,0-2.065h8.259a1.032,1.032,0,1,1,0,2.065Zm1.032-13.419a1.033,1.033,0,0,1-1.032,1.032H36.968a1.032,1.032,0,0,1,0-2.065h8.259A1.033,1.033,0,0,1,46.259,44.129ZM44.144,39.51a3.073,3.073,0,0,0-1.028-1.837,14.452,14.452,0,1,0-17.434.8L24.2,39.958a16.513,16.513,0,1,1,19.948-.448Z" transform="translate(-6 -8)" fill="#0096b6"/>
      </g>
    </g>
  </g>
</svg>
