<svg xmlns="http://www.w3.org/2000/svg" width="70" height="65" viewBox="0 0 70 65">
  <g id="training-request-serv-icon" transform="translate(-1604 -695.583)">
    <rect id="icon-base" width="70" height="65" transform="translate(1604 695.583)" fill="none"/>
    <g id="Group_2473" data-name="Group 2473" transform="translate(823 -714.417)">
      <g id="Group_2474" data-name="Group 2474" transform="translate(786.719 1411.246)">
        <path id="Path_6511" data-name="Path 6511" d="M194.283,146.467,182,142.132v8.335a1.842,1.842,0,0,0,1.842,1.842H208.4a1.842,1.842,0,0,0,1.842-1.842v-8.335l-12.284,4.336a5.526,5.526,0,0,1-3.679,0Z" transform="translate(-161.368 -128.975)" fill="#99d5e2"/>
        <path id="Path_6512" data-name="Path 6512" d="M113.229,10.947l20.878,7.369a1.842,1.842,0,0,0,1.226,0l18.422-6.5v7.221a1.842,1.842,0,0,0,3.684,0V9.21a1.842,1.842,0,0,0-1.229-1.737L135.333.1a1.841,1.841,0,0,0-1.226,0L113.229,7.473a1.842,1.842,0,0,0,0,3.474Z" transform="translate(-99.965 0.001)" fill="#99d5e2"/>
        <path id="Path_6513" data-name="Path 6513" d="M154.338,291l-6.968,9.112a7.369,7.369,0,0,1-5.853,2.893H128.579a1.842,1.842,0,0,1,0-3.684h11.214a4.366,4.366,0,0,0,4.382-4.382,4.3,4.3,0,0,0-4.3-4.214H126.983a10.668,10.668,0,0,0-13.6-.991l-1.387.991V311.6h32.036a11.053,11.053,0,0,0,9.3-5.076l7.189-11.183A3.781,3.781,0,0,0,154.338,291Z" transform="translate(-100.824 -252.778)" fill="#99d5e2"/>
        <path id="Path_6514" data-name="Path 6514" d="M8.228,282H1.842A1.842,1.842,0,0,0,0,283.842V308.4a1.842,1.842,0,0,0,1.842,1.842H8.228A1.842,1.842,0,0,0,10.07,308.4V283.842A1.842,1.842,0,0,0,8.228,282Z" transform="translate(0 -247.491)" fill="#99d5e2"/>
      </g>
      <g id="Group_2473-2" data-name="Group 2473" transform="translate(785 1411)">
        <path id="Path_6509" data-name="Path 6509" d="M113.229,10.947l7.368,2.6v10.4a1.842,1.842,0,0,0,1.842,1.842H147a1.842,1.842,0,0,0,1.842-1.842v-10.4l4.912-1.734v7.221a1.842,1.842,0,0,0,3.684,0V9.21a1.842,1.842,0,0,0-1.229-1.737L135.333.1a1.841,1.841,0,0,0-1.226,0L113.229,7.473a1.842,1.842,0,0,0,0,3.474ZM145.158,22.1H124.281V14.848l9.826,3.468a1.842,1.842,0,0,0,1.226,0l9.826-3.468ZM134.72,3.8,150.062,9.21,134.72,14.625,119.377,9.21Z" transform="translate(-98.245 0.001)" fill="#0096b6"/>
        <path id="Path_6510" data-name="Path 6510" d="M59.058,272.386a5.55,5.55,0,0,0-6.271,1.911l-6.86,8.971c0-.049,0-.1,0-.146a6.147,6.147,0,0,0-6.14-6.14H27.6A12.519,12.519,0,0,0,13.755,275.4v-.264a1.842,1.842,0,0,0-1.842-1.842H1.842A1.842,1.842,0,0,0,0,275.139V299.7a1.842,1.842,0,0,0,1.842,1.842h10.07a1.842,1.842,0,0,0,1.842-1.842v-1.842H43.949A12.842,12.842,0,0,0,54.8,291.937l7.189-11.183a5.613,5.613,0,0,0,.893-3.041A5.55,5.55,0,0,0,59.058,272.386ZM10.07,297.859H3.684V276.981H10.07Zm48.816-19.1L51.7,289.945a9.173,9.173,0,0,1-7.748,4.23H13.755v-14.4l.616-.44a8.83,8.83,0,0,1,11.248.82,1.842,1.842,0,0,0,1.277.514H39.79a2.456,2.456,0,1,1,0,4.912H26.65a1.842,1.842,0,0,0,0,3.684H41.43a9.265,9.265,0,0,0,7.317-3.616l6.968-9.112a1.939,1.939,0,0,1,3.48,1.178,1.936,1.936,0,0,1-.308,1.049Z" transform="translate(0 -238.665)" fill="#0096b6"/>
      </g>
    </g>
  </g>
</svg>
