<svg xmlns="http://www.w3.org/2000/svg" width="70" height="65" viewBox="0 0 70 65">
  <g id="traininig-plan-serv-icon" transform="translate(-1604 -695.583)">
    <rect id="icon-base" width="70" height="65" transform="translate(1604 695.583)" fill="none"/>
    <g id="Group_2476" data-name="Group 2476" transform="translate(1607 696.583)">
      <path id="Path_6515" data-name="Path 6515" d="M23,1V21h1a3,3,0,0,0,3-3,2,2,0,0,1,4,0,7,7,0,0,1-7,7H23v6H63V1Z" fill="#99d5e2"/>
      <path id="Path_6516" data-name="Path 6516" d="M19,8.5V9.87c-1.72-2.24-2.76-2.65-4-2.39V7.47l1.99-4.06A7.42,7.42,0,0,1,19,8.5Z" fill="#99d5e2"/>
      <path id="Path_6517" data-name="Path 6517" d="M16.99,3.41,15,7.47v.01c-1.87.38-4.19,2.33-10,1.65-.32-.04-.66-.09-1-.14V8.5A7.487,7.487,0,0,1,16.99,3.41Z" fill="#99d5e2"/>
      <path id="Path_6518" data-name="Path 6518" d="M15,18.32v2.67l-1,1-2-1-2,1L9,21V18.31a6.948,6.948,0,0,0,6,0Z" fill="#99d5e2"/>
      <path id="Path_6519" data-name="Path 6519" d="M5,11.99V9.13c5.81.68,8.13-1.27,10-1.649,1.24-.261,2.28.149,4,2.39V12a6.973,6.973,0,0,1-4,6.31,6.948,6.948,0,0,1-6,0A6.973,6.973,0,0,1,5,12Z" fill="#d4f7ff"/>
      <path id="Path_6520" data-name="Path 6520" d="M17,7.855V12a6.973,6.973,0,0,1-4,6.31,6.812,6.812,0,0,1-2,.6,6.78,6.78,0,0,0,4-.6A6.972,6.972,0,0,0,19,12V9.87a8.41,8.41,0,0,0-2-2.015Z" fill="#99d5e2"/>
      <path id="Path_6521" data-name="Path 6521" d="M5,31H1V25a4,4,0,0,1,4-4H9l1,.99,2-1,2,1,1-1L23,21h1a3,3,0,0,0,3-3,2,2,0,0,1,4,0,7,7,0,0,1-7,7H19v6Z" fill="#99d5e2"/>
      <path id="Path_6522" data-name="Path 6522" d="M43,23a2,2,0,0,1,0,4H37a2,2,0,0,1,0-4h6Z" fill="#fff"/>
      <path id="Path_6523" data-name="Path 6523" d="M43,5a2,2,0,0,1,0,4H37a2,2,0,0,1,0-4Z" fill="#fff"/>
      <path id="Path_6524" data-name="Path 6524" d="M45,16l-5,3-5-3,5-3Z" fill="#def3f8"/>
      <path id="Path_6525" data-name="Path 6525" d="M54,18H49V14H59v4Z" fill="#fff"/>
      <path id="Path_6526" data-name="Path 6526" d="M54,51a7.943,7.943,0,0,0,7-4,6.973,6.973,0,0,1-4,6.31,6.948,6.948,0,0,1-6,0A6.972,6.972,0,0,1,47,47,7.943,7.943,0,0,0,54,51Z" fill="#d6f3f9"/>
      <path id="Path_6527" data-name="Path 6527" d="M58,36v3a2.994,2.994,0,0,1,3,2.99V47a8.125,8.125,0,0,1-14,0V41.99A5.99,5.99,0,0,1,53,36Z" fill="#99d5e2"/>
      <path id="Path_6528" data-name="Path 6528" d="M58.436,49.718A6.981,6.981,0,0,1,55,53.31a6.76,6.76,0,0,1-2,.6,6.774,6.774,0,0,0,4-.6A6.972,6.972,0,0,0,61,47,7.843,7.843,0,0,1,58.436,49.718Z" fill="#85c4d2"/>
      <path id="Path_6529" data-name="Path 6529" d="M58,39V36H56v3h0a2,2,0,0,0,2,2,.992.992,0,0,1,1,.99V47a6.939,6.939,0,0,1-.563,2.718A7.84,7.84,0,0,0,61,47V41.99A2.994,2.994,0,0,0,58,39Z" fill="#85c4d2"/>
      <path id="Path_6530" data-name="Path 6530" d="M54,53.99a6.831,6.831,0,0,0,3-.681V56.99H51V53.31a6.876,6.876,0,0,0,3,.68Z" fill="#85c4d2"/>
      <path id="Path_6531" data-name="Path 6531" d="M63,59.99V63H45V59.99a3,3,0,0,1,3-3V57h3v-.01h6V57h3v-.01A3,3,0,0,1,63,59.99Z" fill="#99d5e2"/>
      <path id="Path_6532" data-name="Path 6532" d="M55,56.99h2V57H55Z" fill="#5c9eff"/>
      <path id="Path_6533" data-name="Path 6533" d="M60,56.99V57H58.1A3,3,0,0,1,61,59.99V63h2V59.99A3,3,0,0,0,60,56.99Z" fill="#85c4d2"/>
      <path id="Path_6534" data-name="Path 6534" d="M48,57v-.01c-.033,0-.063.009-.1.01Z" fill="#5c9eff"/>
      <path id="Path_6535" data-name="Path 6535" d="M29,56.99V54h6v2.99l-3,1Z" fill="#d6f3f9"/>
      <path id="Path_6536" data-name="Path 6536" d="M41,44.04V54H23V44.04a9,9,0,0,1,18,0Z" fill="#99d5e2"/>
      <path id="Path_6537" data-name="Path 6537" d="M32,35.04a8.939,8.939,0,0,0-1,.059,9,9,0,0,1,8,8.941V54h2V44.04A9,9,0,0,0,32,35.04Z" fill="#85c4d2"/>
      <path id="Path_6538" data-name="Path 6538" d="M26,57h3v-.01l3,1,3-1V57h3v-.01a3,3,0,0,1,3,3V63H23V59.99a3,3,0,0,1,3-3Z" fill="#99d5e2"/>
      <path id="Path_6539" data-name="Path 6539" d="M38,56.99V57H36.1A3,3,0,0,1,39,59.99V63h2V59.99A3,3,0,0,0,38,56.99Z" fill="#85c4d2"/>
      <path id="Path_6540" data-name="Path 6540" d="M13,56.99H7V53.31a6.948,6.948,0,0,0,6,0v3.68Z" fill="#fff"/>
      <path id="Path_6541" data-name="Path 6541" d="M19,59.99V63H1V59.99a3,3,0,0,1,3-3V57H7v-.01h6V57h3v-.01A3,3,0,0,1,19,59.99Z" fill="#fff"/>
      <path id="Path_6542" data-name="Path 6542" d="M4,57v-.01c-.033,0-.063.009-.1.01Z" fill="#d7e9ff"/>
      <path id="Path_6543" data-name="Path 6543" d="M16,56.99V57H14.1A3,3,0,0,1,17,59.99V63h2V59.99a3,3,0,0,0-3-3Z" fill="#85c4d2"/>
      <path id="Path_6544" data-name="Path 6544" d="M10,53.99a6.863,6.863,0,0,1-3-.681A6.97,6.97,0,0,1,3,47a7.943,7.943,0,0,0,7,4,7.943,7.943,0,0,0,7-4,6.973,6.973,0,0,1-4,6.31A6.844,6.844,0,0,1,10,53.99Z" fill="#d6f3f9"/>
      <path id="Path_6545" data-name="Path 6545" d="M17,46.99V47a7.943,7.943,0,0,1-7,4,7.943,7.943,0,0,1-7-4V42.99a7,7,0,0,1,14,0Z" fill="#99d5e2"/>
      <path id="Path_6546" data-name="Path 6546" d="M14.436,49.718A6.981,6.981,0,0,1,11,53.31a6.76,6.76,0,0,1-2,.6,7,7,0,0,0,1,.079,6.831,6.831,0,0,0,3-.681A6.972,6.972,0,0,0,17,47,7.832,7.832,0,0,1,14.436,49.718Z" fill="#85c4d2"/>
      <path id="Path_6547" data-name="Path 6547" d="M10,36a6.959,6.959,0,0,0-1,.079H9a6.986,6.986,0,0,1,6,6.911V47a6.939,6.939,0,0,1-.563,2.718A7.84,7.84,0,0,0,17,47V42.99A6.993,6.993,0,0,0,10,36Z" fill="#85c4d2"/>
      <g id="Group_2476-2" data-name="Group 2476">
        <path id="Path_6548" data-name="Path 6548" d="M63,32H23a1,1,0,0,1-1-1V25a1,1,0,0,1,2,0v5H62V2H24V21a1,1,0,0,1-2,0V1a1,1,0,0,1,1-1H63a1,1,0,0,1,1,1V31A1,1,0,0,1,63,32Z" fill="#0096b6"/>
        <path id="Path_6549" data-name="Path 6549" d="M5,32a1,1,0,0,1-1-1V26a1,1,0,0,1,2,0v5A1,1,0,0,1,5,32Z" fill="#0096b6"/>
        <path id="Path_6550" data-name="Path 6550" d="M9,22H5a1,1,0,0,1,0-2H9a1,1,0,0,1,0,2Z" fill="#0096b6"/>
        <path id="Path_6551" data-name="Path 6551" d="M1,26a1,1,0,0,1-1-1,5.006,5.006,0,0,1,5-5,1,1,0,0,1,0,2,3,3,0,0,0-3,3A1,1,0,0,1,1,26Z" fill="#0096b6"/>
        <path id="Path_6552" data-name="Path 6552" d="M1,32a1,1,0,0,1-1-1V25a1,1,0,0,1,2,0v6A1,1,0,0,1,1,32Z" fill="#0096b6"/>
        <path id="Path_6553" data-name="Path 6553" d="M19,32a1,1,0,0,1-1-1V25a1,1,0,0,1,2,0v6A1,1,0,0,1,19,32Z" fill="#0096b6"/>
        <path id="Path_6554" data-name="Path 6554" d="M24,26H19a1,1,0,0,1,0-2h5a1,1,0,0,1,0,2Z" fill="#0096b6"/>
        <path id="Path_6555" data-name="Path 6555" d="M31,19a1,1,0,0,1-1-1,1,1,0,0,0-2,0,1,1,0,0,1-2,0,3,3,0,0,1,6,0A1,1,0,0,1,31,19Z" fill="#0096b6"/>
        <path id="Path_6556" data-name="Path 6556" d="M24,26a1,1,0,0,1,0-2,6.006,6.006,0,0,0,6-6,1,1,0,0,1,2,0A8.009,8.009,0,0,1,24,26Z" fill="#0096b6"/>
        <path id="Path_6557" data-name="Path 6557" d="M24,22a1,1,0,0,1,0-2,2,2,0,0,0,2-2,1,1,0,0,1,2,0A4,4,0,0,1,24,22Z" fill="#0096b6"/>
        <path id="Path_6558" data-name="Path 6558" d="M61,43a1,1,0,0,1-1-1,2,2,0,0,0-2-2,1,1,0,0,1,0-2,4.006,4.006,0,0,1,4,4A1,1,0,0,1,61,43Z" fill="#0096b6"/>
        <path id="Path_6559" data-name="Path 6559" d="M58,40a1,1,0,0,1-1-1V36a1,1,0,0,1,2,0v3A1,1,0,0,1,58,40Z" fill="#0096b6"/>
        <path id="Path_6560" data-name="Path 6560" d="M47,43a1,1,0,0,1-1-1,7.009,7.009,0,0,1,7-7,1,1,0,0,1,0,2,5.006,5.006,0,0,0-5,5A1,1,0,0,1,47,43Z" fill="#0096b6"/>
        <path id="Path_6561" data-name="Path 6561" d="M58,37H53a1,1,0,0,1,0-2h5a1,1,0,0,1,0,2Z" fill="#0096b6"/>
        <path id="Path_6562" data-name="Path 6562" d="M54,52a8.9,8.9,0,0,1-7.9-4.553,1,1,0,0,1,1.787-.9,7.13,7.13,0,0,0,12.213.005,1,1,0,1,1,1.789.9A8.9,8.9,0,0,1,54,52Z" fill="#0096b6"/>
        <path id="Path_6563" data-name="Path 6563" d="M47,48a1,1,0,0,1-1-1V42a1,1,0,0,1,2,0v5A1,1,0,0,1,47,48Z" fill="#0096b6"/>
        <path id="Path_6564" data-name="Path 6564" d="M61,48a1,1,0,0,1-1-1V42a1,1,0,0,1,2,0v5A1,1,0,0,1,61,48Z" fill="#0096b6"/>
        <path id="Path_6565" data-name="Path 6565" d="M45,60.995a1,1,0,0,1-1-1,4,4,0,0,1,4-4,1,1,0,0,1,0,2,2,2,0,0,0-2,2A1,1,0,0,1,45,60.995Z" fill="#0096b6"/>
        <path id="Path_6566" data-name="Path 6566" d="M51,58H48a1,1,0,0,1,0-2h3a1,1,0,0,1,0,2Z" fill="#0096b6"/>
        <path id="Path_6567" data-name="Path 6567" d="M45,64a1,1,0,0,1-1-1V59.995a1,1,0,1,1,2,0V63A1,1,0,0,1,45,64Z" fill="#0096b6"/>
        <path id="Path_6568" data-name="Path 6568" d="M63,60.995a1,1,0,0,1-1-1,2,2,0,0,0-2-2,1,1,0,0,1,0-2,4,4,0,0,1,4,4A1,1,0,0,1,63,60.995Z" fill="#0096b6"/>
        <path id="Path_6569" data-name="Path 6569" d="M60,58H57a1,1,0,0,1,0-2h3a1,1,0,0,1,0,2Z" fill="#0096b6"/>
        <path id="Path_6570" data-name="Path 6570" d="M63,64a1,1,0,0,1-1-1V59.995a1,1,0,1,1,2,0V63A1,1,0,0,1,63,64Z" fill="#0096b6"/>
        <path id="Path_6571" data-name="Path 6571" d="M63,64H45a1,1,0,0,1,0-2H63a1,1,0,0,1,0,2Z" fill="#0096b6"/>
        <path id="Path_6572" data-name="Path 6572" d="M51,58a1,1,0,0,1-1-1V53.318a1,1,0,0,1,2,0V57A1,1,0,0,1,51,58Z" fill="#0096b6"/>
        <path id="Path_6573" data-name="Path 6573" d="M57,57.995a1,1,0,0,1-1-1V53.318a1,1,0,0,1,2,0V57a1,1,0,0,1-1,1Z" fill="#0096b6"/>
        <path id="Path_6574" data-name="Path 6574" d="M54,54.992a8.008,8.008,0,0,1-8-8,1,1,0,1,1,2,0,6,6,0,0,0,12,0,1,1,0,1,1,2,0A8.008,8.008,0,0,1,54,54.992Z" fill="#0096b6"/>
        <path id="Path_6575" data-name="Path 6575" d="M57,57.995H51a1,1,0,0,1,0-2h6a1,1,0,0,1,0,2Z" fill="#0096b6"/>
        <path id="Path_6576" data-name="Path 6576" d="M10,52a8.9,8.9,0,0,1-7.895-4.553,1,1,0,0,1,1.787-.9A6.905,6.905,0,0,0,10,50a6.943,6.943,0,0,0,6.1-3.447,1,1,0,0,1,1.789.9A8.9,8.9,0,0,1,10,52Z" fill="#0096b6"/>
        <path id="Path_6577" data-name="Path 6577" d="M3,48a1,1,0,0,1-1-1V43a1,1,0,0,1,2,0v4A1,1,0,0,1,3,48Z" fill="#0096b6"/>
        <path id="Path_6578" data-name="Path 6578" d="M17,48a1,1,0,0,1-1-1V43a1,1,0,0,1,2,0v4A1,1,0,0,1,17,48Z" fill="#0096b6"/>
        <path id="Path_6579" data-name="Path 6579" d="M1,60.995a1,1,0,0,1-1-1,4,4,0,0,1,4-4,1,1,0,0,1,0,2,2,2,0,0,0-2,2A1,1,0,0,1,1,60.995Z" fill="#0096b6"/>
        <path id="Path_6580" data-name="Path 6580" d="M7,58H4a1,1,0,0,1,0-2H7a1,1,0,0,1,0,2Z" fill="#0096b6"/>
        <path id="Path_6581" data-name="Path 6581" d="M1,64a1,1,0,0,1-1-1V59.995a1,1,0,0,1,2,0V63A1,1,0,0,1,1,64Z" fill="#0096b6"/>
        <path id="Path_6582" data-name="Path 6582" d="M19,60.995a1,1,0,0,1-1-1,2,2,0,0,0-2-2,1,1,0,0,1,0-2,4,4,0,0,1,4,4A1,1,0,0,1,19,60.995Z" fill="#0096b6"/>
        <path id="Path_6583" data-name="Path 6583" d="M16,58H13a1,1,0,0,1,0-2h3a1,1,0,0,1,0,2Z" fill="#0096b6"/>
        <path id="Path_6584" data-name="Path 6584" d="M19,64a1,1,0,0,1-1-1V59.995a1,1,0,1,1,2,0V63A1,1,0,0,1,19,64Z" fill="#0096b6"/>
        <path id="Path_6585" data-name="Path 6585" d="M19,64H1a1,1,0,0,1,0-2H19a1,1,0,0,1,0,2Z" fill="#0096b6"/>
        <path id="Path_6586" data-name="Path 6586" d="M7,58a1,1,0,0,1-1-1V53.318a1,1,0,0,1,2,0V57A1,1,0,0,1,7,58Z" fill="#0096b6"/>
        <path id="Path_6587" data-name="Path 6587" d="M13,57.995a1,1,0,0,1-1-1V53.318a1,1,0,0,1,2,0V57a1,1,0,0,1-1,1Z" fill="#0096b6"/>
        <path id="Path_6588" data-name="Path 6588" d="M10,54.992a8.008,8.008,0,0,1-8-8,1,1,0,0,1,2,0,6,6,0,0,0,12,0,1,1,0,0,1,2,0A8.008,8.008,0,0,1,10,54.992Z" fill="#0096b6"/>
        <path id="Path_6589" data-name="Path 6589" d="M17,44a1,1,0,0,1-1-1A6,6,0,0,0,4,43a1,1,0,0,1-2,0,8,8,0,0,1,16,0A1,1,0,0,1,17,44Z" fill="#0096b6"/>
        <path id="Path_6590" data-name="Path 6590" d="M13,57.995H7a1,1,0,0,1,0-2h6a1,1,0,0,1,0,2Z" fill="#0096b6"/>
        <path id="Path_6591" data-name="Path 6591" d="M41,55a1,1,0,0,1-1-1V44.042a1,1,0,0,1,2,0V54A1,1,0,0,1,41,55Z" fill="#0096b6"/>
        <path id="Path_6592" data-name="Path 6592" d="M41,55H23a1,1,0,0,1,0-2H41a1,1,0,0,1,0,2Z" fill="#0096b6"/>
        <path id="Path_6593" data-name="Path 6593" d="M23,55a1,1,0,0,1-1-1V44.042a1,1,0,0,1,2,0V54A1,1,0,0,1,23,55Z" fill="#0096b6"/>
        <path id="Path_6594" data-name="Path 6594" d="M41,45.042a1,1,0,0,1-1-1,8,8,0,0,0-16,0,1,1,0,0,1-2,0,10,10,0,0,1,20,0A1,1,0,0,1,41,45.042Z" fill="#0096b6"/>
        <path id="Path_6595" data-name="Path 6595" d="M23,60.995a1,1,0,0,1-1-1,4,4,0,0,1,4-4,1,1,0,0,1,0,2,2,2,0,0,0-2,2A1,1,0,0,1,23,60.995Z" fill="#0096b6"/>
        <path id="Path_6596" data-name="Path 6596" d="M29,58H26a1,1,0,0,1,0-2h3a1,1,0,0,1,0,2Z" fill="#0096b6"/>
        <path id="Path_6597" data-name="Path 6597" d="M23,64a1,1,0,0,1-1-1V59.995a1,1,0,1,1,2,0V63A1,1,0,0,1,23,64Z" fill="#0096b6"/>
        <path id="Path_6598" data-name="Path 6598" d="M41,60.995a1,1,0,0,1-1-1,2,2,0,0,0-2-2,1,1,0,0,1,0-2,4,4,0,0,1,4,4A1,1,0,0,1,41,60.995Z" fill="#0096b6"/>
        <path id="Path_6599" data-name="Path 6599" d="M38,58H35a1,1,0,0,1,0-2h3a1,1,0,0,1,0,2Z" fill="#0096b6"/>
        <path id="Path_6600" data-name="Path 6600" d="M41,64a1,1,0,0,1-1-1V59.995a1,1,0,1,1,2,0V63A1,1,0,0,1,41,64Z" fill="#0096b6"/>
        <path id="Path_6601" data-name="Path 6601" d="M41,64H23a1,1,0,0,1,0-2H41a1,1,0,0,1,0,2Z" fill="#0096b6"/>
        <path id="Path_6602" data-name="Path 6602" d="M29,58a1,1,0,0,1-1-1V55.318a1,1,0,0,1,2,0V57A1,1,0,0,1,29,58Z" fill="#0096b6"/>
        <path id="Path_6603" data-name="Path 6603" d="M35,57.995a1,1,0,0,1-1-1V55.318a1,1,0,0,1,2,0V57a1,1,0,0,1-1,1Z" fill="#0096b6"/>
        <path id="Path_6604" data-name="Path 6604" d="M32,58.995a1,1,0,0,1-.316-.052l-3-1a1,1,0,0,1,.633-1.9l3,1A1,1,0,0,1,32,59Z" fill="#0096b6"/>
        <path id="Path_6605" data-name="Path 6605" d="M32,58.995a1,1,0,0,1-.316-1.949l3-1a1,1,0,1,1,.633,1.9l-3,1a.983.983,0,0,1-.317.052Z" fill="#0096b6"/>
        <path id="Path_6606" data-name="Path 6606" d="M5,13a1,1,0,0,1-1-1V9.132a1,1,0,0,1,2,0V12A1,1,0,0,1,5,13Z" fill="#0096b6"/>
        <path id="Path_6607" data-name="Path 6607" d="M19,13a1,1,0,0,1-1-1V8.5a1,1,0,0,1,2,0V12A1,1,0,0,1,19,13Z" fill="#0096b6"/>
        <path id="Path_6608" data-name="Path 6608" d="M19,9.5a1,1,0,0,1-1-1,6.5,6.5,0,0,0-13,0,1,1,0,0,1-2,0,8.5,8.5,0,0,1,17,0A1,1,0,0,1,19,9.5Z" fill="#0096b6"/>
        <path id="Path_6609" data-name="Path 6609" d="M19,10.87a1,1,0,0,1-.8-.392c-1.93-2.522-2.455-2.314-4.414-1.538A16.838,16.838,0,0,1,3.844,9.982a1,1,0,1,1,.313-1.974,14.913,14.913,0,0,0,8.9-.927c2.411-.956,4.027-1.359,6.738,2.181A1,1,0,0,1,19,10.87Z" fill="#0096b6"/>
        <path id="Path_6610" data-name="Path 6610" d="M15,8.476a1,1,0,0,1-.9-1.441l2-4.071a1,1,0,1,1,1.8.881l-2,4.071a1,1,0,0,1-.9.56Z" fill="#0096b6"/>
        <path id="Path_6611" data-name="Path 6611" d="M24,22l-9,0a1,1,0,0,1,0-2h0l9,0a1,1,0,0,1,0,2Z" fill="#0096b6"/>
        <path id="Path_6612" data-name="Path 6612" d="M9,22a1,1,0,0,1-1-1V18.318a1,1,0,0,1,2,0V21A1,1,0,0,1,9,22Z" fill="#0096b6"/>
        <path id="Path_6613" data-name="Path 6613" d="M15,22a1,1,0,0,1-1-1V18.318a1,1,0,0,1,2,0V21A1,1,0,0,1,15,22Z" fill="#0096b6"/>
        <path id="Path_6614" data-name="Path 6614" d="M12,19.992a8.008,8.008,0,0,1-8-8,1,1,0,1,1,2,0,6,6,0,0,0,12,0,1,1,0,1,1,2,0A8.008,8.008,0,0,1,12,19.992Z" fill="#0096b6"/>
        <path id="Path_6615" data-name="Path 6615" d="M10,23A1,1,0,0,1,9.552,21.1l2-1a1,1,0,0,1,.9,1.789l-2,1A.991.991,0,0,1,10,23Z" fill="#0096b6"/>
        <path id="Path_6616" data-name="Path 6616" d="M14,23a1,1,0,0,1-.707-1.707l1-1A1,1,0,0,1,15.707,21.7l-1,1A1,1,0,0,1,14,23Z" fill="#0096b6"/>
        <path id="Path_6617" data-name="Path 6617" d="M10,23a1,1,0,0,1-.707-.293l-1-1a1,1,0,0,1,1.414-1.414l1,1A1,1,0,0,1,10,23Z" fill="#0096b6"/>
        <path id="Path_6618" data-name="Path 6618" d="M14,23a1,1,0,0,1-.446-.1l-2-1a1,1,0,0,1,.9-1.789l2,1A1,1,0,0,1,14,23Z" fill="#0096b6"/>
        <path id="Path_6619" data-name="Path 6619" d="M4,9.995a1,1,0,0,1-1-1V8.5a1,1,0,0,1,2,0v.5A1,1,0,0,1,4,9.995Z" fill="#0096b6"/>
        <path id="Path_6620" data-name="Path 6620" d="M37,10a3,3,0,0,1,0-6,1,1,0,0,1,0,2,1,1,0,0,0,0,2,1,1,0,0,1,0,2Z" fill="#0096b6"/>
        <path id="Path_6621" data-name="Path 6621" d="M43,10a1,1,0,0,1,0-2,1,1,0,0,0,0-2,1,1,0,0,1,0-2,3,3,0,0,1,0,6Z" fill="#0096b6"/>
        <path id="Path_6622" data-name="Path 6622" d="M43,6H37a1,1,0,0,1,0-2h6a1,1,0,0,1,0,2Z" fill="#0096b6"/>
        <path id="Path_6623" data-name="Path 6623" d="M43,10H37a1,1,0,0,1,0-2h6a1,1,0,0,1,0,2Z" fill="#0096b6"/>
        <path id="Path_6624" data-name="Path 6624" d="M37,28a3,3,0,0,1,0-6,1,1,0,0,1,0,2,1,1,0,0,0,0,2,1,1,0,0,1,0,2Z" fill="#0096b6"/>
        <path id="Path_6625" data-name="Path 6625" d="M43,28a1,1,0,0,1,0-2,1,1,0,0,0,0-2,1,1,0,0,1,0-2,3,3,0,0,1,0,6Z" fill="#0096b6"/>
        <path id="Path_6626" data-name="Path 6626" d="M43,24H37a1,1,0,0,1,0-2h6a1,1,0,0,1,0,2Z" fill="#0096b6"/>
        <path id="Path_6627" data-name="Path 6627" d="M43,28H37a1,1,0,0,1,0-2h6a1,1,0,0,1,0,2Z" fill="#0096b6"/>
        <path id="Path_6628" data-name="Path 6628" d="M40,14a1,1,0,0,1-1-1V9a1,1,0,0,1,2,0v4A1,1,0,0,1,40,14Z" fill="#0096b6"/>
        <path id="Path_6629" data-name="Path 6629" d="M40,20a1,1,0,0,1-.515-.143l-5-3a1,1,0,0,1,0-1.714l5-3a1,1,0,0,1,1.029,0l5,3a1,1,0,0,1,0,1.714l-5,3A1,1,0,0,1,40,20Zm-3.056-4L40,17.835,43.053,16,40,14.167Z" fill="#0096b6"/>
        <path id="Path_6630" data-name="Path 6630" d="M59,19H49a1,1,0,0,1-1-1V14a1,1,0,0,1,1-1H59a1,1,0,0,1,1,1v4A1,1,0,0,1,59,19Zm-9-2h8V15H50Z" fill="#0096b6"/>
        <path id="Path_6631" data-name="Path 6631" d="M40,24a1,1,0,0,1-1-1V19a1,1,0,1,1,2,0v4A1,1,0,0,1,40,24Z" fill="#0096b6"/>
        <path id="Path_6632" data-name="Path 6632" d="M49,17H45a1,1,0,0,1,0-2h4a1,1,0,0,1,0,2Z" fill="#0096b6"/>
        <path id="Path_6633" data-name="Path 6633" d="M54,26a1,1,0,0,1-1-1V18a1,1,0,0,1,2,0v7A1,1,0,0,1,54,26Z" fill="#0096b6"/>
        <path id="Path_6634" data-name="Path 6634" d="M54,26H45a1,1,0,1,1,0-2h9a1,1,0,0,1,0,2Z" fill="#0096b6"/>
      </g>
    </g>
  </g>
</svg>
