<svg xmlns="http://www.w3.org/2000/svg" width="70" height="65" viewBox="0 0 70 65">
  <g id="translation-serv-icon" transform="translate(-1604 -695.583)">
    <rect id="icon-base" width="70" height="65" transform="translate(1604 695.583)" fill="none"/>
    <g id="Group_2454" data-name="Group 2454" transform="translate(1608 696.583)">
      <path id="Path_6469" data-name="Path 6469" d="M268.732,85.333H244.358a1.309,1.309,0,0,0-.405.064l-.308.1a1.29,1.29,0,0,0-.812,1.63l0,.012,12.895,37.863-8.492,9.75a1.293,1.293,0,0,0,.122,1.819,1.279,1.279,0,0,0,.845.318h20.525a6.429,6.429,0,0,0,6.414-6.445V91.778A6.43,6.43,0,0,0,268.732,85.333Z" transform="translate(-212.978 -74.972)" fill="#b9dae1"/>
      <path id="Path_6470" data-name="Path 6470" d="M260.758,406.092a1.3,1.3,0,0,0-1.179-.759H246.628a1.3,1.3,0,0,0-1.212,1.751l3.886,10.361a1.3,1.3,0,0,0,.982.819,1.438,1.438,0,0,0,.231.021,1.3,1.3,0,0,0,.974-.443l9.066-10.361A1.3,1.3,0,0,0,260.758,406.092Z" transform="translate(-215.544 -356.117)" fill="#006175"/>
      <path id="Path_6477" data-name="Path 6477" d="M-24.686-63.6a1.99,1.99,0,0,1-1.446-.509,1.9,1.9,0,0,1-.524-1.43V-84.071a1.9,1.9,0,0,1,.524-1.43,1.99,1.99,0,0,1,1.446-.509h11.475a2.212,2.212,0,0,1,1.43.413,1.429,1.429,0,0,1,.509,1.176,1.512,1.512,0,0,1-.509,1.224,2.155,2.155,0,0,1-1.43.429h-9.44V-76.6h8.8a2.212,2.212,0,0,1,1.43.413,1.465,1.465,0,0,1,.509,1.208,1.429,1.429,0,0,1-.509,1.176,2.212,2.212,0,0,1-1.43.413h-8.8v6.548h9.44a2.155,2.155,0,0,1,1.43.429,1.512,1.512,0,0,1,.509,1.224,1.429,1.429,0,0,1-.509,1.176,2.212,2.212,0,0,1-1.43.413Z" transform="translate(66.168 110.838)" fill="#1f4157"/>
      <path id="Path_6475" data-name="Path 6475" d="M45.261,50.092,28.424.876A1.3,1.3,0,0,0,27.2,0H6.476A6.476,6.476,0,0,0,0,6.476V45.331a6.476,6.476,0,0,0,6.476,6.476h37.56a1.3,1.3,0,0,0,1.225-1.715Z" transform="translate(0)" fill="#0096b6"/>
      <path id="Path_6476" data-name="Path 6476" d="M-10.047-44.456a16.124,16.124,0,0,1-3.039,1.482,9.9,9.9,0,0,0-2.233,1.4,4.209,4.209,0,0,0-1.113,1.41,3.265,3.265,0,0,0-.3,1.3,3.045,3.045,0,0,0,.236,1.14,2.753,2.753,0,0,0,.83,1.079,4.7,4.7,0,0,0,1.612.809,8.908,8.908,0,0,0,2.6.317,15.73,15.73,0,0,0,2.408-.2c.841-.13,1.988-.521,2.651.2a1.5,1.5,0,0,1-.178,2.268,4.635,4.635,0,0,1-2.486,1.03,15.709,15.709,0,0,1-2.462.2,11.8,11.8,0,0,1-3.582-.486,6.923,6.923,0,0,1-2.516-1.369,5.56,5.56,0,0,1-1.491-2.1,7.044,7.044,0,0,1-.492-2.671,7.018,7.018,0,0,1,.708-3.218A7.948,7.948,0,0,1-16.991-44.3a8.425,8.425,0,0,1-1.187-2.024,6.244,6.244,0,0,1-.459-2.415,5.588,5.588,0,0,1,.526-2.455,5.569,5.569,0,0,1,1.437-1.862,6.6,6.6,0,0,1,2.111-1.187A7.739,7.739,0,0,1-12-54.657q.364,0,.756.034A1.607,1.607,0,0,1-9.8-52.68c-.369,1.508-3.492,1.6-3.883,1.672a3.09,3.09,0,0,0-1.052.4,2.178,2.178,0,0,0-.749.789,2.514,2.514,0,0,0-.283,1.255,4.455,4.455,0,0,0,.25,1.437,3.5,3.5,0,0,0,.789,1.3,18.772,18.772,0,0,1,2.557-1.113c.886-.31,2.185-.725,2.759,0S-8.938-45.255-10.047-44.456Z" transform="translate(31.472 69.232)" fill="#fff"/>
    </g>
  </g>
</svg>
