<svg xmlns="http://www.w3.org/2000/svg" width="18.341" height="17.145" viewBox="0 0 18.341 17.145">
  <g id="user-o-icon" transform="translate(0 -3)">
    <path id="XMLID_1253_" d="M9.17,13.785a5.393,5.393,0,1,0-5.363-5.4A5.381,5.381,0,0,0,9.17,13.785Zm0-9.19A3.788,3.788,0,1,1,5.4,8.383,3.782,3.782,0,0,1,9.17,4.595ZM11.662,14.3a.8.8,0,0,0-.758.159L9.17,15.938,7.436,14.463a.812.812,0,0,0-.758-.159C5.562,14.662,0,16.576,0,19.347a.8.8,0,0,0,.8.8H17.543a.8.8,0,0,0,.8-.8C18.341,16.576,12.779,14.662,11.662,14.3ZM2.013,18.55a13.6,13.6,0,0,1,4.745-2.572l1.894,1.615a.788.788,0,0,0,1.037,0l1.894-1.615a14.279,14.279,0,0,1,4.745,2.572Z" transform="translate(0 0)" fill="#fff"/>
  </g>
</svg>
