<svg xmlns="http://www.w3.org/2000/svg" width="79.996" height="53.324" viewBox="0 0 79.996 53.324">
  <path id="vision-logo" d="M69.569,37.347A10.48,10.48,0,0,1,58.7,26.858V26.8A10.578,10.578,0,0,1,69.628,16.251,10.481,10.481,0,0,1,80.5,26.741V26.8A10.578,10.578,0,0,1,69.569,37.347ZM75.781,26.8a6.213,6.213,0,0,0-6.211-6.41,6.115,6.115,0,0,0-6.153,6.351V26.8a6.212,6.212,0,0,0,6.211,6.411,6.116,6.116,0,0,0,6.153-6.352ZM77.8,11.016a1.317,1.317,0,0,1-.535.453,1.9,1.9,0,0,1-.815.157,2.754,2.754,0,0,1-.731-.1l.237-.861a1.729,1.729,0,0,0,.247.056,1.689,1.689,0,0,0,.214.011,1.056,1.056,0,0,0,.422-.072.568.568,0,0,0,.259-.235A1.213,1.213,0,0,0,77.236,10a4.33,4.33,0,0,0,.04-.643V3.094h.9V9.356a4.788,4.788,0,0,1-.084.944A1.917,1.917,0,0,1,77.8,11.016Zm-6.135.61a3.413,3.413,0,0,1-.8-.1,8.154,8.154,0,0,1-.916-.284l.281-.861a4.283,4.283,0,0,0,.759.268,3.262,3.262,0,0,0,.747.078,1.873,1.873,0,0,0,1.137-.3,1.174,1.174,0,0,0,.4-1.006V8.535l-.3.631h-.237a5.715,5.715,0,0,1-1.428-.174,3.548,3.548,0,0,1-1.186-.537,2.6,2.6,0,0,1-.809-.928,2.869,2.869,0,0,1-.3-1.358,2.813,2.813,0,0,1,.27-1.224,2.889,2.889,0,0,1,.76-.974,3.685,3.685,0,0,1,1.175-.643,4.66,4.66,0,0,1,1.517-.235h1.44v6.24a2.315,2.315,0,0,1-.6,1.672A2.555,2.555,0,0,1,71.669,11.626ZM72.337,4V4a2.7,2.7,0,0,0-.882.156,2.551,2.551,0,0,0-.782.442,2.2,2.2,0,0,0-.55.688,1.89,1.89,0,0,0-.209.883,2.005,2.005,0,0,0,.191.895,1.909,1.909,0,0,0,.529.66,2.382,2.382,0,0,0,.782.408,3.119,3.119,0,0,0,.95.14h.911V4.255L73.791,4Zm-.131-2.53a1.167,1.167,0,0,1,.276-.861,1.092,1.092,0,0,1,.793-.269h.635V.962h-.618a.366.366,0,0,0-.277.077.416.416,0,0,0-.072.263v.207h1.235V2.2h-1.97ZM66.335,13.323v-.895h.9v.895Zm-1.8,0v-.895h.9v.895Zm-14.2-1.945a1.309,1.309,0,0,1-.534-.453c-.021-.03-.038-.062-.057-.093v.67h-1.87a4.09,4.09,0,0,1-4.157-4.181V7.3a4.129,4.129,0,0,1,4.18-4.2h2.431v6.17a4.491,4.491,0,0,0,.038.643,1.23,1.23,0,0,0,.135.425.566.566,0,0,0,.259.234,1.04,1.04,0,0,0,.422.073H66.649V3.094h.9v8.441h-16.4A1.9,1.9,0,0,1,50.332,11.378Zm-2.46-7.436a3.2,3.2,0,0,0-3.2,3.333V7.3A3.239,3.239,0,0,0,47.9,10.654H49.65a2.128,2.128,0,0,1-.139-.444,4.794,4.794,0,0,1-.085-.945V4.215l.551-.273ZM49.426,1.3h.9V2.2h-.9Zm-1.8,0h.9V2.2h-.9ZM43.355,20.448V16.6H57.213v3.38L52.027,24.9c2.783.467,5.509,1.923,5.509,5.711v.058c0,3.847-2.813,6.673-7.384,6.673a9.975,9.975,0,0,1-8-3.526l3.106-2.943a6.268,6.268,0,0,0,4.951,2.448c1.7,0,2.9-.962,2.9-2.477v-.057c0-1.662-1.495-2.594-4.014-2.594H47.222l-.7-2.856L53.1,18.76l-2.637,1.688Zm-2.6,9.492,1.573-.858.863,1.564-1.573.858Zm-.071-6.963.771-1.612,1.619.767-.77,1.611Zm-2.148-1.063.619-1.293,1.3.615-.618,1.293ZM33.4,3.929l.529,1.224v6.331H33v-8.4h.893l5.713,7.227L39.217,9.28v-6.2h.929v8.4h-.761Zm-.589,14.529-.809-.772.776-.8.809.772ZM30.5,15.942l1-1.033,1.038.991-1,1.033Zm-3.38-4.314a4.227,4.227,0,0,1-4.3-4.32V7.284a4.308,4.308,0,1,1,8.616-.024v.024A4.267,4.267,0,0,1,27.123,11.629Zm3.33-4.344a3.348,3.348,0,0,0-3.33-3.468A3.308,3.308,0,0,0,23.816,7.26v.024a3.348,3.348,0,0,0,3.33,3.468,3.307,3.307,0,0,0,3.306-3.443ZM22.9,17.622l-1.783-.19.19-1.774,1.783.19ZM20.23,3.084h.953v8.4H20.23Zm.832,19.166-1.25.709L19.1,21.715l1.25-.71Zm-4.556.458,1.558-.884.89,1.55-1.559.883Zm-.733-11.1a4.956,4.956,0,0,1-3.45-1.344l.59-.7a4.038,4.038,0,0,0,2.9,1.188c1.134,0,1.882-.6,1.882-1.428V9.3c0-.781-.422-1.224-2.2-1.6C13.552,7.284,12.66,6.66,12.66,5.28V5.256c0-1.321,1.17-2.292,2.776-2.292A4.419,4.419,0,0,1,18.4,4l-.555.731a3.723,3.723,0,0,0-2.437-.911c-1.1,0-1.8.6-1.8,1.356V5.2c0,.792.434,1.236,2.293,1.631,1.882.409,2.75,1.093,2.75,2.377v.023C18.657,10.668,17.451,11.6,15.773,11.6ZM9.905,3.084h.953v8.4H9.905Zm-5.771,8.46L.5,3.084H1.565l.519,1.251L4.568,10.32l.238.573L4.714,9.97,7.585,3.084H8.611l-3.632,8.46ZM1.081,43.6a2.032,2.032,0,0,1,.67-.365,2.764,2.764,0,0,1,.876-.13h.81v2.963H5.484V43.1H6v3.475H2.626a3.133,3.133,0,0,1-.811-.1,2.013,2.013,0,0,1-.676-.313,1.57,1.57,0,0,1-.463-.538A1.641,1.641,0,0,1,.5,44.844a1.594,1.594,0,0,1,.151-.69A1.625,1.625,0,0,1,1.081,43.6Zm.045,1.76a1.128,1.128,0,0,0,.3.383,1.361,1.361,0,0,0,.444.241,1.762,1.762,0,0,0,.544.083h.509V43.615H2.414A1.572,1.572,0,0,0,1.9,43.7a1.428,1.428,0,0,0-.448.25,1.28,1.28,0,0,0-.315.39,1.062,1.062,0,0,0-.12.5A1.172,1.172,0,0,0,1.126,45.36Zm.526,6.423L3.4,49.943H4.2L2.666,51.516l1.6,2.084H3.481L2.225,51.954l-.573.586V53.6H1.006V49.943h.646ZM5.2,47.712H4.668v-.526H5.2ZM5.5,53.6H4.853V49.943H5.5Zm.6-5.889H5.571v-.526H6.1Zm2.963,4.76V49.943H9.7V53.6H9.158L7.13,51v2.6H6.494V49.943h.6ZM6.719,46.579v-.512H9.133V44.581a1.539,1.539,0,0,0-.042-.383A.781.781,0,0,0,8.94,43.9a.828.828,0,0,0-.277-.208.814.814,0,0,0-.354-.08h-.45V43.1h.38a1.536,1.536,0,0,1,.621.111,1.379,1.379,0,0,1,.46.337A1.177,1.177,0,0,1,9.568,44a1.931,1.931,0,0,1,.08.563h0v2.016ZM2.905,42.511v-.526h.53v.526Zm-.9,0v-.526h.529v.526Zm13.862-9.39V37H.688V33.443l6.827-5.565c2.55-2.1,3.546-3.206,3.546-4.9a2.51,2.51,0,0,0-2.755-2.651c-1.583,0-2.666.873-4.19,2.738L.952,20.535C2.974,17.8,4.938,16.309,8.6,16.309c4.249,0,7.061,2.477,7.061,6.295v.057c0,3.41-1.758,5.1-5.39,7.9L5.787,34l-.87.669,3.129-1.546ZM11.054,43.6a2.122,2.122,0,0,1,.673-.368A2.67,2.67,0,0,1,12.6,43.1h.823v2.963H15.2l-.907-2.144a4.641,4.641,0,0,1,.428-.339,3.149,3.149,0,0,1,.975-.457,1.958,1.958,0,0,1,.5-.067,1.935,1.935,0,0,1,.5.067,2.805,2.805,0,0,1,.495.186,3.792,3.792,0,0,1,.477.275,4.564,4.564,0,0,1,.438.337l-.9,2.143h2.7V43.422h.515v2.643h1a1.087,1.087,0,0,0,.328-.048.756.756,0,0,0,.277-.153.731.731,0,0,0,.193-.269,1.01,1.01,0,0,0,.07-.4V43.423H22.8v1.811a.863.863,0,0,0,.083.349.9.9,0,0,0,.213.285,1,1,0,0,0,.322.192,1.154,1.154,0,0,0,.411.07.917.917,0,0,0,.721-.265,1.019,1.019,0,0,0,.238-.707V43.423h.515v1.651a2.233,2.233,0,0,1-.044.48.949.949,0,0,0,.405.384,1.616,1.616,0,0,0,.709.128h.843V41.984h.515v4.594H26.247v-.006a1.952,1.952,0,0,1-.37-.045,1.421,1.421,0,0,1-.357-.134.925.925,0,0,1-.242-.19,1.389,1.389,0,0,1-.157-.214,1.1,1.1,0,0,1-.5.493,1.777,1.777,0,0,1-.788.16,1.592,1.592,0,0,1-.766-.173,1.306,1.306,0,0,1-.509-.48,1.321,1.321,0,0,1-.473.429,1.365,1.365,0,0,1-.666.16h-8v.1a1.325,1.325,0,0,1-.341.957,1.464,1.464,0,0,1-1.095.355,2.014,2.014,0,0,1-.46-.054A4.8,4.8,0,0,1,11,47.768l.161-.493a2.446,2.446,0,0,0,.434.154,1.891,1.891,0,0,0,.429.045,1.072,1.072,0,0,0,.65-.173.672.672,0,0,0,.232-.577v-.147H12.6a3.279,3.279,0,0,1-.817-.1,2.046,2.046,0,0,1-.679-.307,1.5,1.5,0,0,1-.463-.531,1.655,1.655,0,0,1-.17-.777,1.616,1.616,0,0,1,.155-.7A1.643,1.643,0,0,1,11.054,43.6Zm5.61,2.462.8-1.965a2.046,2.046,0,0,0-.578-.342,1.823,1.823,0,0,0-.689-.138,1.855,1.855,0,0,0-.653.116,2.042,2.042,0,0,0-.609.364l.8,1.965Zm-5.574-.691a1.068,1.068,0,0,0,.3.377,1.361,1.361,0,0,0,.447.234,1.811,1.811,0,0,0,.544.08H12.9V43.621h-.521a1.559,1.559,0,0,0-.522.09,1.468,1.468,0,0,0-.447.253,1.244,1.244,0,0,0-.316.394,1.09,1.09,0,0,0-.119.505A1.152,1.152,0,0,0,11.09,45.375ZM12.4,49.88a1.994,1.994,0,0,1,1.413.5l-.41.486a1.445,1.445,0,0,0-1.03-.391,1.238,1.238,0,0,0-1.192,1.29v.01a1.223,1.223,0,0,0,1.25,1.306,1.506,1.506,0,0,0,.888-.277v-.684h-.941v-.559H13.94v1.536a2.348,2.348,0,0,1-1.534.57A1.82,1.82,0,0,1,10.5,51.782v-.01A1.868,1.868,0,0,1,12.4,49.88Zm5.763,1.881v.01A1.836,1.836,0,0,1,16.2,53.6h-1.37V49.943H16.2A1.829,1.829,0,0,1,18.158,51.761Zm-2.679,1.254H16.2a1.2,1.2,0,0,0,1.277-1.233v-.01A1.2,1.2,0,0,0,16.2,50.528h-.724Zm5.212-3.135a1.863,1.863,0,0,1,1.918,1.881v.01a1.923,1.923,0,0,1-3.846.01v-.01A1.879,1.879,0,0,1,20.691,49.88Zm-1.25,1.891a1.256,1.256,0,0,0,1.25,1.3,1.238,1.238,0,0,0,1.24-1.29v-.01a1.255,1.255,0,0,0-1.25-1.3,1.238,1.238,0,0,0-1.24,1.29Zm5.778-.1,1.119-1.73h.688V53.6H26.38V50.978L25.219,52.7H25.2l-1.15-1.714V53.6h-.636V49.943H24.1Zm3.159-15.446,1.056.975-.979,1.049L27.4,37.276ZM31.4,39.1l-1.221,1.307L28.869,39.2,30.09,37.89Zm-1.657,7.474h-.515V41.985h.515Zm1.567,3.3a1.863,1.863,0,0,1,1.918,1.881v.01a1.923,1.923,0,0,1-3.846.01v-.01A1.879,1.879,0,0,1,31.315,49.88Zm-1.25,1.891a1.256,1.256,0,0,0,1.25,1.3,1.238,1.238,0,0,0,1.24-1.29v-.01a1.255,1.255,0,0,0-1.25-1.3,1.238,1.238,0,0,0-1.24,1.29Zm2.4-6.147a1.641,1.641,0,0,1-.174-.781,1.594,1.594,0,0,1,.151-.69,1.625,1.625,0,0,1,.428-.554,2.027,2.027,0,0,1,.669-.365,2.768,2.768,0,0,1,.876-.13h.811v2.963h2.047V43.1h.515v2.963h1.943V43.1h.515v3.475H34.415a3.127,3.127,0,0,1-.81-.1,2.013,2.013,0,0,1-.676-.313A1.561,1.561,0,0,1,32.465,45.625Zm1.193.359a1.736,1.736,0,0,0,.544.083h.509V43.615H34.2a1.576,1.576,0,0,0-.515.087,1.407,1.407,0,0,0-.447.25,1.267,1.267,0,0,0-.316.39,1.074,1.074,0,0,0-.119.5,1.172,1.172,0,0,0,.11.516,1.14,1.14,0,0,0,.3.384A1.363,1.363,0,0,0,33.658,45.984Zm3.115,4.545H34.682v1h1.855v.585H34.682V53.6h-.646V49.943h2.737Zm.7-2.817H36.94v-.526h.529Zm.9,0h-.529v-.526h.529Zm1.354-.532h.529v.526h-.529Zm-1.1-16.15,1.263-.688.691,1.255-1.262.689Zm1.7-1.946-.692-1.255L40.9,27.14l.692,1.255Zm1.188-4.663L40.9,25.713,39.6,25.1l.618-1.293Zm-1.959,2.839-1.012-.479.482-1.007,1.012.479Zm-.032-3.944-.482,1.006-1.011-.478.481-1.007ZM36.9,19.722l-.259-1.408,1.416-.258.259,1.408Zm1.395-2.673-1.765.323L36.2,15.615l1.764-.322ZM36.336,21.3l-1.1.2-.2-1.1,1.1-.2Zm-.349-1.883-1.1.2-.2-1.1,1.1-.2ZM35.572,17.5l-1.416.258L33.9,16.35l1.416-.258ZM34.335,19.86l-1.1.2-.2-1.1,1.1-.2Zm.069.533.142.771-.776.142-.142-.771Zm-3.283,7.565c.127-.076.255-.147.383-.211a4.815,4.815,0,0,1,.449-.2l.084-.03a4.785,4.785,0,0,1,.847-.217,4.253,4.253,0,0,1,1.957.143,3.7,3.7,0,0,1,.711.306.016.016,0,0,1-.014.029,4.793,4.793,0,0,0-.7-.163,4.491,4.491,0,0,0-1.957.121,5.432,5.432,0,0,0-.847.323q-.274.13-.534.284-.194.117-.383.243c-.3.2-.584.42-.855.644.306.266.593.529.855.765.135.122.263.237.383.342a6.278,6.278,0,0,0,.534.429,1.7,1.7,0,0,0,.183.111.445.445,0,0,1,.664-.061.438.438,0,0,1,.126.217.5.5,0,0,1-.087.381c-.012.012-.026.023-.039.035a.7.7,0,0,1-.847.018A3.354,3.354,0,0,1,31.5,31.1c-.122-.1-.25-.21-.383-.33-.322-.291-.674-.633-1.059-.984q-.1-.1-.214-.193c-.074.064-.145.13-.216.195a10.6,10.6,0,0,1-2.1,1.739.637.637,0,0,1-.763-.111.424.424,0,0,1-.087-.38.444.444,0,0,1,.79-.156l.06-.034a20.616,20.616,0,0,0,1.894-1.613A8.4,8.4,0,0,0,27.534,28a4.9,4.9,0,0,0-1.591-.426,4.547,4.547,0,0,0-1.642.161c-.049.013-.1.027-.146.043a.016.016,0,0,1-.014-.029c.042-.024.1-.054.16-.085a4.122,4.122,0,0,1,1.642-.414,4.482,4.482,0,0,1,1.591.225c.069.023.137.046.208.072a6.962,6.962,0,0,1,1.684.993,18.118,18.118,0,0,0,.088-4.534A.007.007,0,0,0,29.5,24c-.677.424-.487,1.608-.345,1.947,0,.007-.007.011-.012.005a2.083,2.083,0,0,1-.257-2.363.007.007,0,0,0-.01-.009,2,2,0,0,0-.68,1.871.006.006,0,0,1-.012,0,1.967,1.967,0,0,1,.539-2.437c.006,0,0-.013-.005-.011a1.613,1.613,0,0,0-1.186,1.583c0,.01,0,.021,0,.03a.007.007,0,0,1-.013,0,1.736,1.736,0,0,1,.014-1.088,1.616,1.616,0,0,1,1.222-.974c.008,0,.006-.012,0-.013a1.552,1.552,0,0,0-1.22.326,1.046,1.046,0,0,0-.235.287c0,.006-.013,0-.013-.005a1.068,1.068,0,0,1,.248-.592,1.41,1.41,0,0,1,1.517-.374.007.007,0,0,0,.008-.01,1.008,1.008,0,0,0-1.181-.314.007.007,0,0,1-.008-.01.988.988,0,0,1,1.624.072.007.007,0,0,0,.011,0c.043-.078.086-.164.126-.256a3.094,3.094,0,0,0,.21-.7c0-.007.01-.007.011,0a3.018,3.018,0,0,0,.209.693,2.879,2.879,0,0,0,.127.259.007.007,0,0,0,.011,0,.96.96,0,0,1,.921-.456,1.043,1.043,0,0,1,.383.125,1.179,1.179,0,0,1,.321.259.006.006,0,0,1-.007.01.855.855,0,0,0-.314-.074,1.125,1.125,0,0,0-.383.045.9.9,0,0,0-.485.343.006.006,0,0,0,.008.01,1.209,1.209,0,0,1,.477-.085,1.575,1.575,0,0,1,.383.055,1.371,1.371,0,0,1,.533.279,1.065,1.065,0,0,1,.37.717.007.007,0,0,1-.012.005,1.109,1.109,0,0,0-.358-.381,1.39,1.39,0,0,0-.533-.21,1.857,1.857,0,0,0-.383-.031c-.058,0-.118,0-.182.01-.007,0-.009.012,0,.014a1.114,1.114,0,0,1,.183.04,1.691,1.691,0,0,1,.383.17,1.571,1.571,0,0,1,.533.513,1.622,1.622,0,0,1,.137,1.338.006.006,0,0,1-.012,0,1.8,1.8,0,0,0-.124-.654,1.582,1.582,0,0,0-.533-.717,1.438,1.438,0,0,0-.383-.2,1.256,1.256,0,0,0-.147-.043.006.006,0,0,0-.005.011c.054.048.105.1.152.144a2.229,2.229,0,0,1,.383.522,1.932,1.932,0,0,1,0,1.77s0,0,0,0-.009,0-.008-.006c0-.031.005-.065.008-.1a2.92,2.92,0,0,0,0-.454,1.835,1.835,0,0,0-.383-1.006,1.932,1.932,0,0,0-.305-.31c-.005,0-.015,0-.01.009a2.084,2.084,0,0,1-.258,2.363c0,.005-.015,0-.012-.006.142-.338.331-1.523-.344-1.947a.007.007,0,0,0-.01.005,18.125,18.125,0,0,0,.088,4.535A9.043,9.043,0,0,1,31.121,27.958Zm1.51-8.062-.546.566-.569-.543.546-.565Zm-.615-1.361-.777.8-.808-.772.776-.8Zm-1.531.935-.545.566-.57-.543.546-.566Zm-.635-1.454-.81-.771.777-.8.809.771Zm1.312-3.907-1.22,1.307L28.626,14.2l1.221-1.308Zm-2,1.791-1,1.033-1.038-.991,1-1.033Zm.137,2.541-.776.8-.809-.772.777-.8Zm-2.216,1.871.083-.78.784.083-.083.779Zm.246-3.057-.119,1.109L26.1,18.247l.118-1.109Zm-.7,1.657-.119,1.109L25.4,19.9l.119-1.108Zm-.72,2.451-.783-.083.083-.78.783.083Zm-.487-4.852-.153,1.423-1.431-.153.153-1.423Zm-.705,2.2L24.6,19.822,23.483,19.7,23.6,18.6Zm-.04,1.7-.119,1.109L23.444,21.4l.119-1.109Zm-1.763,4.631-.391-.682.685-.388.39.681Zm-.591-1.275-.556-.968.974-.552.555.968Zm-1-5.36,1.431.153L22.6,19.988l-1.431-.153Zm.6,3.609-.556-.969.974-.551.555.968Zm-.294,2.15-.973.552-.556-.969.974-.551Zm-1.52,1.3-1.25.71-.714-1.243,1.25-.71ZM16.764,31.22l.744-1.624,1.633.74L18.4,31.959ZM18.878,27.6l1.31.594-.6,1.3-1.31-.593Zm.52,4.47.6-1.3,1.31.593-.6,1.3Zm.891-2.095.464-1.015,1.019.463-.464,1.015Zm2.692,3.549.283,1.4-1.411.282-.283-1.4Zm-1.353,2.7,1.759-.35.351,1.75-1.759.351Zm2.6-14.17.391.681-.686.388-.39-.681Zm.489,9.042-.773.155-.155-.77.773-.154Zm-1.381-1.706-.718-.325.328-.714.717.326Zm.021-2.869-.327.713-.717-.324.327-.714Zm-.761-.945-.974.552-.555-.969.974-.552ZM19.731,27.05l.464-1.015,1.019.463-.464,1.015Zm1.82.172,1.019.463L22.105,28.7l-1.019-.464Zm1.126,5.755-1.02-.462.464-1.015,1.02.463ZM23.389,30l-.464,1.015-1.02-.463.465-1.015Zm.122,1.943,1.1-.219.22,1.093-1.1.219Zm.381,1.877,1.1-.219.22,1.093-1.1.219Zm.445,1.906,1.411-.282.283,1.4-1.411.281Zm.968-3.677.773-.154.154.769-.773.155Zm.23,1.3,1.1-.22.22,1.094-1.1.219Zm.783,2.194.763-.817.822.758-.763.817Zm.922-2.258.537-.574.578.533-.537.575Zm.637,1.351.763-.817.822.759-.763.817Zm1.413,1.3.763-.817.821.758-.763.817Zm1.483,1.287.979-1.05,1.056.975-.979,1.049Zm1.795-4.352-.1.778-.783-.1.1-.778Zm-3.175.805.537-.575.577.534-.537.575Zm2.537.861-.763.817-.821-.758.763-.817Zm.342,1.386.137-1.107,1.112.137-.137,1.106Zm.869-2.752,1.113.137-.137,1.107L33,34.275Zm.653,8.816h.529v.526h-.529Zm-.03-10.147.782.1-.1.777-.783-.1Zm1.15,2.671L35.05,33.4l1.113.137-.137,1.106Zm.067-1.7.137-1.106,1.113.137-.138,1.107Zm.138-10.678.775-.141.142.771-.776.141Zm.337,9.047-.379-.687.691-.377.379.688ZM36.82,28.2l.378.688-.69.377-.379-.688Zm.57,1.283.539.977L36.945,31l-.538-.977Zm-.9,7.909.219-1.771,1.782.22-.22,1.771Zm1.81-2.531-1.429-.176.177-1.421,1.428.177Zm-.538-3.62.539.977-.983.537-.539-.977Zm1.851-1.7-.983.537-.538-.977.982-.537Zm-1.93-.882-.539-.978.983-.536.539.977Zm.533-2.609-1.011-.478.482-1.007,1.012.479Zm-1.1,1.009-.711-.337.338-.709.711.337Zm-.643-3.2.711.337-.339.708-.711-.337ZM37.93,20.4l.2,1.1-1.1.2-.2-1.1Zm-1.5,2.842.482-1.006,1.012.478-.482,1.007ZM34.695,42.511v-.526h.529v.526Zm-.348-7.236,1.428.177L35.6,36.873,34.17,36.7Zm6.015,17.808c.4,0,.652-.183.652-.46v-.01c0-.262-.148-.4-.83-.56-.783-.187-1.224-.417-1.224-1.091v-.01a1.123,1.123,0,0,1,1.257-1.06,2.048,2.048,0,0,1,1.334.459l-.347.485a1.677,1.677,0,0,0-1-.376c-.378,0-.6.193-.6.434v.01c0,.282.168.407.872.575.777.188,1.182.465,1.182,1.07v.011c0,.684-.541,1.092-1.314,1.092a2.273,2.273,0,0,1-1.534-.586l.389-.46A1.7,1.7,0,0,0,40.362,53.083Zm.535-5.154.135-.493a.987.987,0,0,0,.141.032,1.011,1.011,0,0,0,.123.006.6.6,0,0,0,.242-.042.319.319,0,0,0,.148-.134.674.674,0,0,0,.077-.243,2.565,2.565,0,0,0,.023-.368V43.1H42.3v2.963h1.917l-.907-2.143a4.365,4.365,0,0,1,.428-.339,3.151,3.151,0,0,1,.477-.276,2.99,2.99,0,0,1,.5-.182,1.92,1.92,0,0,1,.5-.067,1.887,1.887,0,0,1,.495.067,2.719,2.719,0,0,1,.5.185,3.8,3.8,0,0,1,.477.276,4.545,4.545,0,0,1,.437.336l-.9,2.144h2.189V41.985h.515v4.594H42.3v.109a2.756,2.756,0,0,1-.048.541,1.131,1.131,0,0,1-.164.41.759.759,0,0,1-.306.259,1.084,1.084,0,0,1-.466.09A1.594,1.594,0,0,1,40.9,47.929Zm4.782-1.863.8-1.965a2.077,2.077,0,0,0-.58-.342,1.815,1.815,0,0,0-.688-.138,1.879,1.879,0,0,0-.654.116,2.049,2.049,0,0,0-.608.364l.8,1.965Zm-1.439,3.85L45.857,53.6h-.683l-.373-.883H43.063l-.378.883h-.663l1.618-3.683Zm.326,2.231-.636-1.463-.63,1.463Zm2.318-.125c0,.679.352,1.044.93,1.044s.924-.344.924-1.018h0V49.943h.647v2.075A1.465,1.465,0,0,1,47.8,53.659a1.446,1.446,0,0,1-1.566-1.61V49.943h.646Zm4.053-10.038v4.594h-.516V41.985Zm2.719,9.776v.01A1.836,1.836,0,0,1,51.7,53.6H50.33V49.943H51.7A1.829,1.829,0,0,1,53.656,51.761Zm-2.679,1.254H51.7a1.2,1.2,0,0,0,1.277-1.233v-.01A1.2,1.2,0,0,0,51.7,50.528h-.724Zm4.534-11.03v.526h-.529v-.526Zm.9,0v.526h-.529v-.526ZM53.48,44.844a1.6,1.6,0,0,1,.151-.691,1.633,1.633,0,0,1,.428-.554,2.021,2.021,0,0,1,.67-.364A2.764,2.764,0,0,1,55.6,43.1h.81v2.963h4.763v-.783a1.622,1.622,0,0,0-.039-.371.673.673,0,0,0-.149-.295.732.732,0,0,0-.286-.2,1.086,1.086,0,0,0-.422-.074H57.657a.871.871,0,0,1-.151-.23,1.119,1.119,0,0,1-.081-.288l.989-1.838h.56l-.969,1.844h2.277a1.615,1.615,0,0,1,.637.109,1.29,1.29,0,0,1,.45.333,1.13,1.13,0,0,1,.245.451,2,2,0,0,1,.077.561v.783h1.642V41.985h.515v4.082h1.635a2.137,2.137,0,0,1-.113-.362,1.809,1.809,0,0,1-.042-.393,1.873,1.873,0,0,1,.531-1.322,1.845,1.845,0,0,1,.583-.4,1.763,1.763,0,0,1,.72-.147,1.918,1.918,0,0,1,.744.143,1.84,1.84,0,0,1,.595.394,1.82,1.82,0,0,1,.4.591,1.885,1.885,0,0,1,.145.74,1.786,1.786,0,0,1-.162.755h1.6a2.217,2.217,0,0,1-.113-.362,1.914,1.914,0,0,1,.1-1.123,1.834,1.834,0,0,1,.971-.992,1.77,1.77,0,0,1,.721-.147,1.914,1.914,0,0,1,.743.143,1.808,1.808,0,0,1,.991.985,1.884,1.884,0,0,1,.144.74,1.785,1.785,0,0,1-.161.755h1.77V41.985h.515v4.594H73.542a1.826,1.826,0,0,1-.615.429,1.925,1.925,0,0,1-.77.154,1.8,1.8,0,0,1-.75-.157,1.87,1.87,0,0,1-.6-.426H68.547a1.817,1.817,0,0,1-.615.429,1.925,1.925,0,0,1-.77.154,1.805,1.805,0,0,1-.75-.157,1.88,1.88,0,0,1-.6-.426H55.6a3.133,3.133,0,0,1-.811-.1,2.013,2.013,0,0,1-.676-.313,1.577,1.577,0,0,1-.463-.538A1.633,1.633,0,0,1,53.48,44.844Zm17.457.98a1.338,1.338,0,0,0,.277.425,1.3,1.3,0,0,0,.943.394,1.451,1.451,0,0,0,.537-.1,1.3,1.3,0,0,0,.721-.7,1.329,1.329,0,0,0,.106-.535,1.391,1.391,0,0,0-.1-.541,1.264,1.264,0,0,0-.286-.425,1.352,1.352,0,0,0-.431-.282,1.42,1.42,0,0,0-.543-.1,1.271,1.271,0,0,0-.531.11,1.286,1.286,0,0,0-.415.291,1.341,1.341,0,0,0-.274.429,1.382,1.382,0,0,0-.1.521A1.366,1.366,0,0,0,70.937,45.824Zm-4.994,0a1.335,1.335,0,0,0,.277.425,1.3,1.3,0,0,0,.943.394,1.456,1.456,0,0,0,.538-.1,1.293,1.293,0,0,0,.72-.7,1.329,1.329,0,0,0,.106-.535,1.391,1.391,0,0,0-.1-.541,1.264,1.264,0,0,0-.286-.425,1.353,1.353,0,0,0-.431-.282,1.421,1.421,0,0,0-.544-.1,1.274,1.274,0,0,0-.531.11,1.291,1.291,0,0,0-.414.291,1.326,1.326,0,0,0-.274.429,1.381,1.381,0,0,0-.1.521A1.366,1.366,0,0,0,65.943,45.824ZM54.1,45.36a1.128,1.128,0,0,0,.3.383,1.361,1.361,0,0,0,.444.241,1.76,1.76,0,0,0,.543.083H55.9V43.615h-.509a1.575,1.575,0,0,0-.515.086,1.424,1.424,0,0,0-.447.25,1.27,1.27,0,0,0-.316.39,1.061,1.061,0,0,0-.119.5A1.175,1.175,0,0,0,54.1,45.36ZM55.12,53.6h-.646V49.943h.646Zm4.461-3.683L61.2,53.6h-.683l-.373-.883H58.4l-.378.883h-.662l1.618-3.683Zm.326,2.231-.636-1.463-.63,1.463Zm4.6-1.839a1.1,1.1,0,0,1,.305.789v.01a1.1,1.1,0,0,1-.878,1.108L64.93,53.6h-.762l-.9-1.275h-.809V53.6H61.81V49.943h1.638A1.489,1.489,0,0,1,64.51,50.309Zm-2.054.219v1.228H63.4c.463,0,.757-.24.757-.611v-.01c0-.391-.283-.606-.762-.606Zm5.167-.611L69.241,53.6h-.683l-.373-.883H66.446l-.377.883h-.663l1.618-3.683Zm.325,2.231-.636-1.463-.63,1.463Zm4.514-1.881a.817.817,0,0,1,.247.606v.01a.87.87,0,0,1-.525.815.9.9,0,0,1,.73.888V52.6c0,.653-.54,1-1.36,1h-1.7V49.943H71.5A1.33,1.33,0,0,1,72.462,50.267Zm-1.975,2.763h1.071c.442,0,.709-.172.709-.5h0v-.01c0-.308-.247-.491-.757-.491H70.488Zm0-2.517v.971h.883c.415,0,.693-.162.693-.5v-.01c0-.287-.231-.464-.646-.464ZM74.361,53.6h-.646V49.943h.646Zm3.814-11.616v4.594H77.66V41.985Zm-.98,7.932L78.813,53.6h-.683l-.372-.883h-1.74l-.377.883h-.663L76.6,49.917Zm.326,2.231-.636-1.463-.63,1.463Z" transform="translate(-0.502 -0.339)" fill="#fff" fill-rule="evenodd"/>
</svg>
