<svg xmlns="http://www.w3.org/2000/svg" width="53" height="60.571" viewBox="0 0 53 60.571">
  <g id="xsl-icon" transform="translate(-32)">
    <path id="Path_6357" data-name="Path 6357" d="M99.786,0A3.8,3.8,0,0,0,96,3.786v53a3.8,3.8,0,0,0,3.786,3.786h37.857a3.8,3.8,0,0,0,3.786-3.786V15.143L126.286,0Z" transform="translate(-56.429)" fill="#e2e5e7"/>
    <path id="Path_6358" data-name="Path 6358" d="M355.786,15.143h11.357L352,0V11.357A3.8,3.8,0,0,0,355.786,15.143Z" transform="translate(-282.143)" fill="#b0b7bd"/>
    <path id="Path_6359" data-name="Path 6359" d="M395.357,139.357,384,128h11.357Z" transform="translate(-310.357 -112.857)" fill="#cad1d8"/>
    <path id="Path_6360" data-name="Path 6360" d="M77.429,260.821a1.9,1.9,0,0,1-1.893,1.893H33.893A1.9,1.9,0,0,1,32,260.821V241.893A1.9,1.9,0,0,1,33.893,240H75.536a1.9,1.9,0,0,1,1.893,1.893Z" transform="translate(0 -211.607)" fill="#84bd5a"/>
    <g id="Group_2404" data-name="Group 2404" transform="translate(40.663 34.475)">
      <path id="Path_6361" data-name="Path 6361" d="M109.853,298.728l2.633-3.3c.787-1.03,2.317.286,1.454,1.27-.907,1.075-1.861,2.241-2.769,3.436l3.087,3.844a.993.993,0,1,1-1.649,1.1l-2.786-3.572-2.739,3.649c-.772,1.1-2.483-.136-1.62-1.166l3.042-3.86c-.954-1.2-1.878-2.36-2.8-3.436a.979.979,0,1,1,1.514-1.238Z" transform="translate(-105.226 -294.613)" fill="#fff"/>
      <path id="Path_6362" data-name="Path 6362" d="M197.36,296.268a.944.944,0,0,1,.954-.924.923.923,0,0,1,.893.924v7.583h4.117a1,1,0,1,1,0,1.982h-5.008a.914.914,0,0,1-.954-.922v-8.643h0Z" transform="translate(-186.46 -294.878)" fill="#fff"/>
      <path id="Path_6363" data-name="Path 6363" d="M270.722,294.16c.348-2.938,4.781-3.466,6.871-1.861a.886.886,0,1,1-.969,1.482c-1.121-.71-3.663-1.043-3.981.528-.409,2.483,6.174,1.062,6.068,5.088-.106,3.844-5.675,3.933-7.764,2.209a1.119,1.119,0,0,1-.212-1.484.894.894,0,0,1,1.348-.1c1.24.846,4.435,1.482,4.66-.668C276.548,297.112,270.253,298.458,270.722,294.16Z" transform="translate(-250.988 -291.407)" fill="#fff"/>
    </g>
    <path id="Path_6364" data-name="Path 6364" d="M131.964,417.893H96v1.893h35.964a1.9,1.9,0,0,0,1.893-1.893V416A1.9,1.9,0,0,1,131.964,417.893Z" transform="translate(-56.429 -366.786)" fill="#cad1d8"/>
  </g>
</svg>
